<svg xmlns="http://www.w3.org/2000/svg" width="960" height="420">
<rect width="100%" height="100%" fill="white"/>
<text x="70" y="24" font-size="18" font-family="Arial">Total Reward Trend</text>
<line x1="70" y1="360" x2="930" y2="360" stroke="#333"/>
<line x1="70" y1="40" x2="70" y2="360" stroke="#333"/>
<line x1="70" y1="360.0" x2="930" y2="360.0" stroke="#ddd"/>
<text x="8" y="364.0" font-size="12" font-family="Arial">-3631365.05</text>
<line x1="70" y1="280.0" x2="930" y2="280.0" stroke="#ddd"/>
<text x="8" y="284.0" font-size="12" font-family="Arial">-2749041.04</text>
<line x1="70" y1="200.0" x2="930" y2="200.0" stroke="#ddd"/>
<text x="8" y="204.0" font-size="12" font-family="Arial">-1866717.03</text>
<line x1="70" y1="120.0" x2="930" y2="120.0" stroke="#ddd"/>
<text x="8" y="124.0" font-size="12" font-family="Arial">-984393.01</text>
<line x1="70" y1="40.0" x2="930" y2="40.0" stroke="#ddd"/>
<text x="8" y="44.0" font-size="12" font-family="Arial">-102069.00</text>
<circle cx="70.00" cy="167.05" r="3" fill="#1f77b4"/>
<circle cx="80.89" cy="161.25" r="3" fill="#1f77b4"/>
<circle cx="91.77" cy="123.59" r="3" fill="#1f77b4"/>
<circle cx="102.66" cy="78.57" r="3" fill="#1f77b4"/>
<circle cx="113.54" cy="81.66" r="3" fill="#1f77b4"/>
<circle cx="124.43" cy="59.92" r="3" fill="#1f77b4"/>
<circle cx="135.32" cy="75.54" r="3" fill="#1f77b4"/>
<circle cx="146.20" cy="72.29" r="3" fill="#1f77b4"/>
<circle cx="157.09" cy="87.47" r="3" fill="#1f77b4"/>
<circle cx="167.97" cy="74.60" r="3" fill="#1f77b4"/>
<circle cx="178.86" cy="70.09" r="3" fill="#1f77b4"/>
<circle cx="189.75" cy="81.25" r="3" fill="#1f77b4"/>
<circle cx="200.63" cy="51.52" r="3" fill="#1f77b4"/>
<circle cx="211.52" cy="47.91" r="3" fill="#1f77b4"/>
<circle cx="222.41" cy="47.21" r="3" fill="#1f77b4"/>
<circle cx="233.29" cy="49.62" r="3" fill="#1f77b4"/>
<circle cx="244.18" cy="49.62" r="3" fill="#1f77b4"/>
<circle cx="255.06" cy="44.08" r="3" fill="#1f77b4"/>
<circle cx="265.95" cy="49.53" r="3" fill="#1f77b4"/>
<circle cx="276.84" cy="47.49" r="3" fill="#1f77b4"/>
<circle cx="287.72" cy="47.44" r="3" fill="#1f77b4"/>
<circle cx="298.61" cy="43.14" r="3" fill="#1f77b4"/>
<circle cx="309.49" cy="42.58" r="3" fill="#1f77b4"/>
<circle cx="320.38" cy="41.61" r="3" fill="#1f77b4"/>
<circle cx="331.27" cy="42.06" r="3" fill="#1f77b4"/>
<circle cx="342.15" cy="42.46" r="3" fill="#1f77b4"/>
<circle cx="353.04" cy="43.67" r="3" fill="#1f77b4"/>
<circle cx="363.92" cy="54.35" r="3" fill="#1f77b4"/>
<circle cx="374.81" cy="44.23" r="3" fill="#1f77b4"/>
<circle cx="385.70" cy="43.53" r="3" fill="#1f77b4"/>
<circle cx="396.58" cy="42.89" r="3" fill="#1f77b4"/>
<circle cx="407.47" cy="45.65" r="3" fill="#1f77b4"/>
<circle cx="418.35" cy="45.72" r="3" fill="#1f77b4"/>
<circle cx="429.24" cy="51.94" r="3" fill="#1f77b4"/>
<circle cx="440.13" cy="62.58" r="3" fill="#1f77b4"/>
<circle cx="451.01" cy="56.87" r="3" fill="#1f77b4"/>
<circle cx="461.90" cy="58.55" r="3" fill="#1f77b4"/>
<circle cx="472.78" cy="70.84" r="3" fill="#1f77b4"/>
<circle cx="483.67" cy="69.54" r="3" fill="#1f77b4"/>
<circle cx="494.56" cy="74.57" r="3" fill="#1f77b4"/>
<circle cx="505.44" cy="73.65" r="3" fill="#1f77b4"/>
<circle cx="516.33" cy="82.85" r="3" fill="#1f77b4"/>
<circle cx="527.22" cy="87.01" r="3" fill="#1f77b4"/>
<circle cx="538.10" cy="78.82" r="3" fill="#1f77b4"/>
<circle cx="548.99" cy="84.79" r="3" fill="#1f77b4"/>
<circle cx="559.87" cy="61.41" r="3" fill="#1f77b4"/>
<circle cx="570.76" cy="81.39" r="3" fill="#1f77b4"/>
<circle cx="581.65" cy="78.20" r="3" fill="#1f77b4"/>
<circle cx="592.53" cy="57.20" r="3" fill="#1f77b4"/>
<circle cx="603.42" cy="57.98" r="3" fill="#1f77b4"/>
<circle cx="614.30" cy="52.47" r="3" fill="#1f77b4"/>
<circle cx="625.19" cy="43.76" r="3" fill="#1f77b4"/>
<circle cx="636.08" cy="45.33" r="3" fill="#1f77b4"/>
<circle cx="646.96" cy="51.77" r="3" fill="#1f77b4"/>
<circle cx="657.85" cy="43.47" r="3" fill="#1f77b4"/>
<circle cx="668.73" cy="51.19" r="3" fill="#1f77b4"/>
<circle cx="679.62" cy="54.89" r="3" fill="#1f77b4"/>
<circle cx="690.51" cy="67.67" r="3" fill="#1f77b4"/>
<circle cx="701.39" cy="80.95" r="3" fill="#1f77b4"/>
<circle cx="712.28" cy="69.66" r="3" fill="#1f77b4"/>
<circle cx="723.16" cy="86.64" r="3" fill="#1f77b4"/>
<circle cx="734.05" cy="67.14" r="3" fill="#1f77b4"/>
<circle cx="744.94" cy="69.54" r="3" fill="#1f77b4"/>
<circle cx="755.82" cy="68.24" r="3" fill="#1f77b4"/>
<circle cx="766.71" cy="56.62" r="3" fill="#1f77b4"/>
<circle cx="777.59" cy="49.29" r="3" fill="#1f77b4"/>
<circle cx="788.48" cy="48.30" r="3" fill="#1f77b4"/>
<circle cx="799.37" cy="44.86" r="3" fill="#1f77b4"/>
<circle cx="810.25" cy="48.87" r="3" fill="#1f77b4"/>
<circle cx="821.14" cy="59.59" r="3" fill="#1f77b4"/>
<circle cx="832.03" cy="58.16" r="3" fill="#1f77b4"/>
<circle cx="842.91" cy="44.25" r="3" fill="#1f77b4"/>
<circle cx="853.80" cy="57.84" r="3" fill="#1f77b4"/>
<circle cx="864.68" cy="54.49" r="3" fill="#1f77b4"/>
<circle cx="875.57" cy="42.24" r="3" fill="#1f77b4"/>
<circle cx="886.46" cy="53.28" r="3" fill="#1f77b4"/>
<circle cx="897.34" cy="44.57" r="3" fill="#1f77b4"/>
<circle cx="908.23" cy="42.97" r="3" fill="#1f77b4"/>
<circle cx="919.11" cy="43.70" r="3" fill="#1f77b4"/>
<circle cx="930.00" cy="40.00" r="3" fill="#1f77b4"/>
<polyline fill="none" stroke="#1f77b4" stroke-width="2" points="70.00,167.05 80.89,161.25 91.77,123.59 102.66,78.57 113.54,81.66 124.43,59.92 135.32,75.54 146.20,72.29 157.09,87.47 167.97,74.60 178.86,70.09 189.75,81.25 200.63,51.52 211.52,47.91 222.41,47.21 233.29,49.62 244.18,49.62 255.06,44.08 265.95,49.53 276.84,47.49 287.72,47.44 298.61,43.14 309.49,42.58 320.38,41.61 331.27,42.06 342.15,42.46 353.04,43.67 363.92,54.35 374.81,44.23 385.70,43.53 396.58,42.89 407.47,45.65 418.35,45.72 429.24,51.94 440.13,62.58 451.01,56.87 461.90,58.55 472.78,70.84 483.67,69.54 494.56,74.57 505.44,73.65 516.33,82.85 527.22,87.01 538.10,78.82 548.99,84.79 559.87,61.41 570.76,81.39 581.65,78.20 592.53,57.20 603.42,57.98 614.30,52.47 625.19,43.76 636.08,45.33 646.96,51.77 657.85,43.47 668.73,51.19 679.62,54.89 690.51,67.67 701.39,80.95 712.28,69.66 723.16,86.64 734.05,67.14 744.94,69.54 755.82,68.24 766.71,56.62 777.59,49.29 788.48,48.30 799.37,44.86 810.25,48.87 821.14,59.59 832.03,58.16 842.91,44.25 853.80,57.84 864.68,54.49 875.57,42.24 886.46,53.28 897.34,44.57 908.23,42.97 919.11,43.70 930.00,40.00"/>
<text x="710" y="58" font-size="12" font-family="Arial" fill="#1f77b4">Pure DQN</text>
<circle cx="70.00" cy="360.00" r="3" fill="#ff7f0e"/>
<circle cx="80.89" cy="314.69" r="3" fill="#ff7f0e"/>
<circle cx="91.77" cy="355.10" r="3" fill="#ff7f0e"/>
<circle cx="102.66" cy="325.91" r="3" fill="#ff7f0e"/>
<circle cx="113.54" cy="261.71" r="3" fill="#ff7f0e"/>
<circle cx="124.43" cy="213.43" r="3" fill="#ff7f0e"/>
<circle cx="135.32" cy="246.34" r="3" fill="#ff7f0e"/>
<circle cx="146.20" cy="259.12" r="3" fill="#ff7f0e"/>
<circle cx="157.09" cy="208.78" r="3" fill="#ff7f0e"/>
<circle cx="167.97" cy="246.40" r="3" fill="#ff7f0e"/>
<circle cx="178.86" cy="98.97" r="3" fill="#ff7f0e"/>
<circle cx="189.75" cy="69.18" r="3" fill="#ff7f0e"/>
<circle cx="200.63" cy="108.93" r="3" fill="#ff7f0e"/>
<circle cx="211.52" cy="80.17" r="3" fill="#ff7f0e"/>
<circle cx="222.41" cy="70.56" r="3" fill="#ff7f0e"/>
<circle cx="233.29" cy="69.20" r="3" fill="#ff7f0e"/>
<circle cx="244.18" cy="74.61" r="3" fill="#ff7f0e"/>
<circle cx="255.06" cy="67.04" r="3" fill="#ff7f0e"/>
<circle cx="265.95" cy="68.20" r="3" fill="#ff7f0e"/>
<circle cx="276.84" cy="71.13" r="3" fill="#ff7f0e"/>
<circle cx="287.72" cy="69.52" r="3" fill="#ff7f0e"/>
<circle cx="298.61" cy="69.99" r="3" fill="#ff7f0e"/>
<circle cx="309.49" cy="67.70" r="3" fill="#ff7f0e"/>
<circle cx="320.38" cy="71.77" r="3" fill="#ff7f0e"/>
<circle cx="331.27" cy="75.69" r="3" fill="#ff7f0e"/>
<circle cx="342.15" cy="67.29" r="3" fill="#ff7f0e"/>
<circle cx="353.04" cy="64.23" r="3" fill="#ff7f0e"/>
<circle cx="363.92" cy="64.38" r="3" fill="#ff7f0e"/>
<circle cx="374.81" cy="66.13" r="3" fill="#ff7f0e"/>
<circle cx="385.70" cy="66.13" r="3" fill="#ff7f0e"/>
<circle cx="396.58" cy="67.47" r="3" fill="#ff7f0e"/>
<circle cx="407.47" cy="63.66" r="3" fill="#ff7f0e"/>
<circle cx="418.35" cy="63.81" r="3" fill="#ff7f0e"/>
<circle cx="429.24" cy="63.31" r="3" fill="#ff7f0e"/>
<circle cx="440.13" cy="63.13" r="3" fill="#ff7f0e"/>
<circle cx="451.01" cy="65.58" r="3" fill="#ff7f0e"/>
<circle cx="461.90" cy="66.72" r="3" fill="#ff7f0e"/>
<circle cx="472.78" cy="62.73" r="3" fill="#ff7f0e"/>
<circle cx="483.67" cy="63.63" r="3" fill="#ff7f0e"/>
<circle cx="494.56" cy="65.54" r="3" fill="#ff7f0e"/>
<circle cx="505.44" cy="65.92" r="3" fill="#ff7f0e"/>
<circle cx="516.33" cy="63.10" r="3" fill="#ff7f0e"/>
<circle cx="527.22" cy="67.36" r="3" fill="#ff7f0e"/>
<circle cx="538.10" cy="64.17" r="3" fill="#ff7f0e"/>
<circle cx="548.99" cy="68.87" r="3" fill="#ff7f0e"/>
<circle cx="559.87" cy="66.08" r="3" fill="#ff7f0e"/>
<circle cx="570.76" cy="75.79" r="3" fill="#ff7f0e"/>
<circle cx="581.65" cy="71.01" r="3" fill="#ff7f0e"/>
<circle cx="592.53" cy="67.16" r="3" fill="#ff7f0e"/>
<circle cx="603.42" cy="65.96" r="3" fill="#ff7f0e"/>
<circle cx="614.30" cy="64.61" r="3" fill="#ff7f0e"/>
<circle cx="625.19" cy="66.15" r="3" fill="#ff7f0e"/>
<circle cx="636.08" cy="67.52" r="3" fill="#ff7f0e"/>
<circle cx="646.96" cy="71.27" r="3" fill="#ff7f0e"/>
<circle cx="657.85" cy="76.67" r="3" fill="#ff7f0e"/>
<circle cx="668.73" cy="135.09" r="3" fill="#ff7f0e"/>
<circle cx="679.62" cy="151.16" r="3" fill="#ff7f0e"/>
<circle cx="690.51" cy="102.67" r="3" fill="#ff7f0e"/>
<circle cx="701.39" cy="182.11" r="3" fill="#ff7f0e"/>
<circle cx="712.28" cy="149.12" r="3" fill="#ff7f0e"/>
<circle cx="723.16" cy="166.36" r="3" fill="#ff7f0e"/>
<circle cx="734.05" cy="124.90" r="3" fill="#ff7f0e"/>
<circle cx="744.94" cy="145.17" r="3" fill="#ff7f0e"/>
<circle cx="755.82" cy="68.94" r="3" fill="#ff7f0e"/>
<circle cx="766.71" cy="69.42" r="3" fill="#ff7f0e"/>
<circle cx="777.59" cy="75.90" r="3" fill="#ff7f0e"/>
<circle cx="788.48" cy="67.53" r="3" fill="#ff7f0e"/>
<circle cx="799.37" cy="58.83" r="3" fill="#ff7f0e"/>
<circle cx="810.25" cy="62.59" r="3" fill="#ff7f0e"/>
<circle cx="821.14" cy="63.39" r="3" fill="#ff7f0e"/>
<circle cx="832.03" cy="58.33" r="3" fill="#ff7f0e"/>
<circle cx="842.91" cy="58.66" r="3" fill="#ff7f0e"/>
<circle cx="853.80" cy="59.89" r="3" fill="#ff7f0e"/>
<circle cx="864.68" cy="62.42" r="3" fill="#ff7f0e"/>
<circle cx="875.57" cy="64.51" r="3" fill="#ff7f0e"/>
<circle cx="886.46" cy="80.08" r="3" fill="#ff7f0e"/>
<circle cx="897.34" cy="70.28" r="3" fill="#ff7f0e"/>
<circle cx="908.23" cy="65.83" r="3" fill="#ff7f0e"/>
<circle cx="919.11" cy="73.27" r="3" fill="#ff7f0e"/>
<circle cx="930.00" cy="69.13" r="3" fill="#ff7f0e"/>
<polyline fill="none" stroke="#ff7f0e" stroke-width="2" points="70.00,360.00 80.89,314.69 91.77,355.10 102.66,325.91 113.54,261.71 124.43,213.43 135.32,246.34 146.20,259.12 157.09,208.78 167.97,246.40 178.86,98.97 189.75,69.18 200.63,108.93 211.52,80.17 222.41,70.56 233.29,69.20 244.18,74.61 255.06,67.04 265.95,68.20 276.84,71.13 287.72,69.52 298.61,69.99 309.49,67.70 320.38,71.77 331.27,75.69 342.15,67.29 353.04,64.23 363.92,64.38 374.81,66.13 385.70,66.13 396.58,67.47 407.47,63.66 418.35,63.81 429.24,63.31 440.13,63.13 451.01,65.58 461.90,66.72 472.78,62.73 483.67,63.63 494.56,65.54 505.44,65.92 516.33,63.10 527.22,67.36 538.10,64.17 548.99,68.87 559.87,66.08 570.76,75.79 581.65,71.01 592.53,67.16 603.42,65.96 614.30,64.61 625.19,66.15 636.08,67.52 646.96,71.27 657.85,76.67 668.73,135.09 679.62,151.16 690.51,102.67 701.39,182.11 712.28,149.12 723.16,166.36 734.05,124.90 744.94,145.17 755.82,68.94 766.71,69.42 777.59,75.90 788.48,67.53 799.37,58.83 810.25,62.59 821.14,63.39 832.03,58.33 842.91,58.66 853.80,59.89 864.68,62.42 875.57,64.51 886.46,80.08 897.34,70.28 908.23,65.83 919.11,73.27 930.00,69.13"/>
<text x="710" y="76" font-size="12" font-family="Arial" fill="#ff7f0e">RuleMode + DQN</text>
</svg>