<svg xmlns="http://www.w3.org/2000/svg" width="960" height="420">
<rect width="100%" height="100%" fill="white"/>
<text x="70" y="24" font-size="18" font-family="Arial">Total Reward Trend</text>
<line x1="70" y1="360" x2="930" y2="360" stroke="#333"/>
<line x1="70" y1="40" x2="70" y2="360" stroke="#333"/>
<line x1="70" y1="360.0" x2="930" y2="360.0" stroke="#ddd"/>
<text x="8" y="364.0" font-size="12" font-family="Arial">-4556943.15</text>
<line x1="70" y1="280.0" x2="930" y2="280.0" stroke="#ddd"/>
<text x="8" y="284.0" font-size="12" font-family="Arial">-3445778.92</text>
<line x1="70" y1="200.0" x2="930" y2="200.0" stroke="#ddd"/>
<text x="8" y="204.0" font-size="12" font-family="Arial">-2334614.70</text>
<line x1="70" y1="120.0" x2="930" y2="120.0" stroke="#ddd"/>
<text x="8" y="124.0" font-size="12" font-family="Arial">-1223450.47</text>
<line x1="70" y1="40.0" x2="930" y2="40.0" stroke="#ddd"/>
<text x="8" y="44.0" font-size="12" font-family="Arial">-112286.25</text>
<circle cx="70.00" cy="139.67" r="3" fill="#1f77b4"/>
<circle cx="80.89" cy="129.99" r="3" fill="#1f77b4"/>
<circle cx="91.77" cy="128.02" r="3" fill="#1f77b4"/>
<circle cx="102.66" cy="132.94" r="3" fill="#1f77b4"/>
<circle cx="113.54" cy="101.86" r="3" fill="#1f77b4"/>
<circle cx="124.43" cy="118.17" r="3" fill="#1f77b4"/>
<circle cx="135.32" cy="104.22" r="3" fill="#1f77b4"/>
<circle cx="146.20" cy="92.34" r="3" fill="#1f77b4"/>
<circle cx="157.09" cy="99.38" r="3" fill="#1f77b4"/>
<circle cx="167.97" cy="89.05" r="3" fill="#1f77b4"/>
<circle cx="178.86" cy="80.91" r="3" fill="#1f77b4"/>
<circle cx="189.75" cy="45.82" r="3" fill="#1f77b4"/>
<circle cx="200.63" cy="47.78" r="3" fill="#1f77b4"/>
<circle cx="211.52" cy="44.09" r="3" fill="#1f77b4"/>
<circle cx="222.41" cy="43.47" r="3" fill="#1f77b4"/>
<circle cx="233.29" cy="43.23" r="3" fill="#1f77b4"/>
<circle cx="244.18" cy="43.86" r="3" fill="#1f77b4"/>
<circle cx="255.06" cy="66.52" r="3" fill="#1f77b4"/>
<circle cx="265.95" cy="67.49" r="3" fill="#1f77b4"/>
<circle cx="276.84" cy="56.46" r="3" fill="#1f77b4"/>
<circle cx="287.72" cy="48.45" r="3" fill="#1f77b4"/>
<circle cx="298.61" cy="78.00" r="3" fill="#1f77b4"/>
<circle cx="309.49" cy="74.53" r="3" fill="#1f77b4"/>
<circle cx="320.38" cy="73.50" r="3" fill="#1f77b4"/>
<circle cx="331.27" cy="69.91" r="3" fill="#1f77b4"/>
<circle cx="342.15" cy="63.66" r="3" fill="#1f77b4"/>
<circle cx="353.04" cy="64.93" r="3" fill="#1f77b4"/>
<circle cx="363.92" cy="64.93" r="3" fill="#1f77b4"/>
<circle cx="374.81" cy="48.21" r="3" fill="#1f77b4"/>
<circle cx="385.70" cy="76.63" r="3" fill="#1f77b4"/>
<circle cx="396.58" cy="40.00" r="3" fill="#1f77b4"/>
<circle cx="407.47" cy="43.52" r="3" fill="#1f77b4"/>
<circle cx="418.35" cy="44.10" r="3" fill="#1f77b4"/>
<circle cx="429.24" cy="44.79" r="3" fill="#1f77b4"/>
<circle cx="440.13" cy="45.00" r="3" fill="#1f77b4"/>
<circle cx="451.01" cy="46.94" r="3" fill="#1f77b4"/>
<circle cx="461.90" cy="43.22" r="3" fill="#1f77b4"/>
<circle cx="472.78" cy="61.92" r="3" fill="#1f77b4"/>
<circle cx="483.67" cy="67.02" r="3" fill="#1f77b4"/>
<circle cx="494.56" cy="56.17" r="3" fill="#1f77b4"/>
<circle cx="505.44" cy="65.83" r="3" fill="#1f77b4"/>
<circle cx="516.33" cy="67.70" r="3" fill="#1f77b4"/>
<circle cx="527.22" cy="62.63" r="3" fill="#1f77b4"/>
<circle cx="538.10" cy="60.91" r="3" fill="#1f77b4"/>
<circle cx="548.99" cy="51.05" r="3" fill="#1f77b4"/>
<circle cx="559.87" cy="46.08" r="3" fill="#1f77b4"/>
<circle cx="570.76" cy="47.17" r="3" fill="#1f77b4"/>
<circle cx="581.65" cy="48.86" r="3" fill="#1f77b4"/>
<circle cx="592.53" cy="46.50" r="3" fill="#1f77b4"/>
<circle cx="603.42" cy="51.26" r="3" fill="#1f77b4"/>
<circle cx="614.30" cy="53.19" r="3" fill="#1f77b4"/>
<circle cx="625.19" cy="43.57" r="3" fill="#1f77b4"/>
<circle cx="636.08" cy="41.95" r="3" fill="#1f77b4"/>
<circle cx="646.96" cy="44.46" r="3" fill="#1f77b4"/>
<circle cx="657.85" cy="42.17" r="3" fill="#1f77b4"/>
<circle cx="668.73" cy="46.17" r="3" fill="#1f77b4"/>
<circle cx="679.62" cy="59.63" r="3" fill="#1f77b4"/>
<circle cx="690.51" cy="66.18" r="3" fill="#1f77b4"/>
<circle cx="701.39" cy="68.04" r="3" fill="#1f77b4"/>
<circle cx="712.28" cy="60.65" r="3" fill="#1f77b4"/>
<circle cx="723.16" cy="63.48" r="3" fill="#1f77b4"/>
<circle cx="734.05" cy="63.02" r="3" fill="#1f77b4"/>
<circle cx="744.94" cy="63.39" r="3" fill="#1f77b4"/>
<circle cx="755.82" cy="59.29" r="3" fill="#1f77b4"/>
<circle cx="766.71" cy="60.11" r="3" fill="#1f77b4"/>
<circle cx="777.59" cy="60.58" r="3" fill="#1f77b4"/>
<circle cx="788.48" cy="47.06" r="3" fill="#1f77b4"/>
<circle cx="799.37" cy="41.59" r="3" fill="#1f77b4"/>
<circle cx="810.25" cy="54.48" r="3" fill="#1f77b4"/>
<circle cx="821.14" cy="59.55" r="3" fill="#1f77b4"/>
<circle cx="832.03" cy="46.19" r="3" fill="#1f77b4"/>
<circle cx="842.91" cy="45.99" r="3" fill="#1f77b4"/>
<circle cx="853.80" cy="49.74" r="3" fill="#1f77b4"/>
<circle cx="864.68" cy="48.52" r="3" fill="#1f77b4"/>
<circle cx="875.57" cy="61.27" r="3" fill="#1f77b4"/>
<circle cx="886.46" cy="53.89" r="3" fill="#1f77b4"/>
<circle cx="897.34" cy="66.40" r="3" fill="#1f77b4"/>
<circle cx="908.23" cy="68.32" r="3" fill="#1f77b4"/>
<circle cx="919.11" cy="70.90" r="3" fill="#1f77b4"/>
<circle cx="930.00" cy="66.95" r="3" fill="#1f77b4"/>
<polyline fill="none" stroke="#1f77b4" stroke-width="2" points="70.00,139.67 80.89,129.99 91.77,128.02 102.66,132.94 113.54,101.86 124.43,118.17 135.32,104.22 146.20,92.34 157.09,99.38 167.97,89.05 178.86,80.91 189.75,45.82 200.63,47.78 211.52,44.09 222.41,43.47 233.29,43.23 244.18,43.86 255.06,66.52 265.95,67.49 276.84,56.46 287.72,48.45 298.61,78.00 309.49,74.53 320.38,73.50 331.27,69.91 342.15,63.66 353.04,64.93 363.92,64.93 374.81,48.21 385.70,76.63 396.58,40.00 407.47,43.52 418.35,44.10 429.24,44.79 440.13,45.00 451.01,46.94 461.90,43.22 472.78,61.92 483.67,67.02 494.56,56.17 505.44,65.83 516.33,67.70 527.22,62.63 538.10,60.91 548.99,51.05 559.87,46.08 570.76,47.17 581.65,48.86 592.53,46.50 603.42,51.26 614.30,53.19 625.19,43.57 636.08,41.95 646.96,44.46 657.85,42.17 668.73,46.17 679.62,59.63 690.51,66.18 701.39,68.04 712.28,60.65 723.16,63.48 734.05,63.02 744.94,63.39 755.82,59.29 766.71,60.11 777.59,60.58 788.48,47.06 799.37,41.59 810.25,54.48 821.14,59.55 832.03,46.19 842.91,45.99 853.80,49.74 864.68,48.52 875.57,61.27 886.46,53.89 897.34,66.40 908.23,68.32 919.11,70.90 930.00,66.95"/>
<text x="710" y="58" font-size="12" font-family="Arial" fill="#1f77b4">Pure DQN</text>
<circle cx="70.00" cy="360.00" r="3" fill="#ff7f0e"/>
<circle cx="80.89" cy="327.34" r="3" fill="#ff7f0e"/>
<circle cx="91.77" cy="326.86" r="3" fill="#ff7f0e"/>
<circle cx="102.66" cy="232.27" r="3" fill="#ff7f0e"/>
<circle cx="113.54" cy="153.34" r="3" fill="#ff7f0e"/>
<circle cx="124.43" cy="136.70" r="3" fill="#ff7f0e"/>
<circle cx="135.32" cy="151.65" r="3" fill="#ff7f0e"/>
<circle cx="146.20" cy="214.80" r="3" fill="#ff7f0e"/>
<circle cx="157.09" cy="191.81" r="3" fill="#ff7f0e"/>
<circle cx="167.97" cy="193.59" r="3" fill="#ff7f0e"/>
<circle cx="178.86" cy="183.78" r="3" fill="#ff7f0e"/>
<circle cx="189.75" cy="162.91" r="3" fill="#ff7f0e"/>
<circle cx="200.63" cy="119.77" r="3" fill="#ff7f0e"/>
<circle cx="211.52" cy="58.86" r="3" fill="#ff7f0e"/>
<circle cx="222.41" cy="64.35" r="3" fill="#ff7f0e"/>
<circle cx="233.29" cy="93.31" r="3" fill="#ff7f0e"/>
<circle cx="244.18" cy="65.03" r="3" fill="#ff7f0e"/>
<circle cx="255.06" cy="67.28" r="3" fill="#ff7f0e"/>
<circle cx="265.95" cy="62.11" r="3" fill="#ff7f0e"/>
<circle cx="276.84" cy="59.87" r="3" fill="#ff7f0e"/>
<circle cx="287.72" cy="59.01" r="3" fill="#ff7f0e"/>
<circle cx="298.61" cy="56.45" r="3" fill="#ff7f0e"/>
<circle cx="309.49" cy="53.44" r="3" fill="#ff7f0e"/>
<circle cx="320.38" cy="57.81" r="3" fill="#ff7f0e"/>
<circle cx="331.27" cy="54.54" r="3" fill="#ff7f0e"/>
<circle cx="342.15" cy="53.94" r="3" fill="#ff7f0e"/>
<circle cx="353.04" cy="49.75" r="3" fill="#ff7f0e"/>
<circle cx="363.92" cy="53.53" r="3" fill="#ff7f0e"/>
<circle cx="374.81" cy="52.94" r="3" fill="#ff7f0e"/>
<circle cx="385.70" cy="53.53" r="3" fill="#ff7f0e"/>
<circle cx="396.58" cy="54.55" r="3" fill="#ff7f0e"/>
<circle cx="407.47" cy="54.18" r="3" fill="#ff7f0e"/>
<circle cx="418.35" cy="53.52" r="3" fill="#ff7f0e"/>
<circle cx="429.24" cy="51.34" r="3" fill="#ff7f0e"/>
<circle cx="440.13" cy="50.02" r="3" fill="#ff7f0e"/>
<circle cx="451.01" cy="52.37" r="3" fill="#ff7f0e"/>
<circle cx="461.90" cy="53.21" r="3" fill="#ff7f0e"/>
<circle cx="472.78" cy="52.61" r="3" fill="#ff7f0e"/>
<circle cx="483.67" cy="51.81" r="3" fill="#ff7f0e"/>
<circle cx="494.56" cy="59.44" r="3" fill="#ff7f0e"/>
<circle cx="505.44" cy="55.09" r="3" fill="#ff7f0e"/>
<circle cx="516.33" cy="57.67" r="3" fill="#ff7f0e"/>
<circle cx="527.22" cy="58.48" r="3" fill="#ff7f0e"/>
<circle cx="538.10" cy="54.96" r="3" fill="#ff7f0e"/>
<circle cx="548.99" cy="61.16" r="3" fill="#ff7f0e"/>
<circle cx="559.87" cy="56.64" r="3" fill="#ff7f0e"/>
<circle cx="570.76" cy="62.48" r="3" fill="#ff7f0e"/>
<circle cx="581.65" cy="53.37" r="3" fill="#ff7f0e"/>
<circle cx="592.53" cy="53.79" r="3" fill="#ff7f0e"/>
<circle cx="603.42" cy="52.12" r="3" fill="#ff7f0e"/>
<circle cx="614.30" cy="54.11" r="3" fill="#ff7f0e"/>
<circle cx="625.19" cy="53.16" r="3" fill="#ff7f0e"/>
<circle cx="636.08" cy="52.88" r="3" fill="#ff7f0e"/>
<circle cx="646.96" cy="52.72" r="3" fill="#ff7f0e"/>
<circle cx="657.85" cy="56.03" r="3" fill="#ff7f0e"/>
<circle cx="668.73" cy="53.42" r="3" fill="#ff7f0e"/>
<circle cx="679.62" cy="59.27" r="3" fill="#ff7f0e"/>
<circle cx="690.51" cy="60.19" r="3" fill="#ff7f0e"/>
<circle cx="701.39" cy="64.25" r="3" fill="#ff7f0e"/>
<circle cx="712.28" cy="62.45" r="3" fill="#ff7f0e"/>
<circle cx="723.16" cy="59.89" r="3" fill="#ff7f0e"/>
<circle cx="734.05" cy="55.90" r="3" fill="#ff7f0e"/>
<circle cx="744.94" cy="58.10" r="3" fill="#ff7f0e"/>
<circle cx="755.82" cy="56.41" r="3" fill="#ff7f0e"/>
<circle cx="766.71" cy="51.15" r="3" fill="#ff7f0e"/>
<circle cx="777.59" cy="59.42" r="3" fill="#ff7f0e"/>
<circle cx="788.48" cy="57.91" r="3" fill="#ff7f0e"/>
<circle cx="799.37" cy="52.46" r="3" fill="#ff7f0e"/>
<circle cx="810.25" cy="55.49" r="3" fill="#ff7f0e"/>
<circle cx="821.14" cy="61.22" r="3" fill="#ff7f0e"/>
<circle cx="832.03" cy="55.41" r="3" fill="#ff7f0e"/>
<circle cx="842.91" cy="59.03" r="3" fill="#ff7f0e"/>
<circle cx="853.80" cy="56.16" r="3" fill="#ff7f0e"/>
<circle cx="864.68" cy="66.84" r="3" fill="#ff7f0e"/>
<circle cx="875.57" cy="65.93" r="3" fill="#ff7f0e"/>
<circle cx="886.46" cy="61.48" r="3" fill="#ff7f0e"/>
<circle cx="897.34" cy="56.63" r="3" fill="#ff7f0e"/>
<circle cx="908.23" cy="51.92" r="3" fill="#ff7f0e"/>
<circle cx="919.11" cy="75.19" r="3" fill="#ff7f0e"/>
<circle cx="930.00" cy="78.63" r="3" fill="#ff7f0e"/>
<polyline fill="none" stroke="#ff7f0e" stroke-width="2" points="70.00,360.00 80.89,327.34 91.77,326.86 102.66,232.27 113.54,153.34 124.43,136.70 135.32,151.65 146.20,214.80 157.09,191.81 167.97,193.59 178.86,183.78 189.75,162.91 200.63,119.77 211.52,58.86 222.41,64.35 233.29,93.31 244.18,65.03 255.06,67.28 265.95,62.11 276.84,59.87 287.72,59.01 298.61,56.45 309.49,53.44 320.38,57.81 331.27,54.54 342.15,53.94 353.04,49.75 363.92,53.53 374.81,52.94 385.70,53.53 396.58,54.55 407.47,54.18 418.35,53.52 429.24,51.34 440.13,50.02 451.01,52.37 461.90,53.21 472.78,52.61 483.67,51.81 494.56,59.44 505.44,55.09 516.33,57.67 527.22,58.48 538.10,54.96 548.99,61.16 559.87,56.64 570.76,62.48 581.65,53.37 592.53,53.79 603.42,52.12 614.30,54.11 625.19,53.16 636.08,52.88 646.96,52.72 657.85,56.03 668.73,53.42 679.62,59.27 690.51,60.19 701.39,64.25 712.28,62.45 723.16,59.89 734.05,55.90 744.94,58.10 755.82,56.41 766.71,51.15 777.59,59.42 788.48,57.91 799.37,52.46 810.25,55.49 821.14,61.22 832.03,55.41 842.91,59.03 853.80,56.16 864.68,66.84 875.57,65.93 886.46,61.48 897.34,56.63 908.23,51.92 919.11,75.19 930.00,78.63"/>
<text x="710" y="76" font-size="12" font-family="Arial" fill="#ff7f0e">RuleMode + DQN</text>
</svg>