<svg xmlns="http://www.w3.org/2000/svg" width="960" height="420">
<rect width="100%" height="100%" fill="white"/>
<text x="70" y="24" font-size="18" font-family="Arial">Total Reward Trend</text>
<line x1="70" y1="360" x2="930" y2="360" stroke="#333"/>
<line x1="70" y1="40" x2="70" y2="360" stroke="#333"/>
<line x1="70" y1="360.0" x2="930" y2="360.0" stroke="#ddd"/>
<text x="8" y="364.0" font-size="12" font-family="Arial">-2914724.80</text>
<line x1="70" y1="280.0" x2="930" y2="280.0" stroke="#ddd"/>
<text x="8" y="284.0" font-size="12" font-family="Arial">-2198677.79</text>
<line x1="70" y1="200.0" x2="930" y2="200.0" stroke="#ddd"/>
<text x="8" y="204.0" font-size="12" font-family="Arial">-1482630.78</text>
<line x1="70" y1="120.0" x2="930" y2="120.0" stroke="#ddd"/>
<text x="8" y="124.0" font-size="12" font-family="Arial">-766583.76</text>
<line x1="70" y1="40.0" x2="930" y2="40.0" stroke="#ddd"/>
<text x="8" y="44.0" font-size="12" font-family="Arial">-50536.75</text>
<circle cx="70.00" cy="82.35" r="3" fill="#1f77b4"/>
<circle cx="80.89" cy="54.09" r="3" fill="#1f77b4"/>
<circle cx="91.77" cy="117.96" r="3" fill="#1f77b4"/>
<circle cx="102.66" cy="87.70" r="3" fill="#1f77b4"/>
<circle cx="113.54" cy="119.34" r="3" fill="#1f77b4"/>
<circle cx="124.43" cy="103.08" r="3" fill="#1f77b4"/>
<circle cx="135.32" cy="108.01" r="3" fill="#1f77b4"/>
<circle cx="146.20" cy="98.76" r="3" fill="#1f77b4"/>
<circle cx="157.09" cy="96.49" r="3" fill="#1f77b4"/>
<circle cx="167.97" cy="69.06" r="3" fill="#1f77b4"/>
<circle cx="178.86" cy="62.93" r="3" fill="#1f77b4"/>
<circle cx="189.75" cy="70.12" r="3" fill="#1f77b4"/>
<circle cx="200.63" cy="82.71" r="3" fill="#1f77b4"/>
<circle cx="211.52" cy="91.32" r="3" fill="#1f77b4"/>
<circle cx="222.41" cy="115.45" r="3" fill="#1f77b4"/>
<circle cx="233.29" cy="88.15" r="3" fill="#1f77b4"/>
<circle cx="244.18" cy="87.54" r="3" fill="#1f77b4"/>
<circle cx="255.06" cy="80.56" r="3" fill="#1f77b4"/>
<circle cx="265.95" cy="83.57" r="3" fill="#1f77b4"/>
<circle cx="276.84" cy="75.04" r="3" fill="#1f77b4"/>
<circle cx="287.72" cy="63.41" r="3" fill="#1f77b4"/>
<circle cx="298.61" cy="64.42" r="3" fill="#1f77b4"/>
<circle cx="309.49" cy="63.10" r="3" fill="#1f77b4"/>
<circle cx="320.38" cy="62.55" r="3" fill="#1f77b4"/>
<circle cx="331.27" cy="63.93" r="3" fill="#1f77b4"/>
<circle cx="342.15" cy="64.26" r="3" fill="#1f77b4"/>
<circle cx="353.04" cy="49.78" r="3" fill="#1f77b4"/>
<circle cx="363.92" cy="49.48" r="3" fill="#1f77b4"/>
<circle cx="374.81" cy="50.30" r="3" fill="#1f77b4"/>
<circle cx="385.70" cy="55.69" r="3" fill="#1f77b4"/>
<circle cx="396.58" cy="56.53" r="3" fill="#1f77b4"/>
<circle cx="407.47" cy="61.16" r="3" fill="#1f77b4"/>
<circle cx="418.35" cy="66.29" r="3" fill="#1f77b4"/>
<circle cx="429.24" cy="61.80" r="3" fill="#1f77b4"/>
<circle cx="440.13" cy="61.66" r="3" fill="#1f77b4"/>
<circle cx="451.01" cy="60.78" r="3" fill="#1f77b4"/>
<circle cx="461.90" cy="67.79" r="3" fill="#1f77b4"/>
<circle cx="472.78" cy="54.84" r="3" fill="#1f77b4"/>
<circle cx="483.67" cy="50.02" r="3" fill="#1f77b4"/>
<circle cx="494.56" cy="42.21" r="3" fill="#1f77b4"/>
<circle cx="505.44" cy="43.54" r="3" fill="#1f77b4"/>
<circle cx="516.33" cy="45.07" r="3" fill="#1f77b4"/>
<circle cx="527.22" cy="45.10" r="3" fill="#1f77b4"/>
<circle cx="538.10" cy="44.62" r="3" fill="#1f77b4"/>
<circle cx="548.99" cy="42.36" r="3" fill="#1f77b4"/>
<circle cx="559.87" cy="41.46" r="3" fill="#1f77b4"/>
<circle cx="570.76" cy="44.25" r="3" fill="#1f77b4"/>
<circle cx="581.65" cy="40.31" r="3" fill="#1f77b4"/>
<circle cx="592.53" cy="45.72" r="3" fill="#1f77b4"/>
<circle cx="603.42" cy="40.22" r="3" fill="#1f77b4"/>
<circle cx="614.30" cy="45.20" r="3" fill="#1f77b4"/>
<circle cx="625.19" cy="40.20" r="3" fill="#1f77b4"/>
<circle cx="636.08" cy="40.00" r="3" fill="#1f77b4"/>
<circle cx="646.96" cy="40.14" r="3" fill="#1f77b4"/>
<circle cx="657.85" cy="40.38" r="3" fill="#1f77b4"/>
<circle cx="668.73" cy="40.23" r="3" fill="#1f77b4"/>
<circle cx="679.62" cy="40.36" r="3" fill="#1f77b4"/>
<circle cx="690.51" cy="43.73" r="3" fill="#1f77b4"/>
<circle cx="701.39" cy="40.56" r="3" fill="#1f77b4"/>
<circle cx="712.28" cy="46.94" r="3" fill="#1f77b4"/>
<circle cx="723.16" cy="42.98" r="3" fill="#1f77b4"/>
<circle cx="734.05" cy="41.01" r="3" fill="#1f77b4"/>
<circle cx="744.94" cy="43.39" r="3" fill="#1f77b4"/>
<circle cx="755.82" cy="70.21" r="3" fill="#1f77b4"/>
<circle cx="766.71" cy="68.30" r="3" fill="#1f77b4"/>
<circle cx="777.59" cy="75.30" r="3" fill="#1f77b4"/>
<circle cx="788.48" cy="70.37" r="3" fill="#1f77b4"/>
<circle cx="799.37" cy="80.17" r="3" fill="#1f77b4"/>
<circle cx="810.25" cy="83.10" r="3" fill="#1f77b4"/>
<circle cx="821.14" cy="82.96" r="3" fill="#1f77b4"/>
<circle cx="832.03" cy="82.12" r="3" fill="#1f77b4"/>
<circle cx="842.91" cy="106.27" r="3" fill="#1f77b4"/>
<circle cx="853.80" cy="106.33" r="3" fill="#1f77b4"/>
<circle cx="864.68" cy="107.03" r="3" fill="#1f77b4"/>
<circle cx="875.57" cy="84.47" r="3" fill="#1f77b4"/>
<circle cx="886.46" cy="108.00" r="3" fill="#1f77b4"/>
<circle cx="897.34" cy="88.21" r="3" fill="#1f77b4"/>
<circle cx="908.23" cy="108.18" r="3" fill="#1f77b4"/>
<circle cx="919.11" cy="106.47" r="3" fill="#1f77b4"/>
<circle cx="930.00" cy="79.82" r="3" fill="#1f77b4"/>
<polyline fill="none" stroke="#1f77b4" stroke-width="2" points="70.00,82.35 80.89,54.09 91.77,117.96 102.66,87.70 113.54,119.34 124.43,103.08 135.32,108.01 146.20,98.76 157.09,96.49 167.97,69.06 178.86,62.93 189.75,70.12 200.63,82.71 211.52,91.32 222.41,115.45 233.29,88.15 244.18,87.54 255.06,80.56 265.95,83.57 276.84,75.04 287.72,63.41 298.61,64.42 309.49,63.10 320.38,62.55 331.27,63.93 342.15,64.26 353.04,49.78 363.92,49.48 374.81,50.30 385.70,55.69 396.58,56.53 407.47,61.16 418.35,66.29 429.24,61.80 440.13,61.66 451.01,60.78 461.90,67.79 472.78,54.84 483.67,50.02 494.56,42.21 505.44,43.54 516.33,45.07 527.22,45.10 538.10,44.62 548.99,42.36 559.87,41.46 570.76,44.25 581.65,40.31 592.53,45.72 603.42,40.22 614.30,45.20 625.19,40.20 636.08,40.00 646.96,40.14 657.85,40.38 668.73,40.23 679.62,40.36 690.51,43.73 701.39,40.56 712.28,46.94 723.16,42.98 734.05,41.01 744.94,43.39 755.82,70.21 766.71,68.30 777.59,75.30 788.48,70.37 799.37,80.17 810.25,83.10 821.14,82.96 832.03,82.12 842.91,106.27 853.80,106.33 864.68,107.03 875.57,84.47 886.46,108.00 897.34,88.21 908.23,108.18 919.11,106.47 930.00,79.82"/>
<text x="710" y="58" font-size="12" font-family="Arial" fill="#1f77b4">Pure DQN</text>
<circle cx="70.00" cy="341.78" r="3" fill="#ff7f0e"/>
<circle cx="80.89" cy="360.00" r="3" fill="#ff7f0e"/>
<circle cx="91.77" cy="352.91" r="3" fill="#ff7f0e"/>
<circle cx="102.66" cy="263.98" r="3" fill="#ff7f0e"/>
<circle cx="113.54" cy="147.21" r="3" fill="#ff7f0e"/>
<circle cx="124.43" cy="114.96" r="3" fill="#ff7f0e"/>
<circle cx="135.32" cy="113.88" r="3" fill="#ff7f0e"/>
<circle cx="146.20" cy="61.85" r="3" fill="#ff7f0e"/>
<circle cx="157.09" cy="96.77" r="3" fill="#ff7f0e"/>
<circle cx="167.97" cy="78.66" r="3" fill="#ff7f0e"/>
<circle cx="178.86" cy="83.37" r="3" fill="#ff7f0e"/>
<circle cx="189.75" cy="137.11" r="3" fill="#ff7f0e"/>
<circle cx="200.63" cy="91.60" r="3" fill="#ff7f0e"/>
<circle cx="211.52" cy="79.38" r="3" fill="#ff7f0e"/>
<circle cx="222.41" cy="157.10" r="3" fill="#ff7f0e"/>
<circle cx="233.29" cy="107.27" r="3" fill="#ff7f0e"/>
<circle cx="244.18" cy="45.69" r="3" fill="#ff7f0e"/>
<circle cx="255.06" cy="61.57" r="3" fill="#ff7f0e"/>
<circle cx="265.95" cy="45.25" r="3" fill="#ff7f0e"/>
<circle cx="276.84" cy="43.77" r="3" fill="#ff7f0e"/>
<circle cx="287.72" cy="43.49" r="3" fill="#ff7f0e"/>
<circle cx="298.61" cy="42.88" r="3" fill="#ff7f0e"/>
<circle cx="309.49" cy="42.49" r="3" fill="#ff7f0e"/>
<circle cx="320.38" cy="42.48" r="3" fill="#ff7f0e"/>
<circle cx="331.27" cy="42.06" r="3" fill="#ff7f0e"/>
<circle cx="342.15" cy="42.01" r="3" fill="#ff7f0e"/>
<circle cx="353.04" cy="43.26" r="3" fill="#ff7f0e"/>
<circle cx="363.92" cy="42.50" r="3" fill="#ff7f0e"/>
<circle cx="374.81" cy="42.19" r="3" fill="#ff7f0e"/>
<circle cx="385.70" cy="42.03" r="3" fill="#ff7f0e"/>
<circle cx="396.58" cy="41.68" r="3" fill="#ff7f0e"/>
<circle cx="407.47" cy="42.78" r="3" fill="#ff7f0e"/>
<circle cx="418.35" cy="42.88" r="3" fill="#ff7f0e"/>
<circle cx="429.24" cy="41.88" r="3" fill="#ff7f0e"/>
<circle cx="440.13" cy="40.95" r="3" fill="#ff7f0e"/>
<circle cx="451.01" cy="43.85" r="3" fill="#ff7f0e"/>
<circle cx="461.90" cy="41.61" r="3" fill="#ff7f0e"/>
<circle cx="472.78" cy="41.37" r="3" fill="#ff7f0e"/>
<circle cx="483.67" cy="40.97" r="3" fill="#ff7f0e"/>
<circle cx="494.56" cy="40.55" r="3" fill="#ff7f0e"/>
<circle cx="505.44" cy="41.32" r="3" fill="#ff7f0e"/>
<circle cx="516.33" cy="40.90" r="3" fill="#ff7f0e"/>
<circle cx="527.22" cy="40.80" r="3" fill="#ff7f0e"/>
<circle cx="538.10" cy="40.92" r="3" fill="#ff7f0e"/>
<circle cx="548.99" cy="40.81" r="3" fill="#ff7f0e"/>
<circle cx="559.87" cy="40.95" r="3" fill="#ff7f0e"/>
<circle cx="570.76" cy="40.83" r="3" fill="#ff7f0e"/>
<circle cx="581.65" cy="40.61" r="3" fill="#ff7f0e"/>
<circle cx="592.53" cy="40.71" r="3" fill="#ff7f0e"/>
<circle cx="603.42" cy="40.11" r="3" fill="#ff7f0e"/>
<circle cx="614.30" cy="40.59" r="3" fill="#ff7f0e"/>
<circle cx="625.19" cy="40.63" r="3" fill="#ff7f0e"/>
<circle cx="636.08" cy="40.72" r="3" fill="#ff7f0e"/>
<circle cx="646.96" cy="40.73" r="3" fill="#ff7f0e"/>
<circle cx="657.85" cy="40.84" r="3" fill="#ff7f0e"/>
<circle cx="668.73" cy="40.85" r="3" fill="#ff7f0e"/>
<circle cx="679.62" cy="40.02" r="3" fill="#ff7f0e"/>
<circle cx="690.51" cy="40.80" r="3" fill="#ff7f0e"/>
<circle cx="701.39" cy="41.03" r="3" fill="#ff7f0e"/>
<circle cx="712.28" cy="40.73" r="3" fill="#ff7f0e"/>
<circle cx="723.16" cy="40.63" r="3" fill="#ff7f0e"/>
<circle cx="734.05" cy="40.39" r="3" fill="#ff7f0e"/>
<circle cx="744.94" cy="40.53" r="3" fill="#ff7f0e"/>
<circle cx="755.82" cy="41.06" r="3" fill="#ff7f0e"/>
<circle cx="766.71" cy="41.47" r="3" fill="#ff7f0e"/>
<circle cx="777.59" cy="41.26" r="3" fill="#ff7f0e"/>
<circle cx="788.48" cy="40.95" r="3" fill="#ff7f0e"/>
<circle cx="799.37" cy="42.49" r="3" fill="#ff7f0e"/>
<circle cx="810.25" cy="40.53" r="3" fill="#ff7f0e"/>
<circle cx="821.14" cy="41.46" r="3" fill="#ff7f0e"/>
<circle cx="832.03" cy="41.50" r="3" fill="#ff7f0e"/>
<circle cx="842.91" cy="41.78" r="3" fill="#ff7f0e"/>
<circle cx="853.80" cy="41.79" r="3" fill="#ff7f0e"/>
<circle cx="864.68" cy="41.41" r="3" fill="#ff7f0e"/>
<circle cx="875.57" cy="42.31" r="3" fill="#ff7f0e"/>
<circle cx="886.46" cy="42.43" r="3" fill="#ff7f0e"/>
<circle cx="897.34" cy="42.78" r="3" fill="#ff7f0e"/>
<circle cx="908.23" cy="42.29" r="3" fill="#ff7f0e"/>
<circle cx="919.11" cy="42.48" r="3" fill="#ff7f0e"/>
<circle cx="930.00" cy="41.41" r="3" fill="#ff7f0e"/>
<polyline fill="none" stroke="#ff7f0e" stroke-width="2" points="70.00,341.78 80.89,360.00 91.77,352.91 102.66,263.98 113.54,147.21 124.43,114.96 135.32,113.88 146.20,61.85 157.09,96.77 167.97,78.66 178.86,83.37 189.75,137.11 200.63,91.60 211.52,79.38 222.41,157.10 233.29,107.27 244.18,45.69 255.06,61.57 265.95,45.25 276.84,43.77 287.72,43.49 298.61,42.88 309.49,42.49 320.38,42.48 331.27,42.06 342.15,42.01 353.04,43.26 363.92,42.50 374.81,42.19 385.70,42.03 396.58,41.68 407.47,42.78 418.35,42.88 429.24,41.88 440.13,40.95 451.01,43.85 461.90,41.61 472.78,41.37 483.67,40.97 494.56,40.55 505.44,41.32 516.33,40.90 527.22,40.80 538.10,40.92 548.99,40.81 559.87,40.95 570.76,40.83 581.65,40.61 592.53,40.71 603.42,40.11 614.30,40.59 625.19,40.63 636.08,40.72 646.96,40.73 657.85,40.84 668.73,40.85 679.62,40.02 690.51,40.80 701.39,41.03 712.28,40.73 723.16,40.63 734.05,40.39 744.94,40.53 755.82,41.06 766.71,41.47 777.59,41.26 788.48,40.95 799.37,42.49 810.25,40.53 821.14,41.46 832.03,41.50 842.91,41.78 853.80,41.79 864.68,41.41 875.57,42.31 886.46,42.43 897.34,42.78 908.23,42.29 919.11,42.48 930.00,41.41"/>
<text x="710" y="76" font-size="12" font-family="Arial" fill="#ff7f0e">RuleMode + DQN</text>
</svg>