<svg xmlns="http://www.w3.org/2000/svg" width="960" height="420">
<rect width="100%" height="100%" fill="white"/>
<text x="70" y="24" font-size="18" font-family="Arial">Total Reward Trend</text>
<line x1="70" y1="360" x2="930" y2="360" stroke="#333"/>
<line x1="70" y1="40" x2="70" y2="360" stroke="#333"/>
<line x1="70" y1="360.0" x2="930" y2="360.0" stroke="#ddd"/>
<text x="8" y="364.0" font-size="12" font-family="Arial">-3656329.00</text>
<line x1="70" y1="280.0" x2="930" y2="280.0" stroke="#ddd"/>
<text x="8" y="284.0" font-size="12" font-family="Arial">-2754387.44</text>
<line x1="70" y1="200.0" x2="930" y2="200.0" stroke="#ddd"/>
<text x="8" y="204.0" font-size="12" font-family="Arial">-1852445.87</text>
<line x1="70" y1="120.0" x2="930" y2="120.0" stroke="#ddd"/>
<text x="8" y="124.0" font-size="12" font-family="Arial">-950504.31</text>
<line x1="70" y1="40.0" x2="930" y2="40.0" stroke="#ddd"/>
<text x="8" y="44.0" font-size="12" font-family="Arial">-48562.75</text>
<circle cx="70.00" cy="153.53" r="3" fill="#1f77b4"/>
<circle cx="80.89" cy="150.10" r="3" fill="#1f77b4"/>
<circle cx="91.77" cy="136.85" r="3" fill="#1f77b4"/>
<circle cx="102.66" cy="109.34" r="3" fill="#1f77b4"/>
<circle cx="113.54" cy="94.91" r="3" fill="#1f77b4"/>
<circle cx="124.43" cy="127.22" r="3" fill="#1f77b4"/>
<circle cx="135.32" cy="102.42" r="3" fill="#1f77b4"/>
<circle cx="146.20" cy="78.11" r="3" fill="#1f77b4"/>
<circle cx="157.09" cy="91.19" r="3" fill="#1f77b4"/>
<circle cx="167.97" cy="86.26" r="3" fill="#1f77b4"/>
<circle cx="178.86" cy="61.06" r="3" fill="#1f77b4"/>
<circle cx="189.75" cy="68.87" r="3" fill="#1f77b4"/>
<circle cx="200.63" cy="81.47" r="3" fill="#1f77b4"/>
<circle cx="211.52" cy="61.20" r="3" fill="#1f77b4"/>
<circle cx="222.41" cy="59.72" r="3" fill="#1f77b4"/>
<circle cx="233.29" cy="54.62" r="3" fill="#1f77b4"/>
<circle cx="244.18" cy="52.64" r="3" fill="#1f77b4"/>
<circle cx="255.06" cy="58.34" r="3" fill="#1f77b4"/>
<circle cx="265.95" cy="69.73" r="3" fill="#1f77b4"/>
<circle cx="276.84" cy="83.87" r="3" fill="#1f77b4"/>
<circle cx="287.72" cy="81.65" r="3" fill="#1f77b4"/>
<circle cx="298.61" cy="80.38" r="3" fill="#1f77b4"/>
<circle cx="309.49" cy="61.59" r="3" fill="#1f77b4"/>
<circle cx="320.38" cy="79.91" r="3" fill="#1f77b4"/>
<circle cx="331.27" cy="86.20" r="3" fill="#1f77b4"/>
<circle cx="342.15" cy="83.74" r="3" fill="#1f77b4"/>
<circle cx="353.04" cy="63.74" r="3" fill="#1f77b4"/>
<circle cx="363.92" cy="50.14" r="3" fill="#1f77b4"/>
<circle cx="374.81" cy="41.71" r="3" fill="#1f77b4"/>
<circle cx="385.70" cy="41.28" r="3" fill="#1f77b4"/>
<circle cx="396.58" cy="41.18" r="3" fill="#1f77b4"/>
<circle cx="407.47" cy="40.81" r="3" fill="#1f77b4"/>
<circle cx="418.35" cy="41.01" r="3" fill="#1f77b4"/>
<circle cx="429.24" cy="40.69" r="3" fill="#1f77b4"/>
<circle cx="440.13" cy="40.72" r="3" fill="#1f77b4"/>
<circle cx="451.01" cy="40.47" r="3" fill="#1f77b4"/>
<circle cx="461.90" cy="40.70" r="3" fill="#1f77b4"/>
<circle cx="472.78" cy="40.88" r="3" fill="#1f77b4"/>
<circle cx="483.67" cy="40.63" r="3" fill="#1f77b4"/>
<circle cx="494.56" cy="40.84" r="3" fill="#1f77b4"/>
<circle cx="505.44" cy="40.70" r="3" fill="#1f77b4"/>
<circle cx="516.33" cy="40.72" r="3" fill="#1f77b4"/>
<circle cx="527.22" cy="40.91" r="3" fill="#1f77b4"/>
<circle cx="538.10" cy="41.09" r="3" fill="#1f77b4"/>
<circle cx="548.99" cy="40.83" r="3" fill="#1f77b4"/>
<circle cx="559.87" cy="40.82" r="3" fill="#1f77b4"/>
<circle cx="570.76" cy="40.60" r="3" fill="#1f77b4"/>
<circle cx="581.65" cy="40.74" r="3" fill="#1f77b4"/>
<circle cx="592.53" cy="41.31" r="3" fill="#1f77b4"/>
<circle cx="603.42" cy="41.01" r="3" fill="#1f77b4"/>
<circle cx="614.30" cy="40.57" r="3" fill="#1f77b4"/>
<circle cx="625.19" cy="40.56" r="3" fill="#1f77b4"/>
<circle cx="636.08" cy="40.40" r="3" fill="#1f77b4"/>
<circle cx="646.96" cy="40.50" r="3" fill="#1f77b4"/>
<circle cx="657.85" cy="40.42" r="3" fill="#1f77b4"/>
<circle cx="668.73" cy="40.33" r="3" fill="#1f77b4"/>
<circle cx="679.62" cy="40.44" r="3" fill="#1f77b4"/>
<circle cx="690.51" cy="40.39" r="3" fill="#1f77b4"/>
<circle cx="701.39" cy="40.65" r="3" fill="#1f77b4"/>
<circle cx="712.28" cy="40.45" r="3" fill="#1f77b4"/>
<circle cx="723.16" cy="40.36" r="3" fill="#1f77b4"/>
<circle cx="734.05" cy="40.30" r="3" fill="#1f77b4"/>
<circle cx="744.94" cy="40.21" r="3" fill="#1f77b4"/>
<circle cx="755.82" cy="40.15" r="3" fill="#1f77b4"/>
<circle cx="766.71" cy="40.01" r="3" fill="#1f77b4"/>
<circle cx="777.59" cy="40.04" r="3" fill="#1f77b4"/>
<circle cx="788.48" cy="40.00" r="3" fill="#1f77b4"/>
<circle cx="799.37" cy="40.82" r="3" fill="#1f77b4"/>
<circle cx="810.25" cy="40.86" r="3" fill="#1f77b4"/>
<circle cx="821.14" cy="41.00" r="3" fill="#1f77b4"/>
<circle cx="832.03" cy="42.03" r="3" fill="#1f77b4"/>
<circle cx="842.91" cy="40.85" r="3" fill="#1f77b4"/>
<circle cx="853.80" cy="100.05" r="3" fill="#1f77b4"/>
<circle cx="864.68" cy="70.83" r="3" fill="#1f77b4"/>
<circle cx="875.57" cy="72.55" r="3" fill="#1f77b4"/>
<circle cx="886.46" cy="66.79" r="3" fill="#1f77b4"/>
<circle cx="897.34" cy="89.22" r="3" fill="#1f77b4"/>
<circle cx="908.23" cy="69.03" r="3" fill="#1f77b4"/>
<circle cx="919.11" cy="101.80" r="3" fill="#1f77b4"/>
<circle cx="930.00" cy="70.28" r="3" fill="#1f77b4"/>
<polyline fill="none" stroke="#1f77b4" stroke-width="2" points="70.00,153.53 80.89,150.10 91.77,136.85 102.66,109.34 113.54,94.91 124.43,127.22 135.32,102.42 146.20,78.11 157.09,91.19 167.97,86.26 178.86,61.06 189.75,68.87 200.63,81.47 211.52,61.20 222.41,59.72 233.29,54.62 244.18,52.64 255.06,58.34 265.95,69.73 276.84,83.87 287.72,81.65 298.61,80.38 309.49,61.59 320.38,79.91 331.27,86.20 342.15,83.74 353.04,63.74 363.92,50.14 374.81,41.71 385.70,41.28 396.58,41.18 407.47,40.81 418.35,41.01 429.24,40.69 440.13,40.72 451.01,40.47 461.90,40.70 472.78,40.88 483.67,40.63 494.56,40.84 505.44,40.70 516.33,40.72 527.22,40.91 538.10,41.09 548.99,40.83 559.87,40.82 570.76,40.60 581.65,40.74 592.53,41.31 603.42,41.01 614.30,40.57 625.19,40.56 636.08,40.40 646.96,40.50 657.85,40.42 668.73,40.33 679.62,40.44 690.51,40.39 701.39,40.65 712.28,40.45 723.16,40.36 734.05,40.30 744.94,40.21 755.82,40.15 766.71,40.01 777.59,40.04 788.48,40.00 799.37,40.82 810.25,40.86 821.14,41.00 832.03,42.03 842.91,40.85 853.80,100.05 864.68,70.83 875.57,72.55 886.46,66.79 897.34,89.22 908.23,69.03 919.11,101.80 930.00,70.28"/>
<text x="710" y="58" font-size="12" font-family="Arial" fill="#1f77b4">Pure DQN</text>
<circle cx="70.00" cy="350.89" r="3" fill="#ff7f0e"/>
<circle cx="80.89" cy="360.00" r="3" fill="#ff7f0e"/>
<circle cx="91.77" cy="288.85" r="3" fill="#ff7f0e"/>
<circle cx="102.66" cy="235.89" r="3" fill="#ff7f0e"/>
<circle cx="113.54" cy="184.98" r="3" fill="#ff7f0e"/>
<circle cx="124.43" cy="123.61" r="3" fill="#ff7f0e"/>
<circle cx="135.32" cy="223.07" r="3" fill="#ff7f0e"/>
<circle cx="146.20" cy="182.10" r="3" fill="#ff7f0e"/>
<circle cx="157.09" cy="206.78" r="3" fill="#ff7f0e"/>
<circle cx="167.97" cy="121.16" r="3" fill="#ff7f0e"/>
<circle cx="178.86" cy="85.44" r="3" fill="#ff7f0e"/>
<circle cx="189.75" cy="82.92" r="3" fill="#ff7f0e"/>
<circle cx="200.63" cy="69.76" r="3" fill="#ff7f0e"/>
<circle cx="211.52" cy="130.22" r="3" fill="#ff7f0e"/>
<circle cx="222.41" cy="92.14" r="3" fill="#ff7f0e"/>
<circle cx="233.29" cy="76.71" r="3" fill="#ff7f0e"/>
<circle cx="244.18" cy="61.08" r="3" fill="#ff7f0e"/>
<circle cx="255.06" cy="57.05" r="3" fill="#ff7f0e"/>
<circle cx="265.95" cy="87.77" r="3" fill="#ff7f0e"/>
<circle cx="276.84" cy="81.17" r="3" fill="#ff7f0e"/>
<circle cx="287.72" cy="47.52" r="3" fill="#ff7f0e"/>
<circle cx="298.61" cy="43.22" r="3" fill="#ff7f0e"/>
<circle cx="309.49" cy="44.53" r="3" fill="#ff7f0e"/>
<circle cx="320.38" cy="44.11" r="3" fill="#ff7f0e"/>
<circle cx="331.27" cy="43.63" r="3" fill="#ff7f0e"/>
<circle cx="342.15" cy="43.72" r="3" fill="#ff7f0e"/>
<circle cx="353.04" cy="42.86" r="3" fill="#ff7f0e"/>
<circle cx="363.92" cy="43.19" r="3" fill="#ff7f0e"/>
<circle cx="374.81" cy="43.14" r="3" fill="#ff7f0e"/>
<circle cx="385.70" cy="42.44" r="3" fill="#ff7f0e"/>
<circle cx="396.58" cy="43.46" r="3" fill="#ff7f0e"/>
<circle cx="407.47" cy="44.11" r="3" fill="#ff7f0e"/>
<circle cx="418.35" cy="43.71" r="3" fill="#ff7f0e"/>
<circle cx="429.24" cy="43.50" r="3" fill="#ff7f0e"/>
<circle cx="440.13" cy="42.48" r="3" fill="#ff7f0e"/>
<circle cx="451.01" cy="42.71" r="3" fill="#ff7f0e"/>
<circle cx="461.90" cy="43.90" r="3" fill="#ff7f0e"/>
<circle cx="472.78" cy="43.00" r="3" fill="#ff7f0e"/>
<circle cx="483.67" cy="43.12" r="3" fill="#ff7f0e"/>
<circle cx="494.56" cy="42.35" r="3" fill="#ff7f0e"/>
<circle cx="505.44" cy="42.64" r="3" fill="#ff7f0e"/>
<circle cx="516.33" cy="43.37" r="3" fill="#ff7f0e"/>
<circle cx="527.22" cy="42.39" r="3" fill="#ff7f0e"/>
<circle cx="538.10" cy="42.13" r="3" fill="#ff7f0e"/>
<circle cx="548.99" cy="41.32" r="3" fill="#ff7f0e"/>
<circle cx="559.87" cy="42.25" r="3" fill="#ff7f0e"/>
<circle cx="570.76" cy="42.50" r="3" fill="#ff7f0e"/>
<circle cx="581.65" cy="41.95" r="3" fill="#ff7f0e"/>
<circle cx="592.53" cy="42.08" r="3" fill="#ff7f0e"/>
<circle cx="603.42" cy="41.87" r="3" fill="#ff7f0e"/>
<circle cx="614.30" cy="42.83" r="3" fill="#ff7f0e"/>
<circle cx="625.19" cy="41.44" r="3" fill="#ff7f0e"/>
<circle cx="636.08" cy="41.92" r="3" fill="#ff7f0e"/>
<circle cx="646.96" cy="41.92" r="3" fill="#ff7f0e"/>
<circle cx="657.85" cy="41.12" r="3" fill="#ff7f0e"/>
<circle cx="668.73" cy="41.65" r="3" fill="#ff7f0e"/>
<circle cx="679.62" cy="41.18" r="3" fill="#ff7f0e"/>
<circle cx="690.51" cy="41.79" r="3" fill="#ff7f0e"/>
<circle cx="701.39" cy="41.01" r="3" fill="#ff7f0e"/>
<circle cx="712.28" cy="41.53" r="3" fill="#ff7f0e"/>
<circle cx="723.16" cy="40.93" r="3" fill="#ff7f0e"/>
<circle cx="734.05" cy="41.30" r="3" fill="#ff7f0e"/>
<circle cx="744.94" cy="41.26" r="3" fill="#ff7f0e"/>
<circle cx="755.82" cy="41.74" r="3" fill="#ff7f0e"/>
<circle cx="766.71" cy="40.94" r="3" fill="#ff7f0e"/>
<circle cx="777.59" cy="41.48" r="3" fill="#ff7f0e"/>
<circle cx="788.48" cy="41.51" r="3" fill="#ff7f0e"/>
<circle cx="799.37" cy="41.02" r="3" fill="#ff7f0e"/>
<circle cx="810.25" cy="40.88" r="3" fill="#ff7f0e"/>
<circle cx="821.14" cy="41.43" r="3" fill="#ff7f0e"/>
<circle cx="832.03" cy="41.71" r="3" fill="#ff7f0e"/>
<circle cx="842.91" cy="41.55" r="3" fill="#ff7f0e"/>
<circle cx="853.80" cy="41.81" r="3" fill="#ff7f0e"/>
<circle cx="864.68" cy="41.83" r="3" fill="#ff7f0e"/>
<circle cx="875.57" cy="41.82" r="3" fill="#ff7f0e"/>
<circle cx="886.46" cy="42.17" r="3" fill="#ff7f0e"/>
<circle cx="897.34" cy="41.44" r="3" fill="#ff7f0e"/>
<circle cx="908.23" cy="41.35" r="3" fill="#ff7f0e"/>
<circle cx="919.11" cy="41.84" r="3" fill="#ff7f0e"/>
<circle cx="930.00" cy="41.43" r="3" fill="#ff7f0e"/>
<polyline fill="none" stroke="#ff7f0e" stroke-width="2" points="70.00,350.89 80.89,360.00 91.77,288.85 102.66,235.89 113.54,184.98 124.43,123.61 135.32,223.07 146.20,182.10 157.09,206.78 167.97,121.16 178.86,85.44 189.75,82.92 200.63,69.76 211.52,130.22 222.41,92.14 233.29,76.71 244.18,61.08 255.06,57.05 265.95,87.77 276.84,81.17 287.72,47.52 298.61,43.22 309.49,44.53 320.38,44.11 331.27,43.63 342.15,43.72 353.04,42.86 363.92,43.19 374.81,43.14 385.70,42.44 396.58,43.46 407.47,44.11 418.35,43.71 429.24,43.50 440.13,42.48 451.01,42.71 461.90,43.90 472.78,43.00 483.67,43.12 494.56,42.35 505.44,42.64 516.33,43.37 527.22,42.39 538.10,42.13 548.99,41.32 559.87,42.25 570.76,42.50 581.65,41.95 592.53,42.08 603.42,41.87 614.30,42.83 625.19,41.44 636.08,41.92 646.96,41.92 657.85,41.12 668.73,41.65 679.62,41.18 690.51,41.79 701.39,41.01 712.28,41.53 723.16,40.93 734.05,41.30 744.94,41.26 755.82,41.74 766.71,40.94 777.59,41.48 788.48,41.51 799.37,41.02 810.25,40.88 821.14,41.43 832.03,41.71 842.91,41.55 853.80,41.81 864.68,41.83 875.57,41.82 886.46,42.17 897.34,41.44 908.23,41.35 919.11,41.84 930.00,41.43"/>
<text x="710" y="76" font-size="12" font-family="Arial" fill="#ff7f0e">RuleMode + DQN</text>
</svg>