<svg xmlns="http://www.w3.org/2000/svg" width="960" height="420">
<rect width="100%" height="100%" fill="white"/>
<text x="70" y="24" font-size="18" font-family="Arial">Total Reward Trend</text>
<line x1="70" y1="360" x2="930" y2="360" stroke="#333"/>
<line x1="70" y1="40" x2="70" y2="360" stroke="#333"/>
<line x1="70" y1="360.0" x2="930" y2="360.0" stroke="#ddd"/>
<text x="8" y="364.0" font-size="12" font-family="Arial">-4357538.35</text>
<line x1="70" y1="280.0" x2="930" y2="280.0" stroke="#ddd"/>
<text x="8" y="284.0" font-size="12" font-family="Arial">-3293671.01</text>
<line x1="70" y1="200.0" x2="930" y2="200.0" stroke="#ddd"/>
<text x="8" y="204.0" font-size="12" font-family="Arial">-2229803.67</text>
<line x1="70" y1="120.0" x2="930" y2="120.0" stroke="#ddd"/>
<text x="8" y="124.0" font-size="12" font-family="Arial">-1165936.34</text>
<line x1="70" y1="40.0" x2="930" y2="40.0" stroke="#ddd"/>
<text x="8" y="44.0" font-size="12" font-family="Arial">-102069.00</text>
<circle cx="70.00" cy="145.37" r="3" fill="#1f77b4"/>
<circle cx="80.89" cy="140.56" r="3" fill="#1f77b4"/>
<circle cx="91.77" cy="109.33" r="3" fill="#1f77b4"/>
<circle cx="102.66" cy="71.99" r="3" fill="#1f77b4"/>
<circle cx="113.54" cy="74.55" r="3" fill="#1f77b4"/>
<circle cx="124.43" cy="56.52" r="3" fill="#1f77b4"/>
<circle cx="135.32" cy="69.48" r="3" fill="#1f77b4"/>
<circle cx="146.20" cy="66.78" r="3" fill="#1f77b4"/>
<circle cx="157.09" cy="79.37" r="3" fill="#1f77b4"/>
<circle cx="167.97" cy="68.69" r="3" fill="#1f77b4"/>
<circle cx="178.86" cy="64.96" r="3" fill="#1f77b4"/>
<circle cx="189.75" cy="74.21" r="3" fill="#1f77b4"/>
<circle cx="200.63" cy="49.55" r="3" fill="#1f77b4"/>
<circle cx="211.52" cy="46.56" r="3" fill="#1f77b4"/>
<circle cx="222.41" cy="45.98" r="3" fill="#1f77b4"/>
<circle cx="233.29" cy="47.98" r="3" fill="#1f77b4"/>
<circle cx="244.18" cy="47.98" r="3" fill="#1f77b4"/>
<circle cx="255.06" cy="43.39" r="3" fill="#1f77b4"/>
<circle cx="265.95" cy="47.90" r="3" fill="#1f77b4"/>
<circle cx="276.84" cy="46.21" r="3" fill="#1f77b4"/>
<circle cx="287.72" cy="46.17" r="3" fill="#1f77b4"/>
<circle cx="298.61" cy="42.61" r="3" fill="#1f77b4"/>
<circle cx="309.49" cy="42.14" r="3" fill="#1f77b4"/>
<circle cx="320.38" cy="41.33" r="3" fill="#1f77b4"/>
<circle cx="331.27" cy="41.71" r="3" fill="#1f77b4"/>
<circle cx="342.15" cy="42.04" r="3" fill="#1f77b4"/>
<circle cx="353.04" cy="43.04" r="3" fill="#1f77b4"/>
<circle cx="363.92" cy="51.90" r="3" fill="#1f77b4"/>
<circle cx="374.81" cy="43.51" r="3" fill="#1f77b4"/>
<circle cx="385.70" cy="42.93" r="3" fill="#1f77b4"/>
<circle cx="396.58" cy="42.39" r="3" fill="#1f77b4"/>
<circle cx="407.47" cy="44.69" r="3" fill="#1f77b4"/>
<circle cx="418.35" cy="44.74" r="3" fill="#1f77b4"/>
<circle cx="429.24" cy="49.91" r="3" fill="#1f77b4"/>
<circle cx="440.13" cy="58.72" r="3" fill="#1f77b4"/>
<circle cx="451.01" cy="53.99" r="3" fill="#1f77b4"/>
<circle cx="461.90" cy="55.39" r="3" fill="#1f77b4"/>
<circle cx="472.78" cy="65.58" r="3" fill="#1f77b4"/>
<circle cx="483.67" cy="64.50" r="3" fill="#1f77b4"/>
<circle cx="494.56" cy="68.67" r="3" fill="#1f77b4"/>
<circle cx="505.44" cy="67.91" r="3" fill="#1f77b4"/>
<circle cx="516.33" cy="75.54" r="3" fill="#1f77b4"/>
<circle cx="527.22" cy="78.99" r="3" fill="#1f77b4"/>
<circle cx="538.10" cy="72.19" r="3" fill="#1f77b4"/>
<circle cx="548.99" cy="77.14" r="3" fill="#1f77b4"/>
<circle cx="559.87" cy="57.75" r="3" fill="#1f77b4"/>
<circle cx="570.76" cy="74.33" r="3" fill="#1f77b4"/>
<circle cx="581.65" cy="71.68" r="3" fill="#1f77b4"/>
<circle cx="592.53" cy="54.26" r="3" fill="#1f77b4"/>
<circle cx="603.42" cy="54.91" r="3" fill="#1f77b4"/>
<circle cx="614.30" cy="50.35" r="3" fill="#1f77b4"/>
<circle cx="625.19" cy="43.12" r="3" fill="#1f77b4"/>
<circle cx="636.08" cy="44.42" r="3" fill="#1f77b4"/>
<circle cx="646.96" cy="49.76" r="3" fill="#1f77b4"/>
<circle cx="657.85" cy="42.88" r="3" fill="#1f77b4"/>
<circle cx="668.73" cy="49.28" r="3" fill="#1f77b4"/>
<circle cx="679.62" cy="52.35" r="3" fill="#1f77b4"/>
<circle cx="690.51" cy="62.95" r="3" fill="#1f77b4"/>
<circle cx="701.39" cy="73.96" r="3" fill="#1f77b4"/>
<circle cx="712.28" cy="64.60" r="3" fill="#1f77b4"/>
<circle cx="723.16" cy="78.68" r="3" fill="#1f77b4"/>
<circle cx="734.05" cy="62.51" r="3" fill="#1f77b4"/>
<circle cx="744.94" cy="64.50" r="3" fill="#1f77b4"/>
<circle cx="755.82" cy="63.42" r="3" fill="#1f77b4"/>
<circle cx="766.71" cy="53.79" r="3" fill="#1f77b4"/>
<circle cx="777.59" cy="47.71" r="3" fill="#1f77b4"/>
<circle cx="788.48" cy="46.88" r="3" fill="#1f77b4"/>
<circle cx="799.37" cy="44.03" r="3" fill="#1f77b4"/>
<circle cx="810.25" cy="47.35" r="3" fill="#1f77b4"/>
<circle cx="821.14" cy="56.24" r="3" fill="#1f77b4"/>
<circle cx="832.03" cy="55.06" r="3" fill="#1f77b4"/>
<circle cx="842.91" cy="43.52" r="3" fill="#1f77b4"/>
<circle cx="853.80" cy="54.79" r="3" fill="#1f77b4"/>
<circle cx="864.68" cy="52.01" r="3" fill="#1f77b4"/>
<circle cx="875.57" cy="41.86" r="3" fill="#1f77b4"/>
<circle cx="886.46" cy="51.02" r="3" fill="#1f77b4"/>
<circle cx="897.34" cy="43.79" r="3" fill="#1f77b4"/>
<circle cx="908.23" cy="42.47" r="3" fill="#1f77b4"/>
<circle cx="919.11" cy="43.07" r="3" fill="#1f77b4"/>
<circle cx="930.00" cy="40.00" r="3" fill="#1f77b4"/>
<polyline fill="none" stroke="#1f77b4" stroke-width="2" points="70.00,145.37 80.89,140.56 91.77,109.33 102.66,71.99 113.54,74.55 124.43,56.52 135.32,69.48 146.20,66.78 157.09,79.37 167.97,68.69 178.86,64.96 189.75,74.21 200.63,49.55 211.52,46.56 222.41,45.98 233.29,47.98 244.18,47.98 255.06,43.39 265.95,47.90 276.84,46.21 287.72,46.17 298.61,42.61 309.49,42.14 320.38,41.33 331.27,41.71 342.15,42.04 353.04,43.04 363.92,51.90 374.81,43.51 385.70,42.93 396.58,42.39 407.47,44.69 418.35,44.74 429.24,49.91 440.13,58.72 451.01,53.99 461.90,55.39 472.78,65.58 483.67,64.50 494.56,68.67 505.44,67.91 516.33,75.54 527.22,78.99 538.10,72.19 548.99,77.14 559.87,57.75 570.76,74.33 581.65,71.68 592.53,54.26 603.42,54.91 614.30,50.35 625.19,43.12 636.08,44.42 646.96,49.76 657.85,42.88 668.73,49.28 679.62,52.35 690.51,62.95 701.39,73.96 712.28,64.60 723.16,78.68 734.05,62.51 744.94,64.50 755.82,63.42 766.71,53.79 777.59,47.71 788.48,46.88 799.37,44.03 810.25,47.35 821.14,56.24 832.03,55.06 842.91,43.52 853.80,54.79 864.68,52.01 875.57,41.86 886.46,51.02 897.34,43.79 908.23,42.47 919.11,43.07 930.00,40.00"/>
<text x="710" y="58" font-size="12" font-family="Arial" fill="#1f77b4">Pure DQN</text>
<circle cx="70.00" cy="360.00" r="3" fill="#ff7f0e"/>
<circle cx="80.89" cy="267.59" r="3" fill="#ff7f0e"/>
<circle cx="91.77" cy="249.66" r="3" fill="#ff7f0e"/>
<circle cx="102.66" cy="273.81" r="3" fill="#ff7f0e"/>
<circle cx="113.54" cy="241.34" r="3" fill="#ff7f0e"/>
<circle cx="124.43" cy="120.95" r="3" fill="#ff7f0e"/>
<circle cx="135.32" cy="100.36" r="3" fill="#ff7f0e"/>
<circle cx="146.20" cy="92.12" r="3" fill="#ff7f0e"/>
<circle cx="157.09" cy="88.59" r="3" fill="#ff7f0e"/>
<circle cx="167.97" cy="109.38" r="3" fill="#ff7f0e"/>
<circle cx="178.86" cy="164.58" r="3" fill="#ff7f0e"/>
<circle cx="189.75" cy="155.49" r="3" fill="#ff7f0e"/>
<circle cx="200.63" cy="114.62" r="3" fill="#ff7f0e"/>
<circle cx="211.52" cy="122.64" r="3" fill="#ff7f0e"/>
<circle cx="222.41" cy="113.67" r="3" fill="#ff7f0e"/>
<circle cx="233.29" cy="94.89" r="3" fill="#ff7f0e"/>
<circle cx="244.18" cy="97.09" r="3" fill="#ff7f0e"/>
<circle cx="255.06" cy="90.31" r="3" fill="#ff7f0e"/>
<circle cx="265.95" cy="87.46" r="3" fill="#ff7f0e"/>
<circle cx="276.84" cy="86.03" r="3" fill="#ff7f0e"/>
<circle cx="287.72" cy="97.36" r="3" fill="#ff7f0e"/>
<circle cx="298.61" cy="115.15" r="3" fill="#ff7f0e"/>
<circle cx="309.49" cy="104.30" r="3" fill="#ff7f0e"/>
<circle cx="320.38" cy="94.73" r="3" fill="#ff7f0e"/>
<circle cx="331.27" cy="94.85" r="3" fill="#ff7f0e"/>
<circle cx="342.15" cy="91.90" r="3" fill="#ff7f0e"/>
<circle cx="353.04" cy="93.98" r="3" fill="#ff7f0e"/>
<circle cx="363.92" cy="100.76" r="3" fill="#ff7f0e"/>
<circle cx="374.81" cy="103.60" r="3" fill="#ff7f0e"/>
<circle cx="385.70" cy="103.22" r="3" fill="#ff7f0e"/>
<circle cx="396.58" cy="81.35" r="3" fill="#ff7f0e"/>
<circle cx="407.47" cy="80.31" r="3" fill="#ff7f0e"/>
<circle cx="418.35" cy="84.20" r="3" fill="#ff7f0e"/>
<circle cx="429.24" cy="75.04" r="3" fill="#ff7f0e"/>
<circle cx="440.13" cy="133.12" r="3" fill="#ff7f0e"/>
<circle cx="451.01" cy="107.31" r="3" fill="#ff7f0e"/>
<circle cx="461.90" cy="102.00" r="3" fill="#ff7f0e"/>
<circle cx="472.78" cy="96.24" r="3" fill="#ff7f0e"/>
<circle cx="483.67" cy="90.44" r="3" fill="#ff7f0e"/>
<circle cx="494.56" cy="94.99" r="3" fill="#ff7f0e"/>
<circle cx="505.44" cy="103.62" r="3" fill="#ff7f0e"/>
<circle cx="516.33" cy="94.57" r="3" fill="#ff7f0e"/>
<circle cx="527.22" cy="71.05" r="3" fill="#ff7f0e"/>
<circle cx="538.10" cy="82.58" r="3" fill="#ff7f0e"/>
<circle cx="548.99" cy="61.32" r="3" fill="#ff7f0e"/>
<circle cx="559.87" cy="99.87" r="3" fill="#ff7f0e"/>
<circle cx="570.76" cy="69.81" r="3" fill="#ff7f0e"/>
<circle cx="581.65" cy="85.01" r="3" fill="#ff7f0e"/>
<circle cx="592.53" cy="77.92" r="3" fill="#ff7f0e"/>
<circle cx="603.42" cy="109.31" r="3" fill="#ff7f0e"/>
<circle cx="614.30" cy="119.88" r="3" fill="#ff7f0e"/>
<circle cx="625.19" cy="106.66" r="3" fill="#ff7f0e"/>
<circle cx="636.08" cy="109.36" r="3" fill="#ff7f0e"/>
<circle cx="646.96" cy="73.59" r="3" fill="#ff7f0e"/>
<circle cx="657.85" cy="75.50" r="3" fill="#ff7f0e"/>
<circle cx="668.73" cy="66.26" r="3" fill="#ff7f0e"/>
<circle cx="679.62" cy="60.79" r="3" fill="#ff7f0e"/>
<circle cx="690.51" cy="58.52" r="3" fill="#ff7f0e"/>
<circle cx="701.39" cy="58.49" r="3" fill="#ff7f0e"/>
<circle cx="712.28" cy="60.08" r="3" fill="#ff7f0e"/>
<circle cx="723.16" cy="59.95" r="3" fill="#ff7f0e"/>
<circle cx="734.05" cy="61.38" r="3" fill="#ff7f0e"/>
<circle cx="744.94" cy="59.49" r="3" fill="#ff7f0e"/>
<circle cx="755.82" cy="60.17" r="3" fill="#ff7f0e"/>
<circle cx="766.71" cy="59.02" r="3" fill="#ff7f0e"/>
<circle cx="777.59" cy="61.55" r="3" fill="#ff7f0e"/>
<circle cx="788.48" cy="67.14" r="3" fill="#ff7f0e"/>
<circle cx="799.37" cy="65.29" r="3" fill="#ff7f0e"/>
<circle cx="810.25" cy="65.24" r="3" fill="#ff7f0e"/>
<circle cx="821.14" cy="69.29" r="3" fill="#ff7f0e"/>
<circle cx="832.03" cy="67.00" r="3" fill="#ff7f0e"/>
<circle cx="842.91" cy="59.39" r="3" fill="#ff7f0e"/>
<circle cx="853.80" cy="60.52" r="3" fill="#ff7f0e"/>
<circle cx="864.68" cy="61.09" r="3" fill="#ff7f0e"/>
<circle cx="875.57" cy="67.03" r="3" fill="#ff7f0e"/>
<circle cx="886.46" cy="70.84" r="3" fill="#ff7f0e"/>
<circle cx="897.34" cy="63.36" r="3" fill="#ff7f0e"/>
<circle cx="908.23" cy="65.94" r="3" fill="#ff7f0e"/>
<circle cx="919.11" cy="68.04" r="3" fill="#ff7f0e"/>
<circle cx="930.00" cy="63.06" r="3" fill="#ff7f0e"/>
<polyline fill="none" stroke="#ff7f0e" stroke-width="2" points="70.00,360.00 80.89,267.59 91.77,249.66 102.66,273.81 113.54,241.34 124.43,120.95 135.32,100.36 146.20,92.12 157.09,88.59 167.97,109.38 178.86,164.58 189.75,155.49 200.63,114.62 211.52,122.64 222.41,113.67 233.29,94.89 244.18,97.09 255.06,90.31 265.95,87.46 276.84,86.03 287.72,97.36 298.61,115.15 309.49,104.30 320.38,94.73 331.27,94.85 342.15,91.90 353.04,93.98 363.92,100.76 374.81,103.60 385.70,103.22 396.58,81.35 407.47,80.31 418.35,84.20 429.24,75.04 440.13,133.12 451.01,107.31 461.90,102.00 472.78,96.24 483.67,90.44 494.56,94.99 505.44,103.62 516.33,94.57 527.22,71.05 538.10,82.58 548.99,61.32 559.87,99.87 570.76,69.81 581.65,85.01 592.53,77.92 603.42,109.31 614.30,119.88 625.19,106.66 636.08,109.36 646.96,73.59 657.85,75.50 668.73,66.26 679.62,60.79 690.51,58.52 701.39,58.49 712.28,60.08 723.16,59.95 734.05,61.38 744.94,59.49 755.82,60.17 766.71,59.02 777.59,61.55 788.48,67.14 799.37,65.29 810.25,65.24 821.14,69.29 832.03,67.00 842.91,59.39 853.80,60.52 864.68,61.09 875.57,67.03 886.46,70.84 897.34,63.36 908.23,65.94 919.11,68.04 930.00,63.06"/>
<text x="710" y="76" font-size="12" font-family="Arial" fill="#ff7f0e">LLMMode + DQN</text>
<circle cx="70.00" cy="305.39" r="3" fill="#2ca02c"/>
<circle cx="80.89" cy="267.82" r="3" fill="#2ca02c"/>
<circle cx="91.77" cy="301.33" r="3" fill="#2ca02c"/>
<circle cx="102.66" cy="277.12" r="3" fill="#2ca02c"/>
<circle cx="113.54" cy="223.88" r="3" fill="#2ca02c"/>
<circle cx="124.43" cy="183.84" r="3" fill="#2ca02c"/>
<circle cx="135.32" cy="211.13" r="3" fill="#2ca02c"/>
<circle cx="146.20" cy="221.72" r="3" fill="#2ca02c"/>
<circle cx="157.09" cy="179.98" r="3" fill="#2ca02c"/>
<circle cx="167.97" cy="211.18" r="3" fill="#2ca02c"/>
<circle cx="178.86" cy="88.90" r="3" fill="#2ca02c"/>
<circle cx="189.75" cy="64.20" r="3" fill="#2ca02c"/>
<circle cx="200.63" cy="97.16" r="3" fill="#2ca02c"/>
<circle cx="211.52" cy="73.32" r="3" fill="#2ca02c"/>
<circle cx="222.41" cy="65.34" r="3" fill="#2ca02c"/>
<circle cx="233.29" cy="64.22" r="3" fill="#2ca02c"/>
<circle cx="244.18" cy="68.71" r="3" fill="#2ca02c"/>
<circle cx="255.06" cy="62.43" r="3" fill="#2ca02c"/>
<circle cx="265.95" cy="63.39" r="3" fill="#2ca02c"/>
<circle cx="276.84" cy="65.82" r="3" fill="#2ca02c"/>
<circle cx="287.72" cy="64.48" r="3" fill="#2ca02c"/>
<circle cx="298.61" cy="64.87" r="3" fill="#2ca02c"/>
<circle cx="309.49" cy="62.97" r="3" fill="#2ca02c"/>
<circle cx="320.38" cy="66.35" r="3" fill="#2ca02c"/>
<circle cx="331.27" cy="69.60" r="3" fill="#2ca02c"/>
<circle cx="342.15" cy="62.63" r="3" fill="#2ca02c"/>
<circle cx="353.04" cy="60.09" r="3" fill="#2ca02c"/>
<circle cx="363.92" cy="60.22" r="3" fill="#2ca02c"/>
<circle cx="374.81" cy="61.67" r="3" fill="#2ca02c"/>
<circle cx="385.70" cy="61.67" r="3" fill="#2ca02c"/>
<circle cx="396.58" cy="62.78" r="3" fill="#2ca02c"/>
<circle cx="407.47" cy="59.62" r="3" fill="#2ca02c"/>
<circle cx="418.35" cy="59.74" r="3" fill="#2ca02c"/>
<circle cx="429.24" cy="59.34" r="3" fill="#2ca02c"/>
<circle cx="440.13" cy="59.18" r="3" fill="#2ca02c"/>
<circle cx="451.01" cy="61.21" r="3" fill="#2ca02c"/>
<circle cx="461.90" cy="62.16" r="3" fill="#2ca02c"/>
<circle cx="472.78" cy="58.85" r="3" fill="#2ca02c"/>
<circle cx="483.67" cy="59.60" r="3" fill="#2ca02c"/>
<circle cx="494.56" cy="61.18" r="3" fill="#2ca02c"/>
<circle cx="505.44" cy="61.50" r="3" fill="#2ca02c"/>
<circle cx="516.33" cy="59.16" r="3" fill="#2ca02c"/>
<circle cx="527.22" cy="62.69" r="3" fill="#2ca02c"/>
<circle cx="538.10" cy="60.05" r="3" fill="#2ca02c"/>
<circle cx="548.99" cy="63.94" r="3" fill="#2ca02c"/>
<circle cx="559.87" cy="61.63" r="3" fill="#2ca02c"/>
<circle cx="570.76" cy="69.68" r="3" fill="#2ca02c"/>
<circle cx="581.65" cy="65.72" r="3" fill="#2ca02c"/>
<circle cx="592.53" cy="62.52" r="3" fill="#2ca02c"/>
<circle cx="603.42" cy="61.53" r="3" fill="#2ca02c"/>
<circle cx="614.30" cy="60.41" r="3" fill="#2ca02c"/>
<circle cx="625.19" cy="61.69" r="3" fill="#2ca02c"/>
<circle cx="636.08" cy="62.82" r="3" fill="#2ca02c"/>
<circle cx="646.96" cy="65.93" r="3" fill="#2ca02c"/>
<circle cx="657.85" cy="70.41" r="3" fill="#2ca02c"/>
<circle cx="668.73" cy="118.86" r="3" fill="#2ca02c"/>
<circle cx="679.62" cy="132.19" r="3" fill="#2ca02c"/>
<circle cx="690.51" cy="91.98" r="3" fill="#2ca02c"/>
<circle cx="701.39" cy="157.86" r="3" fill="#2ca02c"/>
<circle cx="712.28" cy="130.50" r="3" fill="#2ca02c"/>
<circle cx="723.16" cy="144.80" r="3" fill="#2ca02c"/>
<circle cx="734.05" cy="110.41" r="3" fill="#2ca02c"/>
<circle cx="744.94" cy="127.23" r="3" fill="#2ca02c"/>
<circle cx="755.82" cy="64.01" r="3" fill="#2ca02c"/>
<circle cx="766.71" cy="64.40" r="3" fill="#2ca02c"/>
<circle cx="777.59" cy="69.77" r="3" fill="#2ca02c"/>
<circle cx="788.48" cy="62.83" r="3" fill="#2ca02c"/>
<circle cx="799.37" cy="55.62" r="3" fill="#2ca02c"/>
<circle cx="810.25" cy="58.74" r="3" fill="#2ca02c"/>
<circle cx="821.14" cy="59.40" r="3" fill="#2ca02c"/>
<circle cx="832.03" cy="55.20" r="3" fill="#2ca02c"/>
<circle cx="842.91" cy="55.48" r="3" fill="#2ca02c"/>
<circle cx="853.80" cy="56.50" r="3" fill="#2ca02c"/>
<circle cx="864.68" cy="58.60" r="3" fill="#2ca02c"/>
<circle cx="875.57" cy="60.33" r="3" fill="#2ca02c"/>
<circle cx="886.46" cy="73.24" r="3" fill="#2ca02c"/>
<circle cx="897.34" cy="65.11" r="3" fill="#2ca02c"/>
<circle cx="908.23" cy="61.42" r="3" fill="#2ca02c"/>
<circle cx="919.11" cy="67.59" r="3" fill="#2ca02c"/>
<circle cx="930.00" cy="64.16" r="3" fill="#2ca02c"/>
<polyline fill="none" stroke="#2ca02c" stroke-width="2" points="70.00,305.39 80.89,267.82 91.77,301.33 102.66,277.12 113.54,223.88 124.43,183.84 135.32,211.13 146.20,221.72 157.09,179.98 167.97,211.18 178.86,88.90 189.75,64.20 200.63,97.16 211.52,73.32 222.41,65.34 233.29,64.22 244.18,68.71 255.06,62.43 265.95,63.39 276.84,65.82 287.72,64.48 298.61,64.87 309.49,62.97 320.38,66.35 331.27,69.60 342.15,62.63 353.04,60.09 363.92,60.22 374.81,61.67 385.70,61.67 396.58,62.78 407.47,59.62 418.35,59.74 429.24,59.34 440.13,59.18 451.01,61.21 461.90,62.16 472.78,58.85 483.67,59.60 494.56,61.18 505.44,61.50 516.33,59.16 527.22,62.69 538.10,60.05 548.99,63.94 559.87,61.63 570.76,69.68 581.65,65.72 592.53,62.52 603.42,61.53 614.30,60.41 625.19,61.69 636.08,62.82 646.96,65.93 657.85,70.41 668.73,118.86 679.62,132.19 690.51,91.98 701.39,157.86 712.28,130.50 723.16,144.80 734.05,110.41 744.94,127.23 755.82,64.01 766.71,64.40 777.59,69.77 788.48,62.83 799.37,55.62 810.25,58.74 821.14,59.40 832.03,55.20 842.91,55.48 853.80,56.50 864.68,58.60 875.57,60.33 886.46,73.24 897.34,65.11 908.23,61.42 919.11,67.59 930.00,64.16"/>
<text x="710" y="94" font-size="12" font-family="Arial" fill="#2ca02c">RuleMode + DQN</text>
</svg>