<svg xmlns="http://www.w3.org/2000/svg" width="960" height="420">
<rect width="100%" height="100%" fill="white"/>
<text x="70" y="24" font-size="18" font-family="Arial">Total Reward Trend</text>
<line x1="70" y1="360" x2="930" y2="360" stroke="#333"/>
<line x1="70" y1="40" x2="70" y2="360" stroke="#333"/>
<line x1="70" y1="360.0" x2="930" y2="360.0" stroke="#ddd"/>
<text x="8" y="364.0" font-size="12" font-family="Arial">-1367931.50</text>
<line x1="70" y1="280.0" x2="930" y2="280.0" stroke="#ddd"/>
<text x="8" y="284.0" font-size="12" font-family="Arial">-1036162.00</text>
<line x1="70" y1="200.0" x2="930" y2="200.0" stroke="#ddd"/>
<text x="8" y="204.0" font-size="12" font-family="Arial">-704392.50</text>
<line x1="70" y1="120.0" x2="930" y2="120.0" stroke="#ddd"/>
<text x="8" y="124.0" font-size="12" font-family="Arial">-372623.00</text>
<line x1="70" y1="40.0" x2="930" y2="40.0" stroke="#ddd"/>
<text x="8" y="44.0" font-size="12" font-family="Arial">-40853.50</text>
<circle cx="70.00" cy="350.12" r="3" fill="#1f77b4"/>
<circle cx="80.89" cy="348.32" r="3" fill="#1f77b4"/>
<circle cx="91.77" cy="360.00" r="3" fill="#1f77b4"/>
<circle cx="102.66" cy="336.35" r="3" fill="#1f77b4"/>
<circle cx="113.54" cy="295.61" r="3" fill="#1f77b4"/>
<circle cx="124.43" cy="269.43" r="3" fill="#1f77b4"/>
<circle cx="135.32" cy="75.35" r="3" fill="#1f77b4"/>
<circle cx="146.20" cy="238.70" r="3" fill="#1f77b4"/>
<circle cx="157.09" cy="262.12" r="3" fill="#1f77b4"/>
<circle cx="167.97" cy="85.26" r="3" fill="#1f77b4"/>
<circle cx="178.86" cy="77.01" r="3" fill="#1f77b4"/>
<circle cx="189.75" cy="56.64" r="3" fill="#1f77b4"/>
<circle cx="200.63" cy="68.78" r="3" fill="#1f77b4"/>
<circle cx="211.52" cy="64.71" r="3" fill="#1f77b4"/>
<circle cx="222.41" cy="62.19" r="3" fill="#1f77b4"/>
<circle cx="233.29" cy="58.82" r="3" fill="#1f77b4"/>
<circle cx="244.18" cy="53.94" r="3" fill="#1f77b4"/>
<circle cx="255.06" cy="52.18" r="3" fill="#1f77b4"/>
<circle cx="265.95" cy="58.39" r="3" fill="#1f77b4"/>
<circle cx="276.84" cy="57.98" r="3" fill="#1f77b4"/>
<circle cx="287.72" cy="55.28" r="3" fill="#1f77b4"/>
<circle cx="298.61" cy="53.04" r="3" fill="#1f77b4"/>
<circle cx="309.49" cy="52.93" r="3" fill="#1f77b4"/>
<circle cx="320.38" cy="54.56" r="3" fill="#1f77b4"/>
<circle cx="331.27" cy="53.95" r="3" fill="#1f77b4"/>
<circle cx="342.15" cy="56.16" r="3" fill="#1f77b4"/>
<circle cx="353.04" cy="51.32" r="3" fill="#1f77b4"/>
<circle cx="363.92" cy="47.54" r="3" fill="#1f77b4"/>
<circle cx="374.81" cy="46.87" r="3" fill="#1f77b4"/>
<circle cx="385.70" cy="46.09" r="3" fill="#1f77b4"/>
<circle cx="396.58" cy="46.17" r="3" fill="#1f77b4"/>
<circle cx="407.47" cy="46.48" r="3" fill="#1f77b4"/>
<circle cx="418.35" cy="46.48" r="3" fill="#1f77b4"/>
<circle cx="429.24" cy="45.88" r="3" fill="#1f77b4"/>
<circle cx="440.13" cy="46.33" r="3" fill="#1f77b4"/>
<circle cx="451.01" cy="45.84" r="3" fill="#1f77b4"/>
<circle cx="461.90" cy="45.35" r="3" fill="#1f77b4"/>
<circle cx="472.78" cy="44.20" r="3" fill="#1f77b4"/>
<circle cx="483.67" cy="43.58" r="3" fill="#1f77b4"/>
<circle cx="494.56" cy="43.34" r="3" fill="#1f77b4"/>
<circle cx="505.44" cy="44.15" r="3" fill="#1f77b4"/>
<circle cx="516.33" cy="43.68" r="3" fill="#1f77b4"/>
<circle cx="527.22" cy="43.25" r="3" fill="#1f77b4"/>
<circle cx="538.10" cy="43.70" r="3" fill="#1f77b4"/>
<circle cx="548.99" cy="44.37" r="3" fill="#1f77b4"/>
<circle cx="559.87" cy="43.43" r="3" fill="#1f77b4"/>
<circle cx="570.76" cy="43.61" r="3" fill="#1f77b4"/>
<circle cx="581.65" cy="43.93" r="3" fill="#1f77b4"/>
<circle cx="592.53" cy="44.50" r="3" fill="#1f77b4"/>
<circle cx="603.42" cy="44.53" r="3" fill="#1f77b4"/>
<circle cx="614.30" cy="44.28" r="3" fill="#1f77b4"/>
<circle cx="625.19" cy="43.77" r="3" fill="#1f77b4"/>
<circle cx="636.08" cy="43.37" r="3" fill="#1f77b4"/>
<circle cx="646.96" cy="42.69" r="3" fill="#1f77b4"/>
<circle cx="657.85" cy="42.56" r="3" fill="#1f77b4"/>
<circle cx="668.73" cy="43.40" r="3" fill="#1f77b4"/>
<circle cx="679.62" cy="43.92" r="3" fill="#1f77b4"/>
<circle cx="690.51" cy="44.23" r="3" fill="#1f77b4"/>
<circle cx="701.39" cy="45.52" r="3" fill="#1f77b4"/>
<circle cx="712.28" cy="44.37" r="3" fill="#1f77b4"/>
<circle cx="723.16" cy="45.64" r="3" fill="#1f77b4"/>
<circle cx="734.05" cy="45.84" r="3" fill="#1f77b4"/>
<circle cx="744.94" cy="46.56" r="3" fill="#1f77b4"/>
<circle cx="755.82" cy="46.25" r="3" fill="#1f77b4"/>
<circle cx="766.71" cy="44.52" r="3" fill="#1f77b4"/>
<circle cx="777.59" cy="45.64" r="3" fill="#1f77b4"/>
<circle cx="788.48" cy="46.24" r="3" fill="#1f77b4"/>
<circle cx="799.37" cy="45.08" r="3" fill="#1f77b4"/>
<circle cx="810.25" cy="46.72" r="3" fill="#1f77b4"/>
<circle cx="821.14" cy="48.81" r="3" fill="#1f77b4"/>
<circle cx="832.03" cy="49.26" r="3" fill="#1f77b4"/>
<circle cx="842.91" cy="48.75" r="3" fill="#1f77b4"/>
<circle cx="853.80" cy="50.30" r="3" fill="#1f77b4"/>
<circle cx="864.68" cy="44.41" r="3" fill="#1f77b4"/>
<circle cx="875.57" cy="44.43" r="3" fill="#1f77b4"/>
<circle cx="886.46" cy="44.78" r="3" fill="#1f77b4"/>
<circle cx="897.34" cy="43.83" r="3" fill="#1f77b4"/>
<circle cx="908.23" cy="43.25" r="3" fill="#1f77b4"/>
<circle cx="919.11" cy="43.51" r="3" fill="#1f77b4"/>
<circle cx="930.00" cy="43.27" r="3" fill="#1f77b4"/>
<polyline fill="none" stroke="#1f77b4" stroke-width="2" points="70.00,350.12 80.89,348.32 91.77,360.00 102.66,336.35 113.54,295.61 124.43,269.43 135.32,75.35 146.20,238.70 157.09,262.12 167.97,85.26 178.86,77.01 189.75,56.64 200.63,68.78 211.52,64.71 222.41,62.19 233.29,58.82 244.18,53.94 255.06,52.18 265.95,58.39 276.84,57.98 287.72,55.28 298.61,53.04 309.49,52.93 320.38,54.56 331.27,53.95 342.15,56.16 353.04,51.32 363.92,47.54 374.81,46.87 385.70,46.09 396.58,46.17 407.47,46.48 418.35,46.48 429.24,45.88 440.13,46.33 451.01,45.84 461.90,45.35 472.78,44.20 483.67,43.58 494.56,43.34 505.44,44.15 516.33,43.68 527.22,43.25 538.10,43.70 548.99,44.37 559.87,43.43 570.76,43.61 581.65,43.93 592.53,44.50 603.42,44.53 614.30,44.28 625.19,43.77 636.08,43.37 646.96,42.69 657.85,42.56 668.73,43.40 679.62,43.92 690.51,44.23 701.39,45.52 712.28,44.37 723.16,45.64 734.05,45.84 744.94,46.56 755.82,46.25 766.71,44.52 777.59,45.64 788.48,46.24 799.37,45.08 810.25,46.72 821.14,48.81 832.03,49.26 842.91,48.75 853.80,50.30 864.68,44.41 875.57,44.43 886.46,44.78 897.34,43.83 908.23,43.25 919.11,43.51 930.00,43.27"/>
<text x="710" y="58" font-size="12" font-family="Arial" fill="#1f77b4">LLMMode + DQN</text>
<circle cx="70.00" cy="353.77" r="3" fill="#ff7f0e"/>
<circle cx="80.89" cy="353.77" r="3" fill="#ff7f0e"/>
<circle cx="91.77" cy="343.82" r="3" fill="#ff7f0e"/>
<circle cx="102.66" cy="331.92" r="3" fill="#ff7f0e"/>
<circle cx="113.54" cy="285.20" r="3" fill="#ff7f0e"/>
<circle cx="124.43" cy="284.43" r="3" fill="#ff7f0e"/>
<circle cx="135.32" cy="221.96" r="3" fill="#ff7f0e"/>
<circle cx="146.20" cy="161.73" r="3" fill="#ff7f0e"/>
<circle cx="157.09" cy="156.08" r="3" fill="#ff7f0e"/>
<circle cx="167.97" cy="80.79" r="3" fill="#ff7f0e"/>
<circle cx="178.86" cy="67.12" r="3" fill="#ff7f0e"/>
<circle cx="189.75" cy="68.54" r="3" fill="#ff7f0e"/>
<circle cx="200.63" cy="55.08" r="3" fill="#ff7f0e"/>
<circle cx="211.52" cy="51.38" r="3" fill="#ff7f0e"/>
<circle cx="222.41" cy="53.64" r="3" fill="#ff7f0e"/>
<circle cx="233.29" cy="51.53" r="3" fill="#ff7f0e"/>
<circle cx="244.18" cy="79.96" r="3" fill="#ff7f0e"/>
<circle cx="255.06" cy="52.18" r="3" fill="#ff7f0e"/>
<circle cx="265.95" cy="51.30" r="3" fill="#ff7f0e"/>
<circle cx="276.84" cy="81.47" r="3" fill="#ff7f0e"/>
<circle cx="287.72" cy="55.21" r="3" fill="#ff7f0e"/>
<circle cx="298.61" cy="59.50" r="3" fill="#ff7f0e"/>
<circle cx="309.49" cy="51.87" r="3" fill="#ff7f0e"/>
<circle cx="320.38" cy="50.42" r="3" fill="#ff7f0e"/>
<circle cx="331.27" cy="48.52" r="3" fill="#ff7f0e"/>
<circle cx="342.15" cy="48.57" r="3" fill="#ff7f0e"/>
<circle cx="353.04" cy="50.30" r="3" fill="#ff7f0e"/>
<circle cx="363.92" cy="49.42" r="3" fill="#ff7f0e"/>
<circle cx="374.81" cy="48.30" r="3" fill="#ff7f0e"/>
<circle cx="385.70" cy="46.62" r="3" fill="#ff7f0e"/>
<circle cx="396.58" cy="46.39" r="3" fill="#ff7f0e"/>
<circle cx="407.47" cy="45.23" r="3" fill="#ff7f0e"/>
<circle cx="418.35" cy="44.66" r="3" fill="#ff7f0e"/>
<circle cx="429.24" cy="45.40" r="3" fill="#ff7f0e"/>
<circle cx="440.13" cy="46.41" r="3" fill="#ff7f0e"/>
<circle cx="451.01" cy="45.21" r="3" fill="#ff7f0e"/>
<circle cx="461.90" cy="45.05" r="3" fill="#ff7f0e"/>
<circle cx="472.78" cy="44.83" r="3" fill="#ff7f0e"/>
<circle cx="483.67" cy="44.32" r="3" fill="#ff7f0e"/>
<circle cx="494.56" cy="42.68" r="3" fill="#ff7f0e"/>
<circle cx="505.44" cy="42.89" r="3" fill="#ff7f0e"/>
<circle cx="516.33" cy="43.30" r="3" fill="#ff7f0e"/>
<circle cx="527.22" cy="42.74" r="3" fill="#ff7f0e"/>
<circle cx="538.10" cy="44.37" r="3" fill="#ff7f0e"/>
<circle cx="548.99" cy="43.68" r="3" fill="#ff7f0e"/>
<circle cx="559.87" cy="43.75" r="3" fill="#ff7f0e"/>
<circle cx="570.76" cy="44.41" r="3" fill="#ff7f0e"/>
<circle cx="581.65" cy="42.93" r="3" fill="#ff7f0e"/>
<circle cx="592.53" cy="42.35" r="3" fill="#ff7f0e"/>
<circle cx="603.42" cy="41.93" r="3" fill="#ff7f0e"/>
<circle cx="614.30" cy="41.70" r="3" fill="#ff7f0e"/>
<circle cx="625.19" cy="41.50" r="3" fill="#ff7f0e"/>
<circle cx="636.08" cy="42.17" r="3" fill="#ff7f0e"/>
<circle cx="646.96" cy="43.04" r="3" fill="#ff7f0e"/>
<circle cx="657.85" cy="41.71" r="3" fill="#ff7f0e"/>
<circle cx="668.73" cy="41.45" r="3" fill="#ff7f0e"/>
<circle cx="679.62" cy="41.91" r="3" fill="#ff7f0e"/>
<circle cx="690.51" cy="41.91" r="3" fill="#ff7f0e"/>
<circle cx="701.39" cy="42.27" r="3" fill="#ff7f0e"/>
<circle cx="712.28" cy="42.60" r="3" fill="#ff7f0e"/>
<circle cx="723.16" cy="42.90" r="3" fill="#ff7f0e"/>
<circle cx="734.05" cy="42.71" r="3" fill="#ff7f0e"/>
<circle cx="744.94" cy="42.19" r="3" fill="#ff7f0e"/>
<circle cx="755.82" cy="42.90" r="3" fill="#ff7f0e"/>
<circle cx="766.71" cy="42.10" r="3" fill="#ff7f0e"/>
<circle cx="777.59" cy="41.80" r="3" fill="#ff7f0e"/>
<circle cx="788.48" cy="42.31" r="3" fill="#ff7f0e"/>
<circle cx="799.37" cy="43.12" r="3" fill="#ff7f0e"/>
<circle cx="810.25" cy="42.80" r="3" fill="#ff7f0e"/>
<circle cx="821.14" cy="44.19" r="3" fill="#ff7f0e"/>
<circle cx="832.03" cy="45.12" r="3" fill="#ff7f0e"/>
<circle cx="842.91" cy="95.42" r="3" fill="#ff7f0e"/>
<circle cx="853.80" cy="57.92" r="3" fill="#ff7f0e"/>
<circle cx="864.68" cy="47.74" r="3" fill="#ff7f0e"/>
<circle cx="875.57" cy="43.27" r="3" fill="#ff7f0e"/>
<circle cx="886.46" cy="42.05" r="3" fill="#ff7f0e"/>
<circle cx="897.34" cy="188.68" r="3" fill="#ff7f0e"/>
<circle cx="908.23" cy="201.74" r="3" fill="#ff7f0e"/>
<circle cx="919.11" cy="142.56" r="3" fill="#ff7f0e"/>
<circle cx="930.00" cy="60.83" r="3" fill="#ff7f0e"/>
<polyline fill="none" stroke="#ff7f0e" stroke-width="2" points="70.00,353.77 80.89,353.77 91.77,343.82 102.66,331.92 113.54,285.20 124.43,284.43 135.32,221.96 146.20,161.73 157.09,156.08 167.97,80.79 178.86,67.12 189.75,68.54 200.63,55.08 211.52,51.38 222.41,53.64 233.29,51.53 244.18,79.96 255.06,52.18 265.95,51.30 276.84,81.47 287.72,55.21 298.61,59.50 309.49,51.87 320.38,50.42 331.27,48.52 342.15,48.57 353.04,50.30 363.92,49.42 374.81,48.30 385.70,46.62 396.58,46.39 407.47,45.23 418.35,44.66 429.24,45.40 440.13,46.41 451.01,45.21 461.90,45.05 472.78,44.83 483.67,44.32 494.56,42.68 505.44,42.89 516.33,43.30 527.22,42.74 538.10,44.37 548.99,43.68 559.87,43.75 570.76,44.41 581.65,42.93 592.53,42.35 603.42,41.93 614.30,41.70 625.19,41.50 636.08,42.17 646.96,43.04 657.85,41.71 668.73,41.45 679.62,41.91 690.51,41.91 701.39,42.27 712.28,42.60 723.16,42.90 734.05,42.71 744.94,42.19 755.82,42.90 766.71,42.10 777.59,41.80 788.48,42.31 799.37,43.12 810.25,42.80 821.14,44.19 832.03,45.12 842.91,95.42 853.80,57.92 864.68,47.74 875.57,43.27 886.46,42.05 897.34,188.68 908.23,201.74 919.11,142.56 930.00,60.83"/>
<text x="710" y="76" font-size="12" font-family="Arial" fill="#ff7f0e">LLMMode + DQN</text>
<circle cx="70.00" cy="332.23" r="3" fill="#2ca02c"/>
<circle cx="80.89" cy="289.77" r="3" fill="#2ca02c"/>
<circle cx="91.77" cy="131.13" r="3" fill="#2ca02c"/>
<circle cx="102.66" cy="120.28" r="3" fill="#2ca02c"/>
<circle cx="113.54" cy="75.03" r="3" fill="#2ca02c"/>
<circle cx="124.43" cy="63.88" r="3" fill="#2ca02c"/>
<circle cx="135.32" cy="54.64" r="3" fill="#2ca02c"/>
<circle cx="146.20" cy="53.71" r="3" fill="#2ca02c"/>
<circle cx="157.09" cy="53.03" r="3" fill="#2ca02c"/>
<circle cx="167.97" cy="51.21" r="3" fill="#2ca02c"/>
<circle cx="178.86" cy="46.04" r="3" fill="#2ca02c"/>
<circle cx="189.75" cy="47.89" r="3" fill="#2ca02c"/>
<circle cx="200.63" cy="46.72" r="3" fill="#2ca02c"/>
<circle cx="211.52" cy="46.12" r="3" fill="#2ca02c"/>
<circle cx="222.41" cy="46.19" r="3" fill="#2ca02c"/>
<circle cx="233.29" cy="46.08" r="3" fill="#2ca02c"/>
<circle cx="244.18" cy="45.14" r="3" fill="#2ca02c"/>
<circle cx="255.06" cy="44.85" r="3" fill="#2ca02c"/>
<circle cx="265.95" cy="45.74" r="3" fill="#2ca02c"/>
<circle cx="276.84" cy="43.25" r="3" fill="#2ca02c"/>
<circle cx="287.72" cy="43.49" r="3" fill="#2ca02c"/>
<circle cx="298.61" cy="43.67" r="3" fill="#2ca02c"/>
<circle cx="309.49" cy="43.19" r="3" fill="#2ca02c"/>
<circle cx="320.38" cy="42.11" r="3" fill="#2ca02c"/>
<circle cx="331.27" cy="41.80" r="3" fill="#2ca02c"/>
<circle cx="342.15" cy="42.36" r="3" fill="#2ca02c"/>
<circle cx="353.04" cy="41.20" r="3" fill="#2ca02c"/>
<circle cx="363.92" cy="41.47" r="3" fill="#2ca02c"/>
<circle cx="374.81" cy="42.53" r="3" fill="#2ca02c"/>
<circle cx="385.70" cy="42.30" r="3" fill="#2ca02c"/>
<circle cx="396.58" cy="42.26" r="3" fill="#2ca02c"/>
<circle cx="407.47" cy="43.81" r="3" fill="#2ca02c"/>
<circle cx="418.35" cy="43.79" r="3" fill="#2ca02c"/>
<circle cx="429.24" cy="42.90" r="3" fill="#2ca02c"/>
<circle cx="440.13" cy="41.74" r="3" fill="#2ca02c"/>
<circle cx="451.01" cy="41.51" r="3" fill="#2ca02c"/>
<circle cx="461.90" cy="42.10" r="3" fill="#2ca02c"/>
<circle cx="472.78" cy="41.63" r="3" fill="#2ca02c"/>
<circle cx="483.67" cy="41.40" r="3" fill="#2ca02c"/>
<circle cx="494.56" cy="41.29" r="3" fill="#2ca02c"/>
<circle cx="505.44" cy="41.17" r="3" fill="#2ca02c"/>
<circle cx="516.33" cy="41.25" r="3" fill="#2ca02c"/>
<circle cx="527.22" cy="41.26" r="3" fill="#2ca02c"/>
<circle cx="538.10" cy="40.62" r="3" fill="#2ca02c"/>
<circle cx="548.99" cy="40.62" r="3" fill="#2ca02c"/>
<circle cx="559.87" cy="40.46" r="3" fill="#2ca02c"/>
<circle cx="570.76" cy="40.77" r="3" fill="#2ca02c"/>
<circle cx="581.65" cy="41.07" r="3" fill="#2ca02c"/>
<circle cx="592.53" cy="40.56" r="3" fill="#2ca02c"/>
<circle cx="603.42" cy="40.72" r="3" fill="#2ca02c"/>
<circle cx="614.30" cy="40.97" r="3" fill="#2ca02c"/>
<circle cx="625.19" cy="41.02" r="3" fill="#2ca02c"/>
<circle cx="636.08" cy="41.21" r="3" fill="#2ca02c"/>
<circle cx="646.96" cy="41.44" r="3" fill="#2ca02c"/>
<circle cx="657.85" cy="40.71" r="3" fill="#2ca02c"/>
<circle cx="668.73" cy="40.87" r="3" fill="#2ca02c"/>
<circle cx="679.62" cy="40.85" r="3" fill="#2ca02c"/>
<circle cx="690.51" cy="40.77" r="3" fill="#2ca02c"/>
<circle cx="701.39" cy="40.76" r="3" fill="#2ca02c"/>
<circle cx="712.28" cy="40.94" r="3" fill="#2ca02c"/>
<circle cx="723.16" cy="41.15" r="3" fill="#2ca02c"/>
<circle cx="734.05" cy="41.17" r="3" fill="#2ca02c"/>
<circle cx="744.94" cy="62.49" r="3" fill="#2ca02c"/>
<circle cx="755.82" cy="40.07" r="3" fill="#2ca02c"/>
<circle cx="766.71" cy="40.15" r="3" fill="#2ca02c"/>
<circle cx="777.59" cy="40.26" r="3" fill="#2ca02c"/>
<circle cx="788.48" cy="40.25" r="3" fill="#2ca02c"/>
<circle cx="799.37" cy="40.07" r="3" fill="#2ca02c"/>
<circle cx="810.25" cy="116.11" r="3" fill="#2ca02c"/>
<circle cx="821.14" cy="40.25" r="3" fill="#2ca02c"/>
<circle cx="832.03" cy="187.45" r="3" fill="#2ca02c"/>
<circle cx="842.91" cy="202.41" r="3" fill="#2ca02c"/>
<circle cx="853.80" cy="137.52" r="3" fill="#2ca02c"/>
<circle cx="864.68" cy="136.04" r="3" fill="#2ca02c"/>
<circle cx="875.57" cy="97.74" r="3" fill="#2ca02c"/>
<circle cx="886.46" cy="40.00" r="3" fill="#2ca02c"/>
<circle cx="897.34" cy="51.23" r="3" fill="#2ca02c"/>
<circle cx="908.23" cy="108.83" r="3" fill="#2ca02c"/>
<circle cx="919.11" cy="89.58" r="3" fill="#2ca02c"/>
<circle cx="930.00" cy="113.73" r="3" fill="#2ca02c"/>
<polyline fill="none" stroke="#2ca02c" stroke-width="2" points="70.00,332.23 80.89,289.77 91.77,131.13 102.66,120.28 113.54,75.03 124.43,63.88 135.32,54.64 146.20,53.71 157.09,53.03 167.97,51.21 178.86,46.04 189.75,47.89 200.63,46.72 211.52,46.12 222.41,46.19 233.29,46.08 244.18,45.14 255.06,44.85 265.95,45.74 276.84,43.25 287.72,43.49 298.61,43.67 309.49,43.19 320.38,42.11 331.27,41.80 342.15,42.36 353.04,41.20 363.92,41.47 374.81,42.53 385.70,42.30 396.58,42.26 407.47,43.81 418.35,43.79 429.24,42.90 440.13,41.74 451.01,41.51 461.90,42.10 472.78,41.63 483.67,41.40 494.56,41.29 505.44,41.17 516.33,41.25 527.22,41.26 538.10,40.62 548.99,40.62 559.87,40.46 570.76,40.77 581.65,41.07 592.53,40.56 603.42,40.72 614.30,40.97 625.19,41.02 636.08,41.21 646.96,41.44 657.85,40.71 668.73,40.87 679.62,40.85 690.51,40.77 701.39,40.76 712.28,40.94 723.16,41.15 734.05,41.17 744.94,62.49 755.82,40.07 766.71,40.15 777.59,40.26 788.48,40.25 799.37,40.07 810.25,116.11 821.14,40.25 832.03,187.45 842.91,202.41 853.80,137.52 864.68,136.04 875.57,97.74 886.46,40.00 897.34,51.23 908.23,108.83 919.11,89.58 930.00,113.73"/>
<text x="710" y="94" font-size="12" font-family="Arial" fill="#2ca02c">LLMMode + DQN</text>
</svg>