<svg xmlns="http://www.w3.org/2000/svg" width="960" height="420">
<rect width="100%" height="100%" fill="white"/>
<text x="70" y="24" font-size="18" font-family="Arial">Total Reward Trend</text>
<line x1="70" y1="360" x2="930" y2="360" stroke="#333"/>
<line x1="70" y1="40" x2="70" y2="360" stroke="#333"/>
<line x1="70" y1="360.0" x2="930" y2="360.0" stroke="#ddd"/>
<text x="8" y="364.0" font-size="12" font-family="Arial">-3357802.05</text>
<line x1="70" y1="280.0" x2="930" y2="280.0" stroke="#ddd"/>
<text x="8" y="284.0" font-size="12" font-family="Arial">-2530985.72</text>
<line x1="70" y1="200.0" x2="930" y2="200.0" stroke="#ddd"/>
<text x="8" y="204.0" font-size="12" font-family="Arial">-1704169.40</text>
<line x1="70" y1="120.0" x2="930" y2="120.0" stroke="#ddd"/>
<text x="8" y="124.0" font-size="12" font-family="Arial">-877353.08</text>
<line x1="70" y1="40.0" x2="930" y2="40.0" stroke="#ddd"/>
<text x="8" y="44.0" font-size="12" font-family="Arial">-50536.75</text>
<circle cx="70.00" cy="76.67" r="3" fill="#1f77b4"/>
<circle cx="80.89" cy="52.20" r="3" fill="#1f77b4"/>
<circle cx="91.77" cy="107.52" r="3" fill="#1f77b4"/>
<circle cx="102.66" cy="81.31" r="3" fill="#1f77b4"/>
<circle cx="113.54" cy="108.71" r="3" fill="#1f77b4"/>
<circle cx="124.43" cy="94.63" r="3" fill="#1f77b4"/>
<circle cx="135.32" cy="98.90" r="3" fill="#1f77b4"/>
<circle cx="146.20" cy="90.89" r="3" fill="#1f77b4"/>
<circle cx="157.09" cy="88.92" r="3" fill="#1f77b4"/>
<circle cx="167.97" cy="65.16" r="3" fill="#1f77b4"/>
<circle cx="178.86" cy="59.86" r="3" fill="#1f77b4"/>
<circle cx="189.75" cy="66.09" r="3" fill="#1f77b4"/>
<circle cx="200.63" cy="76.99" r="3" fill="#1f77b4"/>
<circle cx="211.52" cy="84.45" r="3" fill="#1f77b4"/>
<circle cx="222.41" cy="105.34" r="3" fill="#1f77b4"/>
<circle cx="233.29" cy="81.70" r="3" fill="#1f77b4"/>
<circle cx="244.18" cy="81.17" r="3" fill="#1f77b4"/>
<circle cx="255.06" cy="75.13" r="3" fill="#1f77b4"/>
<circle cx="265.95" cy="77.73" r="3" fill="#1f77b4"/>
<circle cx="276.84" cy="70.35" r="3" fill="#1f77b4"/>
<circle cx="287.72" cy="60.27" r="3" fill="#1f77b4"/>
<circle cx="298.61" cy="61.15" r="3" fill="#1f77b4"/>
<circle cx="309.49" cy="60.00" r="3" fill="#1f77b4"/>
<circle cx="320.38" cy="59.53" r="3" fill="#1f77b4"/>
<circle cx="331.27" cy="60.73" r="3" fill="#1f77b4"/>
<circle cx="342.15" cy="61.01" r="3" fill="#1f77b4"/>
<circle cx="353.04" cy="48.47" r="3" fill="#1f77b4"/>
<circle cx="363.92" cy="48.21" r="3" fill="#1f77b4"/>
<circle cx="374.81" cy="48.92" r="3" fill="#1f77b4"/>
<circle cx="385.70" cy="53.59" r="3" fill="#1f77b4"/>
<circle cx="396.58" cy="54.32" r="3" fill="#1f77b4"/>
<circle cx="407.47" cy="58.33" r="3" fill="#1f77b4"/>
<circle cx="418.35" cy="62.77" r="3" fill="#1f77b4"/>
<circle cx="429.24" cy="58.88" r="3" fill="#1f77b4"/>
<circle cx="440.13" cy="58.76" r="3" fill="#1f77b4"/>
<circle cx="451.01" cy="58.00" r="3" fill="#1f77b4"/>
<circle cx="461.90" cy="64.06" r="3" fill="#1f77b4"/>
<circle cx="472.78" cy="52.85" r="3" fill="#1f77b4"/>
<circle cx="483.67" cy="48.68" r="3" fill="#1f77b4"/>
<circle cx="494.56" cy="41.91" r="3" fill="#1f77b4"/>
<circle cx="505.44" cy="43.07" r="3" fill="#1f77b4"/>
<circle cx="516.33" cy="44.39" r="3" fill="#1f77b4"/>
<circle cx="527.22" cy="44.42" r="3" fill="#1f77b4"/>
<circle cx="538.10" cy="44.01" r="3" fill="#1f77b4"/>
<circle cx="548.99" cy="42.04" r="3" fill="#1f77b4"/>
<circle cx="559.87" cy="41.26" r="3" fill="#1f77b4"/>
<circle cx="570.76" cy="43.68" r="3" fill="#1f77b4"/>
<circle cx="581.65" cy="40.26" r="3" fill="#1f77b4"/>
<circle cx="592.53" cy="44.96" r="3" fill="#1f77b4"/>
<circle cx="603.42" cy="40.19" r="3" fill="#1f77b4"/>
<circle cx="614.30" cy="44.50" r="3" fill="#1f77b4"/>
<circle cx="625.19" cy="40.18" r="3" fill="#1f77b4"/>
<circle cx="636.08" cy="40.00" r="3" fill="#1f77b4"/>
<circle cx="646.96" cy="40.12" r="3" fill="#1f77b4"/>
<circle cx="657.85" cy="40.33" r="3" fill="#1f77b4"/>
<circle cx="668.73" cy="40.20" r="3" fill="#1f77b4"/>
<circle cx="679.62" cy="40.31" r="3" fill="#1f77b4"/>
<circle cx="690.51" cy="43.23" r="3" fill="#1f77b4"/>
<circle cx="701.39" cy="40.49" r="3" fill="#1f77b4"/>
<circle cx="712.28" cy="46.01" r="3" fill="#1f77b4"/>
<circle cx="723.16" cy="42.58" r="3" fill="#1f77b4"/>
<circle cx="734.05" cy="40.87" r="3" fill="#1f77b4"/>
<circle cx="744.94" cy="42.94" r="3" fill="#1f77b4"/>
<circle cx="755.82" cy="66.17" r="3" fill="#1f77b4"/>
<circle cx="766.71" cy="64.51" r="3" fill="#1f77b4"/>
<circle cx="777.59" cy="70.57" r="3" fill="#1f77b4"/>
<circle cx="788.48" cy="66.30" r="3" fill="#1f77b4"/>
<circle cx="799.37" cy="74.79" r="3" fill="#1f77b4"/>
<circle cx="810.25" cy="77.32" r="3" fill="#1f77b4"/>
<circle cx="821.14" cy="77.21" r="3" fill="#1f77b4"/>
<circle cx="832.03" cy="76.47" r="3" fill="#1f77b4"/>
<circle cx="842.91" cy="97.40" r="3" fill="#1f77b4"/>
<circle cx="853.80" cy="97.44" r="3" fill="#1f77b4"/>
<circle cx="864.68" cy="98.05" r="3" fill="#1f77b4"/>
<circle cx="875.57" cy="78.51" r="3" fill="#1f77b4"/>
<circle cx="886.46" cy="98.89" r="3" fill="#1f77b4"/>
<circle cx="897.34" cy="81.75" r="3" fill="#1f77b4"/>
<circle cx="908.23" cy="99.04" r="3" fill="#1f77b4"/>
<circle cx="919.11" cy="97.57" r="3" fill="#1f77b4"/>
<circle cx="930.00" cy="74.49" r="3" fill="#1f77b4"/>
<polyline fill="none" stroke="#1f77b4" stroke-width="2" points="70.00,76.67 80.89,52.20 91.77,107.52 102.66,81.31 113.54,108.71 124.43,94.63 135.32,98.90 146.20,90.89 157.09,88.92 167.97,65.16 178.86,59.86 189.75,66.09 200.63,76.99 211.52,84.45 222.41,105.34 233.29,81.70 244.18,81.17 255.06,75.13 265.95,77.73 276.84,70.35 287.72,60.27 298.61,61.15 309.49,60.00 320.38,59.53 331.27,60.73 342.15,61.01 353.04,48.47 363.92,48.21 374.81,48.92 385.70,53.59 396.58,54.32 407.47,58.33 418.35,62.77 429.24,58.88 440.13,58.76 451.01,58.00 461.90,64.06 472.78,52.85 483.67,48.68 494.56,41.91 505.44,43.07 516.33,44.39 527.22,44.42 538.10,44.01 548.99,42.04 559.87,41.26 570.76,43.68 581.65,40.26 592.53,44.96 603.42,40.19 614.30,44.50 625.19,40.18 636.08,40.00 646.96,40.12 657.85,40.33 668.73,40.20 679.62,40.31 690.51,43.23 701.39,40.49 712.28,46.01 723.16,42.58 734.05,40.87 744.94,42.94 755.82,66.17 766.71,64.51 777.59,70.57 788.48,66.30 799.37,74.79 810.25,77.32 821.14,77.21 832.03,76.47 842.91,97.40 853.80,97.44 864.68,98.05 875.57,78.51 886.46,98.89 897.34,81.75 908.23,99.04 919.11,97.57 930.00,74.49"/>
<text x="710" y="58" font-size="12" font-family="Arial" fill="#1f77b4">Pure DQN</text>
<circle cx="70.00" cy="360.00" r="3" fill="#ff7f0e"/>
<circle cx="80.89" cy="288.66" r="3" fill="#ff7f0e"/>
<circle cx="91.77" cy="168.15" r="3" fill="#ff7f0e"/>
<circle cx="102.66" cy="196.32" r="3" fill="#ff7f0e"/>
<circle cx="113.54" cy="227.44" r="3" fill="#ff7f0e"/>
<circle cx="124.43" cy="199.87" r="3" fill="#ff7f0e"/>
<circle cx="135.32" cy="232.69" r="3" fill="#ff7f0e"/>
<circle cx="146.20" cy="155.10" r="3" fill="#ff7f0e"/>
<circle cx="157.09" cy="174.79" r="3" fill="#ff7f0e"/>
<circle cx="167.97" cy="196.56" r="3" fill="#ff7f0e"/>
<circle cx="178.86" cy="113.95" r="3" fill="#ff7f0e"/>
<circle cx="189.75" cy="128.55" r="3" fill="#ff7f0e"/>
<circle cx="200.63" cy="169.40" r="3" fill="#ff7f0e"/>
<circle cx="211.52" cy="116.33" r="3" fill="#ff7f0e"/>
<circle cx="222.41" cy="155.86" r="3" fill="#ff7f0e"/>
<circle cx="233.29" cy="199.73" r="3" fill="#ff7f0e"/>
<circle cx="244.18" cy="92.03" r="3" fill="#ff7f0e"/>
<circle cx="255.06" cy="70.09" r="3" fill="#ff7f0e"/>
<circle cx="265.95" cy="111.47" r="3" fill="#ff7f0e"/>
<circle cx="276.84" cy="135.35" r="3" fill="#ff7f0e"/>
<circle cx="287.72" cy="67.98" r="3" fill="#ff7f0e"/>
<circle cx="298.61" cy="57.43" r="3" fill="#ff7f0e"/>
<circle cx="309.49" cy="54.36" r="3" fill="#ff7f0e"/>
<circle cx="320.38" cy="52.60" r="3" fill="#ff7f0e"/>
<circle cx="331.27" cy="51.92" r="3" fill="#ff7f0e"/>
<circle cx="342.15" cy="51.70" r="3" fill="#ff7f0e"/>
<circle cx="353.04" cy="90.50" r="3" fill="#ff7f0e"/>
<circle cx="363.92" cy="131.00" r="3" fill="#ff7f0e"/>
<circle cx="374.81" cy="51.45" r="3" fill="#ff7f0e"/>
<circle cx="385.70" cy="133.51" r="3" fill="#ff7f0e"/>
<circle cx="396.58" cy="135.63" r="3" fill="#ff7f0e"/>
<circle cx="407.47" cy="50.39" r="3" fill="#ff7f0e"/>
<circle cx="418.35" cy="115.29" r="3" fill="#ff7f0e"/>
<circle cx="429.24" cy="50.89" r="3" fill="#ff7f0e"/>
<circle cx="440.13" cy="50.21" r="3" fill="#ff7f0e"/>
<circle cx="451.01" cy="49.18" r="3" fill="#ff7f0e"/>
<circle cx="461.90" cy="49.28" r="3" fill="#ff7f0e"/>
<circle cx="472.78" cy="49.20" r="3" fill="#ff7f0e"/>
<circle cx="483.67" cy="48.54" r="3" fill="#ff7f0e"/>
<circle cx="494.56" cy="49.17" r="3" fill="#ff7f0e"/>
<circle cx="505.44" cy="49.24" r="3" fill="#ff7f0e"/>
<circle cx="516.33" cy="49.30" r="3" fill="#ff7f0e"/>
<circle cx="527.22" cy="48.38" r="3" fill="#ff7f0e"/>
<circle cx="538.10" cy="49.08" r="3" fill="#ff7f0e"/>
<circle cx="548.99" cy="48.85" r="3" fill="#ff7f0e"/>
<circle cx="559.87" cy="48.37" r="3" fill="#ff7f0e"/>
<circle cx="570.76" cy="48.36" r="3" fill="#ff7f0e"/>
<circle cx="581.65" cy="48.12" r="3" fill="#ff7f0e"/>
<circle cx="592.53" cy="48.22" r="3" fill="#ff7f0e"/>
<circle cx="603.42" cy="48.60" r="3" fill="#ff7f0e"/>
<circle cx="614.30" cy="47.90" r="3" fill="#ff7f0e"/>
<circle cx="625.19" cy="47.89" r="3" fill="#ff7f0e"/>
<circle cx="636.08" cy="47.87" r="3" fill="#ff7f0e"/>
<circle cx="646.96" cy="47.96" r="3" fill="#ff7f0e"/>
<circle cx="657.85" cy="47.57" r="3" fill="#ff7f0e"/>
<circle cx="668.73" cy="47.62" r="3" fill="#ff7f0e"/>
<circle cx="679.62" cy="47.45" r="3" fill="#ff7f0e"/>
<circle cx="690.51" cy="47.22" r="3" fill="#ff7f0e"/>
<circle cx="701.39" cy="47.57" r="3" fill="#ff7f0e"/>
<circle cx="712.28" cy="154.53" r="3" fill="#ff7f0e"/>
<circle cx="723.16" cy="108.58" r="3" fill="#ff7f0e"/>
<circle cx="734.05" cy="152.31" r="3" fill="#ff7f0e"/>
<circle cx="744.94" cy="119.87" r="3" fill="#ff7f0e"/>
<circle cx="755.82" cy="138.77" r="3" fill="#ff7f0e"/>
<circle cx="766.71" cy="146.07" r="3" fill="#ff7f0e"/>
<circle cx="777.59" cy="148.68" r="3" fill="#ff7f0e"/>
<circle cx="788.48" cy="150.01" r="3" fill="#ff7f0e"/>
<circle cx="799.37" cy="151.96" r="3" fill="#ff7f0e"/>
<circle cx="810.25" cy="148.97" r="3" fill="#ff7f0e"/>
<circle cx="821.14" cy="145.67" r="3" fill="#ff7f0e"/>
<circle cx="832.03" cy="108.43" r="3" fill="#ff7f0e"/>
<circle cx="842.91" cy="155.53" r="3" fill="#ff7f0e"/>
<circle cx="853.80" cy="121.55" r="3" fill="#ff7f0e"/>
<circle cx="864.68" cy="124.80" r="3" fill="#ff7f0e"/>
<circle cx="875.57" cy="61.75" r="3" fill="#ff7f0e"/>
<circle cx="886.46" cy="129.32" r="3" fill="#ff7f0e"/>
<circle cx="897.34" cy="145.86" r="3" fill="#ff7f0e"/>
<circle cx="908.23" cy="150.30" r="3" fill="#ff7f0e"/>
<circle cx="919.11" cy="154.73" r="3" fill="#ff7f0e"/>
<circle cx="930.00" cy="146.36" r="3" fill="#ff7f0e"/>
<polyline fill="none" stroke="#ff7f0e" stroke-width="2" points="70.00,360.00 80.89,288.66 91.77,168.15 102.66,196.32 113.54,227.44 124.43,199.87 135.32,232.69 146.20,155.10 157.09,174.79 167.97,196.56 178.86,113.95 189.75,128.55 200.63,169.40 211.52,116.33 222.41,155.86 233.29,199.73 244.18,92.03 255.06,70.09 265.95,111.47 276.84,135.35 287.72,67.98 298.61,57.43 309.49,54.36 320.38,52.60 331.27,51.92 342.15,51.70 353.04,90.50 363.92,131.00 374.81,51.45 385.70,133.51 396.58,135.63 407.47,50.39 418.35,115.29 429.24,50.89 440.13,50.21 451.01,49.18 461.90,49.28 472.78,49.20 483.67,48.54 494.56,49.17 505.44,49.24 516.33,49.30 527.22,48.38 538.10,49.08 548.99,48.85 559.87,48.37 570.76,48.36 581.65,48.12 592.53,48.22 603.42,48.60 614.30,47.90 625.19,47.89 636.08,47.87 646.96,47.96 657.85,47.57 668.73,47.62 679.62,47.45 690.51,47.22 701.39,47.57 712.28,154.53 723.16,108.58 734.05,152.31 744.94,119.87 755.82,138.77 766.71,146.07 777.59,148.68 788.48,150.01 799.37,151.96 810.25,148.97 821.14,145.67 832.03,108.43 842.91,155.53 853.80,121.55 864.68,124.80 875.57,61.75 886.46,129.32 897.34,145.86 908.23,150.30 919.11,154.73 930.00,146.36"/>
<text x="710" y="76" font-size="12" font-family="Arial" fill="#ff7f0e">LLMMode + DQN</text>
<circle cx="70.00" cy="301.35" r="3" fill="#2ca02c"/>
<circle cx="80.89" cy="317.13" r="3" fill="#2ca02c"/>
<circle cx="91.77" cy="310.99" r="3" fill="#2ca02c"/>
<circle cx="102.66" cy="233.97" r="3" fill="#2ca02c"/>
<circle cx="113.54" cy="132.85" r="3" fill="#2ca02c"/>
<circle cx="124.43" cy="104.92" r="3" fill="#2ca02c"/>
<circle cx="135.32" cy="103.98" r="3" fill="#2ca02c"/>
<circle cx="146.20" cy="58.92" r="3" fill="#2ca02c"/>
<circle cx="157.09" cy="89.16" r="3" fill="#2ca02c"/>
<circle cx="167.97" cy="73.48" r="3" fill="#2ca02c"/>
<circle cx="178.86" cy="77.56" r="3" fill="#2ca02c"/>
<circle cx="189.75" cy="124.10" r="3" fill="#2ca02c"/>
<circle cx="200.63" cy="84.68" r="3" fill="#2ca02c"/>
<circle cx="211.52" cy="74.10" r="3" fill="#2ca02c"/>
<circle cx="222.41" cy="141.41" r="3" fill="#2ca02c"/>
<circle cx="233.29" cy="98.25" r="3" fill="#2ca02c"/>
<circle cx="244.18" cy="44.93" r="3" fill="#2ca02c"/>
<circle cx="255.06" cy="58.68" r="3" fill="#2ca02c"/>
<circle cx="265.95" cy="44.55" r="3" fill="#2ca02c"/>
<circle cx="276.84" cy="43.27" r="3" fill="#2ca02c"/>
<circle cx="287.72" cy="43.02" r="3" fill="#2ca02c"/>
<circle cx="298.61" cy="42.49" r="3" fill="#2ca02c"/>
<circle cx="309.49" cy="42.15" r="3" fill="#2ca02c"/>
<circle cx="320.38" cy="42.15" r="3" fill="#2ca02c"/>
<circle cx="331.27" cy="41.78" r="3" fill="#2ca02c"/>
<circle cx="342.15" cy="41.74" r="3" fill="#2ca02c"/>
<circle cx="353.04" cy="42.83" r="3" fill="#2ca02c"/>
<circle cx="363.92" cy="42.17" r="3" fill="#2ca02c"/>
<circle cx="374.81" cy="41.89" r="3" fill="#2ca02c"/>
<circle cx="385.70" cy="41.76" r="3" fill="#2ca02c"/>
<circle cx="396.58" cy="41.46" r="3" fill="#2ca02c"/>
<circle cx="407.47" cy="42.40" r="3" fill="#2ca02c"/>
<circle cx="418.35" cy="42.50" r="3" fill="#2ca02c"/>
<circle cx="429.24" cy="41.63" r="3" fill="#2ca02c"/>
<circle cx="440.13" cy="40.83" r="3" fill="#2ca02c"/>
<circle cx="451.01" cy="43.33" r="3" fill="#2ca02c"/>
<circle cx="461.90" cy="41.39" r="3" fill="#2ca02c"/>
<circle cx="472.78" cy="41.19" r="3" fill="#2ca02c"/>
<circle cx="483.67" cy="40.84" r="3" fill="#2ca02c"/>
<circle cx="494.56" cy="40.48" r="3" fill="#2ca02c"/>
<circle cx="505.44" cy="41.15" r="3" fill="#2ca02c"/>
<circle cx="516.33" cy="40.78" r="3" fill="#2ca02c"/>
<circle cx="527.22" cy="40.69" r="3" fill="#2ca02c"/>
<circle cx="538.10" cy="40.80" r="3" fill="#2ca02c"/>
<circle cx="548.99" cy="40.70" r="3" fill="#2ca02c"/>
<circle cx="559.87" cy="40.83" r="3" fill="#2ca02c"/>
<circle cx="570.76" cy="40.72" r="3" fill="#2ca02c"/>
<circle cx="581.65" cy="40.53" r="3" fill="#2ca02c"/>
<circle cx="592.53" cy="40.61" r="3" fill="#2ca02c"/>
<circle cx="603.42" cy="40.09" r="3" fill="#2ca02c"/>
<circle cx="614.30" cy="40.51" r="3" fill="#2ca02c"/>
<circle cx="625.19" cy="40.54" r="3" fill="#2ca02c"/>
<circle cx="636.08" cy="40.62" r="3" fill="#2ca02c"/>
<circle cx="646.96" cy="40.64" r="3" fill="#2ca02c"/>
<circle cx="657.85" cy="40.73" r="3" fill="#2ca02c"/>
<circle cx="668.73" cy="40.74" r="3" fill="#2ca02c"/>
<circle cx="679.62" cy="40.02" r="3" fill="#2ca02c"/>
<circle cx="690.51" cy="40.69" r="3" fill="#2ca02c"/>
<circle cx="701.39" cy="40.90" r="3" fill="#2ca02c"/>
<circle cx="712.28" cy="40.63" r="3" fill="#2ca02c"/>
<circle cx="723.16" cy="40.54" r="3" fill="#2ca02c"/>
<circle cx="734.05" cy="40.34" r="3" fill="#2ca02c"/>
<circle cx="744.94" cy="40.46" r="3" fill="#2ca02c"/>
<circle cx="755.82" cy="40.92" r="3" fill="#2ca02c"/>
<circle cx="766.71" cy="41.27" r="3" fill="#2ca02c"/>
<circle cx="777.59" cy="41.09" r="3" fill="#2ca02c"/>
<circle cx="788.48" cy="40.82" r="3" fill="#2ca02c"/>
<circle cx="799.37" cy="42.16" r="3" fill="#2ca02c"/>
<circle cx="810.25" cy="40.46" r="3" fill="#2ca02c"/>
<circle cx="821.14" cy="41.27" r="3" fill="#2ca02c"/>
<circle cx="832.03" cy="41.30" r="3" fill="#2ca02c"/>
<circle cx="842.91" cy="41.54" r="3" fill="#2ca02c"/>
<circle cx="853.80" cy="41.55" r="3" fill="#2ca02c"/>
<circle cx="864.68" cy="41.22" r="3" fill="#2ca02c"/>
<circle cx="875.57" cy="42.00" r="3" fill="#2ca02c"/>
<circle cx="886.46" cy="42.11" r="3" fill="#2ca02c"/>
<circle cx="897.34" cy="42.41" r="3" fill="#2ca02c"/>
<circle cx="908.23" cy="41.98" r="3" fill="#2ca02c"/>
<circle cx="919.11" cy="42.15" r="3" fill="#2ca02c"/>
<circle cx="930.00" cy="41.22" r="3" fill="#2ca02c"/>
<polyline fill="none" stroke="#2ca02c" stroke-width="2" points="70.00,301.35 80.89,317.13 91.77,310.99 102.66,233.97 113.54,132.85 124.43,104.92 135.32,103.98 146.20,58.92 157.09,89.16 167.97,73.48 178.86,77.56 189.75,124.10 200.63,84.68 211.52,74.10 222.41,141.41 233.29,98.25 244.18,44.93 255.06,58.68 265.95,44.55 276.84,43.27 287.72,43.02 298.61,42.49 309.49,42.15 320.38,42.15 331.27,41.78 342.15,41.74 353.04,42.83 363.92,42.17 374.81,41.89 385.70,41.76 396.58,41.46 407.47,42.40 418.35,42.50 429.24,41.63 440.13,40.83 451.01,43.33 461.90,41.39 472.78,41.19 483.67,40.84 494.56,40.48 505.44,41.15 516.33,40.78 527.22,40.69 538.10,40.80 548.99,40.70 559.87,40.83 570.76,40.72 581.65,40.53 592.53,40.61 603.42,40.09 614.30,40.51 625.19,40.54 636.08,40.62 646.96,40.64 657.85,40.73 668.73,40.74 679.62,40.02 690.51,40.69 701.39,40.90 712.28,40.63 723.16,40.54 734.05,40.34 744.94,40.46 755.82,40.92 766.71,41.27 777.59,41.09 788.48,40.82 799.37,42.16 810.25,40.46 821.14,41.27 832.03,41.30 842.91,41.54 853.80,41.55 864.68,41.22 875.57,42.00 886.46,42.11 897.34,42.41 908.23,41.98 919.11,42.15 930.00,41.22"/>
<text x="710" y="94" font-size="12" font-family="Arial" fill="#2ca02c">RuleMode + DQN</text>
</svg>