<svg xmlns="http://www.w3.org/2000/svg" width="960" height="420">
<rect width="100%" height="100%" fill="white"/>
<text x="70" y="24" font-size="18" font-family="Arial">Total Reward Trend</text>
<line x1="70" y1="360" x2="930" y2="360" stroke="#333"/>
<line x1="70" y1="40" x2="70" y2="360" stroke="#333"/>
<line x1="70" y1="360.0" x2="930" y2="360.0" stroke="#ddd"/>
<text x="8" y="364.0" font-size="12" font-family="Arial">-4006401.00</text>
<line x1="70" y1="280.0" x2="930" y2="280.0" stroke="#ddd"/>
<text x="8" y="284.0" font-size="12" font-family="Arial">-3021980.94</text>
<line x1="70" y1="200.0" x2="930" y2="200.0" stroke="#ddd"/>
<text x="8" y="204.0" font-size="12" font-family="Arial">-2037560.87</text>
<line x1="70" y1="120.0" x2="930" y2="120.0" stroke="#ddd"/>
<text x="8" y="124.0" font-size="12" font-family="Arial">-1053140.81</text>
<line x1="70" y1="40.0" x2="930" y2="40.0" stroke="#ddd"/>
<text x="8" y="44.0" font-size="12" font-family="Arial">-68720.75</text>
<circle cx="70.00" cy="134.65" r="3" fill="#1f77b4"/>
<circle cx="80.89" cy="143.93" r="3" fill="#1f77b4"/>
<circle cx="91.77" cy="140.60" r="3" fill="#1f77b4"/>
<circle cx="102.66" cy="135.13" r="3" fill="#1f77b4"/>
<circle cx="113.54" cy="103.75" r="3" fill="#1f77b4"/>
<circle cx="124.43" cy="88.38" r="3" fill="#1f77b4"/>
<circle cx="135.32" cy="59.78" r="3" fill="#1f77b4"/>
<circle cx="146.20" cy="59.93" r="3" fill="#1f77b4"/>
<circle cx="157.09" cy="51.81" r="3" fill="#1f77b4"/>
<circle cx="167.97" cy="54.54" r="3" fill="#1f77b4"/>
<circle cx="178.86" cy="52.48" r="3" fill="#1f77b4"/>
<circle cx="189.75" cy="49.48" r="3" fill="#1f77b4"/>
<circle cx="200.63" cy="48.45" r="3" fill="#1f77b4"/>
<circle cx="211.52" cy="45.73" r="3" fill="#1f77b4"/>
<circle cx="222.41" cy="44.93" r="3" fill="#1f77b4"/>
<circle cx="233.29" cy="48.51" r="3" fill="#1f77b4"/>
<circle cx="244.18" cy="46.45" r="3" fill="#1f77b4"/>
<circle cx="255.06" cy="46.58" r="3" fill="#1f77b4"/>
<circle cx="265.95" cy="44.64" r="3" fill="#1f77b4"/>
<circle cx="276.84" cy="42.95" r="3" fill="#1f77b4"/>
<circle cx="287.72" cy="43.57" r="3" fill="#1f77b4"/>
<circle cx="298.61" cy="44.70" r="3" fill="#1f77b4"/>
<circle cx="309.49" cy="43.55" r="3" fill="#1f77b4"/>
<circle cx="320.38" cy="44.21" r="3" fill="#1f77b4"/>
<circle cx="331.27" cy="51.33" r="3" fill="#1f77b4"/>
<circle cx="342.15" cy="51.60" r="3" fill="#1f77b4"/>
<circle cx="353.04" cy="47.11" r="3" fill="#1f77b4"/>
<circle cx="363.92" cy="43.23" r="3" fill="#1f77b4"/>
<circle cx="374.81" cy="41.87" r="3" fill="#1f77b4"/>
<circle cx="385.70" cy="41.33" r="3" fill="#1f77b4"/>
<circle cx="396.58" cy="41.30" r="3" fill="#1f77b4"/>
<circle cx="407.47" cy="41.51" r="3" fill="#1f77b4"/>
<circle cx="418.35" cy="41.23" r="3" fill="#1f77b4"/>
<circle cx="429.24" cy="41.41" r="3" fill="#1f77b4"/>
<circle cx="440.13" cy="41.52" r="3" fill="#1f77b4"/>
<circle cx="451.01" cy="41.26" r="3" fill="#1f77b4"/>
<circle cx="461.90" cy="41.29" r="3" fill="#1f77b4"/>
<circle cx="472.78" cy="40.99" r="3" fill="#1f77b4"/>
<circle cx="483.67" cy="40.94" r="3" fill="#1f77b4"/>
<circle cx="494.56" cy="40.45" r="3" fill="#1f77b4"/>
<circle cx="505.44" cy="40.51" r="3" fill="#1f77b4"/>
<circle cx="516.33" cy="40.59" r="3" fill="#1f77b4"/>
<circle cx="527.22" cy="40.35" r="3" fill="#1f77b4"/>
<circle cx="538.10" cy="40.21" r="3" fill="#1f77b4"/>
<circle cx="548.99" cy="40.26" r="3" fill="#1f77b4"/>
<circle cx="559.87" cy="40.33" r="3" fill="#1f77b4"/>
<circle cx="570.76" cy="40.40" r="3" fill="#1f77b4"/>
<circle cx="581.65" cy="40.53" r="3" fill="#1f77b4"/>
<circle cx="592.53" cy="40.32" r="3" fill="#1f77b4"/>
<circle cx="603.42" cy="40.32" r="3" fill="#1f77b4"/>
<circle cx="614.30" cy="40.33" r="3" fill="#1f77b4"/>
<circle cx="625.19" cy="40.40" r="3" fill="#1f77b4"/>
<circle cx="636.08" cy="40.42" r="3" fill="#1f77b4"/>
<circle cx="646.96" cy="40.91" r="3" fill="#1f77b4"/>
<circle cx="657.85" cy="40.59" r="3" fill="#1f77b4"/>
<circle cx="668.73" cy="40.48" r="3" fill="#1f77b4"/>
<circle cx="679.62" cy="40.38" r="3" fill="#1f77b4"/>
<circle cx="690.51" cy="40.33" r="3" fill="#1f77b4"/>
<circle cx="701.39" cy="40.59" r="3" fill="#1f77b4"/>
<circle cx="712.28" cy="40.48" r="3" fill="#1f77b4"/>
<circle cx="723.16" cy="40.51" r="3" fill="#1f77b4"/>
<circle cx="734.05" cy="40.27" r="3" fill="#1f77b4"/>
<circle cx="744.94" cy="40.18" r="3" fill="#1f77b4"/>
<circle cx="755.82" cy="40.22" r="3" fill="#1f77b4"/>
<circle cx="766.71" cy="40.19" r="3" fill="#1f77b4"/>
<circle cx="777.59" cy="40.07" r="3" fill="#1f77b4"/>
<circle cx="788.48" cy="40.12" r="3" fill="#1f77b4"/>
<circle cx="799.37" cy="40.55" r="3" fill="#1f77b4"/>
<circle cx="810.25" cy="40.45" r="3" fill="#1f77b4"/>
<circle cx="821.14" cy="40.21" r="3" fill="#1f77b4"/>
<circle cx="832.03" cy="40.24" r="3" fill="#1f77b4"/>
<circle cx="842.91" cy="40.08" r="3" fill="#1f77b4"/>
<circle cx="853.80" cy="40.70" r="3" fill="#1f77b4"/>
<circle cx="864.68" cy="41.18" r="3" fill="#1f77b4"/>
<circle cx="875.57" cy="41.02" r="3" fill="#1f77b4"/>
<circle cx="886.46" cy="41.50" r="3" fill="#1f77b4"/>
<circle cx="897.34" cy="42.14" r="3" fill="#1f77b4"/>
<circle cx="908.23" cy="42.38" r="3" fill="#1f77b4"/>
<circle cx="919.11" cy="76.12" r="3" fill="#1f77b4"/>
<circle cx="930.00" cy="74.40" r="3" fill="#1f77b4"/>
<polyline fill="none" stroke="#1f77b4" stroke-width="2" points="70.00,134.65 80.89,143.93 91.77,140.60 102.66,135.13 113.54,103.75 124.43,88.38 135.32,59.78 146.20,59.93 157.09,51.81 167.97,54.54 178.86,52.48 189.75,49.48 200.63,48.45 211.52,45.73 222.41,44.93 233.29,48.51 244.18,46.45 255.06,46.58 265.95,44.64 276.84,42.95 287.72,43.57 298.61,44.70 309.49,43.55 320.38,44.21 331.27,51.33 342.15,51.60 353.04,47.11 363.92,43.23 374.81,41.87 385.70,41.33 396.58,41.30 407.47,41.51 418.35,41.23 429.24,41.41 440.13,41.52 451.01,41.26 461.90,41.29 472.78,40.99 483.67,40.94 494.56,40.45 505.44,40.51 516.33,40.59 527.22,40.35 538.10,40.21 548.99,40.26 559.87,40.33 570.76,40.40 581.65,40.53 592.53,40.32 603.42,40.32 614.30,40.33 625.19,40.40 636.08,40.42 646.96,40.91 657.85,40.59 668.73,40.48 679.62,40.38 690.51,40.33 701.39,40.59 712.28,40.48 723.16,40.51 734.05,40.27 744.94,40.18 755.82,40.22 766.71,40.19 777.59,40.07 788.48,40.12 799.37,40.55 810.25,40.45 821.14,40.21 832.03,40.24 842.91,40.08 853.80,40.70 864.68,41.18 875.57,41.02 886.46,41.50 897.34,42.14 908.23,42.38 919.11,76.12 930.00,74.40"/>
<text x="710" y="58" font-size="12" font-family="Arial" fill="#1f77b4">Pure DQN</text>
<circle cx="70.00" cy="360.00" r="3" fill="#ff7f0e"/>
<circle cx="80.89" cy="300.46" r="3" fill="#ff7f0e"/>
<circle cx="91.77" cy="202.91" r="3" fill="#ff7f0e"/>
<circle cx="102.66" cy="112.74" r="3" fill="#ff7f0e"/>
<circle cx="113.54" cy="86.08" r="3" fill="#ff7f0e"/>
<circle cx="124.43" cy="78.10" r="3" fill="#ff7f0e"/>
<circle cx="135.32" cy="67.45" r="3" fill="#ff7f0e"/>
<circle cx="146.20" cy="63.49" r="3" fill="#ff7f0e"/>
<circle cx="157.09" cy="60.31" r="3" fill="#ff7f0e"/>
<circle cx="167.97" cy="59.10" r="3" fill="#ff7f0e"/>
<circle cx="178.86" cy="55.57" r="3" fill="#ff7f0e"/>
<circle cx="189.75" cy="63.58" r="3" fill="#ff7f0e"/>
<circle cx="200.63" cy="89.73" r="3" fill="#ff7f0e"/>
<circle cx="211.52" cy="72.53" r="3" fill="#ff7f0e"/>
<circle cx="222.41" cy="71.51" r="3" fill="#ff7f0e"/>
<circle cx="233.29" cy="68.59" r="3" fill="#ff7f0e"/>
<circle cx="244.18" cy="68.96" r="3" fill="#ff7f0e"/>
<circle cx="255.06" cy="60.00" r="3" fill="#ff7f0e"/>
<circle cx="265.95" cy="54.03" r="3" fill="#ff7f0e"/>
<circle cx="276.84" cy="53.23" r="3" fill="#ff7f0e"/>
<circle cx="287.72" cy="52.84" r="3" fill="#ff7f0e"/>
<circle cx="298.61" cy="52.02" r="3" fill="#ff7f0e"/>
<circle cx="309.49" cy="53.29" r="3" fill="#ff7f0e"/>
<circle cx="320.38" cy="50.77" r="3" fill="#ff7f0e"/>
<circle cx="331.27" cy="50.50" r="3" fill="#ff7f0e"/>
<circle cx="342.15" cy="50.10" r="3" fill="#ff7f0e"/>
<circle cx="353.04" cy="50.19" r="3" fill="#ff7f0e"/>
<circle cx="363.92" cy="49.56" r="3" fill="#ff7f0e"/>
<circle cx="374.81" cy="48.97" r="3" fill="#ff7f0e"/>
<circle cx="385.70" cy="49.91" r="3" fill="#ff7f0e"/>
<circle cx="396.58" cy="50.85" r="3" fill="#ff7f0e"/>
<circle cx="407.47" cy="50.06" r="3" fill="#ff7f0e"/>
<circle cx="418.35" cy="50.38" r="3" fill="#ff7f0e"/>
<circle cx="429.24" cy="50.27" r="3" fill="#ff7f0e"/>
<circle cx="440.13" cy="50.31" r="3" fill="#ff7f0e"/>
<circle cx="451.01" cy="49.62" r="3" fill="#ff7f0e"/>
<circle cx="461.90" cy="49.42" r="3" fill="#ff7f0e"/>
<circle cx="472.78" cy="49.15" r="3" fill="#ff7f0e"/>
<circle cx="483.67" cy="49.18" r="3" fill="#ff7f0e"/>
<circle cx="494.56" cy="49.18" r="3" fill="#ff7f0e"/>
<circle cx="505.44" cy="49.02" r="3" fill="#ff7f0e"/>
<circle cx="516.33" cy="49.08" r="3" fill="#ff7f0e"/>
<circle cx="527.22" cy="49.16" r="3" fill="#ff7f0e"/>
<circle cx="538.10" cy="48.82" r="3" fill="#ff7f0e"/>
<circle cx="548.99" cy="48.84" r="3" fill="#ff7f0e"/>
<circle cx="559.87" cy="49.73" r="3" fill="#ff7f0e"/>
<circle cx="570.76" cy="48.20" r="3" fill="#ff7f0e"/>
<circle cx="581.65" cy="49.06" r="3" fill="#ff7f0e"/>
<circle cx="592.53" cy="48.98" r="3" fill="#ff7f0e"/>
<circle cx="603.42" cy="48.10" r="3" fill="#ff7f0e"/>
<circle cx="614.30" cy="49.07" r="3" fill="#ff7f0e"/>
<circle cx="625.19" cy="48.65" r="3" fill="#ff7f0e"/>
<circle cx="636.08" cy="48.92" r="3" fill="#ff7f0e"/>
<circle cx="646.96" cy="48.70" r="3" fill="#ff7f0e"/>
<circle cx="657.85" cy="49.22" r="3" fill="#ff7f0e"/>
<circle cx="668.73" cy="56.30" r="3" fill="#ff7f0e"/>
<circle cx="679.62" cy="56.04" r="3" fill="#ff7f0e"/>
<circle cx="690.51" cy="91.71" r="3" fill="#ff7f0e"/>
<circle cx="701.39" cy="60.51" r="3" fill="#ff7f0e"/>
<circle cx="712.28" cy="59.64" r="3" fill="#ff7f0e"/>
<circle cx="723.16" cy="156.78" r="3" fill="#ff7f0e"/>
<circle cx="734.05" cy="157.82" r="3" fill="#ff7f0e"/>
<circle cx="744.94" cy="173.40" r="3" fill="#ff7f0e"/>
<circle cx="755.82" cy="233.58" r="3" fill="#ff7f0e"/>
<circle cx="766.71" cy="233.93" r="3" fill="#ff7f0e"/>
<circle cx="777.59" cy="217.54" r="3" fill="#ff7f0e"/>
<circle cx="788.48" cy="207.98" r="3" fill="#ff7f0e"/>
<circle cx="799.37" cy="203.84" r="3" fill="#ff7f0e"/>
<circle cx="810.25" cy="143.80" r="3" fill="#ff7f0e"/>
<circle cx="821.14" cy="159.31" r="3" fill="#ff7f0e"/>
<circle cx="832.03" cy="139.15" r="3" fill="#ff7f0e"/>
<circle cx="842.91" cy="149.66" r="3" fill="#ff7f0e"/>
<circle cx="853.80" cy="138.09" r="3" fill="#ff7f0e"/>
<circle cx="864.68" cy="174.89" r="3" fill="#ff7f0e"/>
<circle cx="875.57" cy="153.32" r="3" fill="#ff7f0e"/>
<circle cx="886.46" cy="218.57" r="3" fill="#ff7f0e"/>
<circle cx="897.34" cy="164.14" r="3" fill="#ff7f0e"/>
<circle cx="908.23" cy="158.02" r="3" fill="#ff7f0e"/>
<circle cx="919.11" cy="182.45" r="3" fill="#ff7f0e"/>
<circle cx="930.00" cy="216.76" r="3" fill="#ff7f0e"/>
<polyline fill="none" stroke="#ff7f0e" stroke-width="2" points="70.00,360.00 80.89,300.46 91.77,202.91 102.66,112.74 113.54,86.08 124.43,78.10 135.32,67.45 146.20,63.49 157.09,60.31 167.97,59.10 178.86,55.57 189.75,63.58 200.63,89.73 211.52,72.53 222.41,71.51 233.29,68.59 244.18,68.96 255.06,60.00 265.95,54.03 276.84,53.23 287.72,52.84 298.61,52.02 309.49,53.29 320.38,50.77 331.27,50.50 342.15,50.10 353.04,50.19 363.92,49.56 374.81,48.97 385.70,49.91 396.58,50.85 407.47,50.06 418.35,50.38 429.24,50.27 440.13,50.31 451.01,49.62 461.90,49.42 472.78,49.15 483.67,49.18 494.56,49.18 505.44,49.02 516.33,49.08 527.22,49.16 538.10,48.82 548.99,48.84 559.87,49.73 570.76,48.20 581.65,49.06 592.53,48.98 603.42,48.10 614.30,49.07 625.19,48.65 636.08,48.92 646.96,48.70 657.85,49.22 668.73,56.30 679.62,56.04 690.51,91.71 701.39,60.51 712.28,59.64 723.16,156.78 734.05,157.82 744.94,173.40 755.82,233.58 766.71,233.93 777.59,217.54 788.48,207.98 799.37,203.84 810.25,143.80 821.14,159.31 832.03,139.15 842.91,149.66 853.80,138.09 864.68,174.89 875.57,153.32 886.46,218.57 897.34,164.14 908.23,158.02 919.11,182.45 930.00,216.76"/>
<text x="710" y="76" font-size="12" font-family="Arial" fill="#ff7f0e">LLMMode + DQN</text>
<circle cx="70.00" cy="284.02" r="3" fill="#2ca02c"/>
<circle cx="80.89" cy="274.98" r="3" fill="#2ca02c"/>
<circle cx="91.77" cy="290.93" r="3" fill="#2ca02c"/>
<circle cx="102.66" cy="182.71" r="3" fill="#2ca02c"/>
<circle cx="113.54" cy="113.98" r="3" fill="#2ca02c"/>
<circle cx="124.43" cy="90.04" r="3" fill="#2ca02c"/>
<circle cx="135.32" cy="202.84" r="3" fill="#2ca02c"/>
<circle cx="146.20" cy="127.24" r="3" fill="#2ca02c"/>
<circle cx="157.09" cy="128.62" r="3" fill="#2ca02c"/>
<circle cx="167.97" cy="155.21" r="3" fill="#2ca02c"/>
<circle cx="178.86" cy="135.77" r="3" fill="#2ca02c"/>
<circle cx="189.75" cy="206.96" r="3" fill="#2ca02c"/>
<circle cx="200.63" cy="169.17" r="3" fill="#2ca02c"/>
<circle cx="211.52" cy="200.17" r="3" fill="#2ca02c"/>
<circle cx="222.41" cy="203.51" r="3" fill="#2ca02c"/>
<circle cx="233.29" cy="156.56" r="3" fill="#2ca02c"/>
<circle cx="244.18" cy="172.42" r="3" fill="#2ca02c"/>
<circle cx="255.06" cy="162.04" r="3" fill="#2ca02c"/>
<circle cx="265.95" cy="143.88" r="3" fill="#2ca02c"/>
<circle cx="276.84" cy="189.84" r="3" fill="#2ca02c"/>
<circle cx="287.72" cy="187.12" r="3" fill="#2ca02c"/>
<circle cx="298.61" cy="154.26" r="3" fill="#2ca02c"/>
<circle cx="309.49" cy="124.67" r="3" fill="#2ca02c"/>
<circle cx="320.38" cy="125.95" r="3" fill="#2ca02c"/>
<circle cx="331.27" cy="98.27" r="3" fill="#2ca02c"/>
<circle cx="342.15" cy="43.19" r="3" fill="#2ca02c"/>
<circle cx="353.04" cy="49.23" r="3" fill="#2ca02c"/>
<circle cx="363.92" cy="57.06" r="3" fill="#2ca02c"/>
<circle cx="374.81" cy="127.44" r="3" fill="#2ca02c"/>
<circle cx="385.70" cy="102.12" r="3" fill="#2ca02c"/>
<circle cx="396.58" cy="160.58" r="3" fill="#2ca02c"/>
<circle cx="407.47" cy="157.27" r="3" fill="#2ca02c"/>
<circle cx="418.35" cy="77.81" r="3" fill="#2ca02c"/>
<circle cx="429.24" cy="90.44" r="3" fill="#2ca02c"/>
<circle cx="440.13" cy="42.95" r="3" fill="#2ca02c"/>
<circle cx="451.01" cy="42.74" r="3" fill="#2ca02c"/>
<circle cx="461.90" cy="42.24" r="3" fill="#2ca02c"/>
<circle cx="472.78" cy="42.18" r="3" fill="#2ca02c"/>
<circle cx="483.67" cy="42.33" r="3" fill="#2ca02c"/>
<circle cx="494.56" cy="42.16" r="3" fill="#2ca02c"/>
<circle cx="505.44" cy="42.01" r="3" fill="#2ca02c"/>
<circle cx="516.33" cy="42.20" r="3" fill="#2ca02c"/>
<circle cx="527.22" cy="51.01" r="3" fill="#2ca02c"/>
<circle cx="538.10" cy="41.51" r="3" fill="#2ca02c"/>
<circle cx="548.99" cy="47.41" r="3" fill="#2ca02c"/>
<circle cx="559.87" cy="41.59" r="3" fill="#2ca02c"/>
<circle cx="570.76" cy="58.19" r="3" fill="#2ca02c"/>
<circle cx="581.65" cy="41.82" r="3" fill="#2ca02c"/>
<circle cx="592.53" cy="41.87" r="3" fill="#2ca02c"/>
<circle cx="603.42" cy="41.57" r="3" fill="#2ca02c"/>
<circle cx="614.30" cy="42.25" r="3" fill="#2ca02c"/>
<circle cx="625.19" cy="42.43" r="3" fill="#2ca02c"/>
<circle cx="636.08" cy="41.53" r="3" fill="#2ca02c"/>
<circle cx="646.96" cy="41.44" r="3" fill="#2ca02c"/>
<circle cx="657.85" cy="41.22" r="3" fill="#2ca02c"/>
<circle cx="668.73" cy="41.39" r="3" fill="#2ca02c"/>
<circle cx="679.62" cy="40.95" r="3" fill="#2ca02c"/>
<circle cx="690.51" cy="40.60" r="3" fill="#2ca02c"/>
<circle cx="701.39" cy="40.44" r="3" fill="#2ca02c"/>
<circle cx="712.28" cy="40.27" r="3" fill="#2ca02c"/>
<circle cx="723.16" cy="40.29" r="3" fill="#2ca02c"/>
<circle cx="734.05" cy="40.53" r="3" fill="#2ca02c"/>
<circle cx="744.94" cy="40.70" r="3" fill="#2ca02c"/>
<circle cx="755.82" cy="40.80" r="3" fill="#2ca02c"/>
<circle cx="766.71" cy="40.57" r="3" fill="#2ca02c"/>
<circle cx="777.59" cy="40.98" r="3" fill="#2ca02c"/>
<circle cx="788.48" cy="40.35" r="3" fill="#2ca02c"/>
<circle cx="799.37" cy="40.18" r="3" fill="#2ca02c"/>
<circle cx="810.25" cy="41.51" r="3" fill="#2ca02c"/>
<circle cx="821.14" cy="40.18" r="3" fill="#2ca02c"/>
<circle cx="832.03" cy="40.44" r="3" fill="#2ca02c"/>
<circle cx="842.91" cy="40.47" r="3" fill="#2ca02c"/>
<circle cx="853.80" cy="40.33" r="3" fill="#2ca02c"/>
<circle cx="864.68" cy="40.47" r="3" fill="#2ca02c"/>
<circle cx="875.57" cy="40.26" r="3" fill="#2ca02c"/>
<circle cx="886.46" cy="40.05" r="3" fill="#2ca02c"/>
<circle cx="897.34" cy="40.00" r="3" fill="#2ca02c"/>
<circle cx="908.23" cy="40.06" r="3" fill="#2ca02c"/>
<circle cx="919.11" cy="40.09" r="3" fill="#2ca02c"/>
<circle cx="930.00" cy="40.07" r="3" fill="#2ca02c"/>
<polyline fill="none" stroke="#2ca02c" stroke-width="2" points="70.00,284.02 80.89,274.98 91.77,290.93 102.66,182.71 113.54,113.98 124.43,90.04 135.32,202.84 146.20,127.24 157.09,128.62 167.97,155.21 178.86,135.77 189.75,206.96 200.63,169.17 211.52,200.17 222.41,203.51 233.29,156.56 244.18,172.42 255.06,162.04 265.95,143.88 276.84,189.84 287.72,187.12 298.61,154.26 309.49,124.67 320.38,125.95 331.27,98.27 342.15,43.19 353.04,49.23 363.92,57.06 374.81,127.44 385.70,102.12 396.58,160.58 407.47,157.27 418.35,77.81 429.24,90.44 440.13,42.95 451.01,42.74 461.90,42.24 472.78,42.18 483.67,42.33 494.56,42.16 505.44,42.01 516.33,42.20 527.22,51.01 538.10,41.51 548.99,47.41 559.87,41.59 570.76,58.19 581.65,41.82 592.53,41.87 603.42,41.57 614.30,42.25 625.19,42.43 636.08,41.53 646.96,41.44 657.85,41.22 668.73,41.39 679.62,40.95 690.51,40.60 701.39,40.44 712.28,40.27 723.16,40.29 734.05,40.53 744.94,40.70 755.82,40.80 766.71,40.57 777.59,40.98 788.48,40.35 799.37,40.18 810.25,41.51 821.14,40.18 832.03,40.44 842.91,40.47 853.80,40.33 864.68,40.47 875.57,40.26 886.46,40.05 897.34,40.00 908.23,40.06 919.11,40.09 930.00,40.07"/>
<text x="710" y="94" font-size="12" font-family="Arial" fill="#2ca02c">RuleMode + DQN</text>
</svg>