<svg xmlns="http://www.w3.org/2000/svg" width="960" height="420">
<rect width="100%" height="100%" fill="white"/>
<text x="70" y="24" font-size="18" font-family="Arial">Total Reward Trend</text>
<line x1="70" y1="360" x2="930" y2="360" stroke="#333"/>
<line x1="70" y1="40" x2="70" y2="360" stroke="#333"/>
<line x1="70" y1="360.0" x2="930" y2="360.0" stroke="#ddd"/>
<text x="8" y="364.0" font-size="12" font-family="Arial">-4481322.35</text>
<line x1="70" y1="280.0" x2="930" y2="280.0" stroke="#ddd"/>
<text x="8" y="284.0" font-size="12" font-family="Arial">-3436476.31</text>
<line x1="70" y1="200.0" x2="930" y2="200.0" stroke="#ddd"/>
<text x="8" y="204.0" font-size="12" font-family="Arial">-2391630.28</text>
<line x1="70" y1="120.0" x2="930" y2="120.0" stroke="#ddd"/>
<text x="8" y="124.0" font-size="12" font-family="Arial">-1346784.24</text>
<line x1="70" y1="40.0" x2="930" y2="40.0" stroke="#ddd"/>
<text x="8" y="44.0" font-size="12" font-family="Arial">-301938.20</text>
<circle cx="70.00" cy="357.88" r="3" fill="#1f77b4"/>
<circle cx="84.58" cy="288.21" r="3" fill="#1f77b4"/>
<circle cx="99.15" cy="244.06" r="3" fill="#1f77b4"/>
<circle cx="113.73" cy="205.70" r="3" fill="#1f77b4"/>
<circle cx="128.31" cy="228.33" r="3" fill="#1f77b4"/>
<circle cx="142.88" cy="184.69" r="3" fill="#1f77b4"/>
<circle cx="157.46" cy="269.54" r="3" fill="#1f77b4"/>
<circle cx="172.03" cy="104.94" r="3" fill="#1f77b4"/>
<circle cx="186.61" cy="106.01" r="3" fill="#1f77b4"/>
<circle cx="201.19" cy="136.20" r="3" fill="#1f77b4"/>
<circle cx="215.76" cy="161.03" r="3" fill="#1f77b4"/>
<circle cx="230.34" cy="122.78" r="3" fill="#1f77b4"/>
<circle cx="244.92" cy="84.58" r="3" fill="#1f77b4"/>
<circle cx="259.49" cy="84.52" r="3" fill="#1f77b4"/>
<circle cx="274.07" cy="175.89" r="3" fill="#1f77b4"/>
<circle cx="288.64" cy="180.69" r="3" fill="#1f77b4"/>
<circle cx="303.22" cy="75.63" r="3" fill="#1f77b4"/>
<circle cx="317.80" cy="70.24" r="3" fill="#1f77b4"/>
<circle cx="332.37" cy="102.57" r="3" fill="#1f77b4"/>
<circle cx="346.95" cy="66.31" r="3" fill="#1f77b4"/>
<circle cx="361.53" cy="61.80" r="3" fill="#1f77b4"/>
<circle cx="376.10" cy="55.33" r="3" fill="#1f77b4"/>
<circle cx="390.68" cy="54.00" r="3" fill="#1f77b4"/>
<circle cx="405.25" cy="61.58" r="3" fill="#1f77b4"/>
<circle cx="419.83" cy="53.77" r="3" fill="#1f77b4"/>
<circle cx="434.41" cy="58.85" r="3" fill="#1f77b4"/>
<circle cx="448.98" cy="53.09" r="3" fill="#1f77b4"/>
<circle cx="463.56" cy="51.23" r="3" fill="#1f77b4"/>
<circle cx="478.14" cy="52.16" r="3" fill="#1f77b4"/>
<circle cx="492.71" cy="52.57" r="3" fill="#1f77b4"/>
<circle cx="507.29" cy="49.58" r="3" fill="#1f77b4"/>
<circle cx="521.86" cy="52.58" r="3" fill="#1f77b4"/>
<circle cx="536.44" cy="54.72" r="3" fill="#1f77b4"/>
<circle cx="551.02" cy="54.58" r="3" fill="#1f77b4"/>
<circle cx="565.59" cy="55.90" r="3" fill="#1f77b4"/>
<circle cx="580.17" cy="51.63" r="3" fill="#1f77b4"/>
<circle cx="594.75" cy="53.15" r="3" fill="#1f77b4"/>
<circle cx="609.32" cy="51.72" r="3" fill="#1f77b4"/>
<circle cx="623.90" cy="49.37" r="3" fill="#1f77b4"/>
<circle cx="638.47" cy="51.33" r="3" fill="#1f77b4"/>
<circle cx="653.05" cy="53.10" r="3" fill="#1f77b4"/>
<circle cx="667.63" cy="54.62" r="3" fill="#1f77b4"/>
<circle cx="682.20" cy="51.46" r="3" fill="#1f77b4"/>
<circle cx="696.78" cy="51.50" r="3" fill="#1f77b4"/>
<circle cx="711.36" cy="50.84" r="3" fill="#1f77b4"/>
<circle cx="725.93" cy="50.60" r="3" fill="#1f77b4"/>
<circle cx="740.51" cy="52.73" r="3" fill="#1f77b4"/>
<circle cx="755.08" cy="53.54" r="3" fill="#1f77b4"/>
<circle cx="769.66" cy="63.27" r="3" fill="#1f77b4"/>
<circle cx="784.24" cy="94.39" r="3" fill="#1f77b4"/>
<circle cx="798.81" cy="116.76" r="3" fill="#1f77b4"/>
<circle cx="813.39" cy="105.74" r="3" fill="#1f77b4"/>
<circle cx="827.97" cy="128.81" r="3" fill="#1f77b4"/>
<circle cx="842.54" cy="133.05" r="3" fill="#1f77b4"/>
<circle cx="857.12" cy="75.99" r="3" fill="#1f77b4"/>
<circle cx="871.69" cy="60.47" r="3" fill="#1f77b4"/>
<circle cx="886.27" cy="87.99" r="3" fill="#1f77b4"/>
<circle cx="900.85" cy="70.02" r="3" fill="#1f77b4"/>
<circle cx="915.42" cy="86.80" r="3" fill="#1f77b4"/>
<circle cx="930.00" cy="105.30" r="3" fill="#1f77b4"/>
<polyline fill="none" stroke="#1f77b4" stroke-width="2" points="70.00,357.88 84.58,288.21 99.15,244.06 113.73,205.70 128.31,228.33 142.88,184.69 157.46,269.54 172.03,104.94 186.61,106.01 201.19,136.20 215.76,161.03 230.34,122.78 244.92,84.58 259.49,84.52 274.07,175.89 288.64,180.69 303.22,75.63 317.80,70.24 332.37,102.57 346.95,66.31 361.53,61.80 376.10,55.33 390.68,54.00 405.25,61.58 419.83,53.77 434.41,58.85 448.98,53.09 463.56,51.23 478.14,52.16 492.71,52.57 507.29,49.58 521.86,52.58 536.44,54.72 551.02,54.58 565.59,55.90 580.17,51.63 594.75,53.15 609.32,51.72 623.90,49.37 638.47,51.33 653.05,53.10 667.63,54.62 682.20,51.46 696.78,51.50 711.36,50.84 725.93,50.60 740.51,52.73 755.08,53.54 769.66,63.27 784.24,94.39 798.81,116.76 813.39,105.74 827.97,128.81 842.54,133.05 857.12,75.99 871.69,60.47 886.27,87.99 900.85,70.02 915.42,86.80 930.00,105.30"/>
<text x="710" y="58" font-size="12" font-family="Arial" fill="#1f77b4">LLMMode + DQN</text>
<circle cx="70.00" cy="360.00" r="3" fill="#ff7f0e"/>
<circle cx="84.58" cy="278.17" r="3" fill="#ff7f0e"/>
<circle cx="99.15" cy="258.15" r="3" fill="#ff7f0e"/>
<circle cx="113.73" cy="233.46" r="3" fill="#ff7f0e"/>
<circle cx="128.31" cy="122.96" r="3" fill="#ff7f0e"/>
<circle cx="142.88" cy="256.85" r="3" fill="#ff7f0e"/>
<circle cx="157.46" cy="238.46" r="3" fill="#ff7f0e"/>
<circle cx="172.03" cy="178.29" r="3" fill="#ff7f0e"/>
<circle cx="186.61" cy="121.10" r="3" fill="#ff7f0e"/>
<circle cx="201.19" cy="179.50" r="3" fill="#ff7f0e"/>
<circle cx="215.76" cy="84.15" r="3" fill="#ff7f0e"/>
<circle cx="230.34" cy="151.75" r="3" fill="#ff7f0e"/>
<circle cx="244.92" cy="182.54" r="3" fill="#ff7f0e"/>
<circle cx="259.49" cy="212.03" r="3" fill="#ff7f0e"/>
<circle cx="274.07" cy="231.51" r="3" fill="#ff7f0e"/>
<circle cx="288.64" cy="208.68" r="3" fill="#ff7f0e"/>
<circle cx="303.22" cy="203.43" r="3" fill="#ff7f0e"/>
<circle cx="317.80" cy="176.34" r="3" fill="#ff7f0e"/>
<circle cx="332.37" cy="228.61" r="3" fill="#ff7f0e"/>
<circle cx="346.95" cy="205.25" r="3" fill="#ff7f0e"/>
<circle cx="361.53" cy="208.05" r="3" fill="#ff7f0e"/>
<circle cx="376.10" cy="215.38" r="3" fill="#ff7f0e"/>
<circle cx="390.68" cy="202.03" r="3" fill="#ff7f0e"/>
<circle cx="405.25" cy="202.81" r="3" fill="#ff7f0e"/>
<circle cx="419.83" cy="151.47" r="3" fill="#ff7f0e"/>
<circle cx="434.41" cy="143.53" r="3" fill="#ff7f0e"/>
<circle cx="448.98" cy="208.12" r="3" fill="#ff7f0e"/>
<circle cx="463.56" cy="164.52" r="3" fill="#ff7f0e"/>
<circle cx="478.14" cy="137.17" r="3" fill="#ff7f0e"/>
<circle cx="492.71" cy="139.72" r="3" fill="#ff7f0e"/>
<circle cx="507.29" cy="133.59" r="3" fill="#ff7f0e"/>
<circle cx="521.86" cy="121.15" r="3" fill="#ff7f0e"/>
<circle cx="536.44" cy="133.31" r="3" fill="#ff7f0e"/>
<circle cx="551.02" cy="139.94" r="3" fill="#ff7f0e"/>
<circle cx="565.59" cy="127.47" r="3" fill="#ff7f0e"/>
<circle cx="580.17" cy="104.87" r="3" fill="#ff7f0e"/>
<circle cx="594.75" cy="64.75" r="3" fill="#ff7f0e"/>
<circle cx="609.32" cy="66.58" r="3" fill="#ff7f0e"/>
<circle cx="623.90" cy="69.76" r="3" fill="#ff7f0e"/>
<circle cx="638.47" cy="57.12" r="3" fill="#ff7f0e"/>
<circle cx="653.05" cy="57.46" r="3" fill="#ff7f0e"/>
<circle cx="667.63" cy="63.71" r="3" fill="#ff7f0e"/>
<circle cx="682.20" cy="53.90" r="3" fill="#ff7f0e"/>
<circle cx="696.78" cy="92.43" r="3" fill="#ff7f0e"/>
<circle cx="711.36" cy="58.95" r="3" fill="#ff7f0e"/>
<circle cx="725.93" cy="55.62" r="3" fill="#ff7f0e"/>
<circle cx="740.51" cy="54.72" r="3" fill="#ff7f0e"/>
<circle cx="755.08" cy="50.82" r="3" fill="#ff7f0e"/>
<circle cx="769.66" cy="53.48" r="3" fill="#ff7f0e"/>
<circle cx="784.24" cy="47.30" r="3" fill="#ff7f0e"/>
<circle cx="798.81" cy="48.66" r="3" fill="#ff7f0e"/>
<circle cx="813.39" cy="59.03" r="3" fill="#ff7f0e"/>
<circle cx="827.97" cy="93.54" r="3" fill="#ff7f0e"/>
<circle cx="842.54" cy="91.63" r="3" fill="#ff7f0e"/>
<circle cx="857.12" cy="45.92" r="3" fill="#ff7f0e"/>
<circle cx="871.69" cy="48.09" r="3" fill="#ff7f0e"/>
<circle cx="886.27" cy="54.44" r="3" fill="#ff7f0e"/>
<circle cx="900.85" cy="43.26" r="3" fill="#ff7f0e"/>
<circle cx="915.42" cy="43.43" r="3" fill="#ff7f0e"/>
<circle cx="930.00" cy="43.73" r="3" fill="#ff7f0e"/>
<polyline fill="none" stroke="#ff7f0e" stroke-width="2" points="70.00,360.00 84.58,278.17 99.15,258.15 113.73,233.46 128.31,122.96 142.88,256.85 157.46,238.46 172.03,178.29 186.61,121.10 201.19,179.50 215.76,84.15 230.34,151.75 244.92,182.54 259.49,212.03 274.07,231.51 288.64,208.68 303.22,203.43 317.80,176.34 332.37,228.61 346.95,205.25 361.53,208.05 376.10,215.38 390.68,202.03 405.25,202.81 419.83,151.47 434.41,143.53 448.98,208.12 463.56,164.52 478.14,137.17 492.71,139.72 507.29,133.59 521.86,121.15 536.44,133.31 551.02,139.94 565.59,127.47 580.17,104.87 594.75,64.75 609.32,66.58 623.90,69.76 638.47,57.12 653.05,57.46 667.63,63.71 682.20,53.90 696.78,92.43 711.36,58.95 725.93,55.62 740.51,54.72 755.08,50.82 769.66,53.48 784.24,47.30 798.81,48.66 813.39,59.03 827.97,93.54 842.54,91.63 857.12,45.92 871.69,48.09 886.27,54.44 900.85,43.26 915.42,43.43 930.00,43.73"/>
<text x="710" y="76" font-size="12" font-family="Arial" fill="#ff7f0e">LLMMode + DQN</text>
<circle cx="70.00" cy="310.90" r="3" fill="#2ca02c"/>
<circle cx="84.58" cy="355.35" r="3" fill="#2ca02c"/>
<circle cx="99.15" cy="299.45" r="3" fill="#2ca02c"/>
<circle cx="113.73" cy="163.30" r="3" fill="#2ca02c"/>
<circle cx="128.31" cy="162.44" r="3" fill="#2ca02c"/>
<circle cx="142.88" cy="83.90" r="3" fill="#2ca02c"/>
<circle cx="157.46" cy="128.26" r="3" fill="#2ca02c"/>
<circle cx="172.03" cy="144.89" r="3" fill="#2ca02c"/>
<circle cx="186.61" cy="184.26" r="3" fill="#2ca02c"/>
<circle cx="201.19" cy="183.53" r="3" fill="#2ca02c"/>
<circle cx="215.76" cy="159.43" r="3" fill="#2ca02c"/>
<circle cx="230.34" cy="141.77" r="3" fill="#2ca02c"/>
<circle cx="244.92" cy="81.48" r="3" fill="#2ca02c"/>
<circle cx="259.49" cy="87.47" r="3" fill="#2ca02c"/>
<circle cx="274.07" cy="72.35" r="3" fill="#2ca02c"/>
<circle cx="288.64" cy="94.83" r="3" fill="#2ca02c"/>
<circle cx="303.22" cy="136.37" r="3" fill="#2ca02c"/>
<circle cx="317.80" cy="159.33" r="3" fill="#2ca02c"/>
<circle cx="332.37" cy="207.08" r="3" fill="#2ca02c"/>
<circle cx="346.95" cy="198.67" r="3" fill="#2ca02c"/>
<circle cx="361.53" cy="178.63" r="3" fill="#2ca02c"/>
<circle cx="376.10" cy="177.11" r="3" fill="#2ca02c"/>
<circle cx="390.68" cy="190.81" r="3" fill="#2ca02c"/>
<circle cx="405.25" cy="139.01" r="3" fill="#2ca02c"/>
<circle cx="419.83" cy="200.92" r="3" fill="#2ca02c"/>
<circle cx="434.41" cy="193.94" r="3" fill="#2ca02c"/>
<circle cx="448.98" cy="168.02" r="3" fill="#2ca02c"/>
<circle cx="463.56" cy="82.66" r="3" fill="#2ca02c"/>
<circle cx="478.14" cy="41.83" r="3" fill="#2ca02c"/>
<circle cx="492.71" cy="46.34" r="3" fill="#2ca02c"/>
<circle cx="507.29" cy="51.82" r="3" fill="#2ca02c"/>
<circle cx="521.86" cy="46.41" r="3" fill="#2ca02c"/>
<circle cx="536.44" cy="40.07" r="3" fill="#2ca02c"/>
<circle cx="551.02" cy="40.95" r="3" fill="#2ca02c"/>
<circle cx="565.59" cy="41.39" r="3" fill="#2ca02c"/>
<circle cx="580.17" cy="43.22" r="3" fill="#2ca02c"/>
<circle cx="594.75" cy="104.83" r="3" fill="#2ca02c"/>
<circle cx="609.32" cy="40.00" r="3" fill="#2ca02c"/>
<circle cx="623.90" cy="41.46" r="3" fill="#2ca02c"/>
<circle cx="638.47" cy="40.79" r="3" fill="#2ca02c"/>
<circle cx="653.05" cy="40.33" r="3" fill="#2ca02c"/>
<polyline fill="none" stroke="#2ca02c" stroke-width="2" points="70.00,310.90 84.58,355.35 99.15,299.45 113.73,163.30 128.31,162.44 142.88,83.90 157.46,128.26 172.03,144.89 186.61,184.26 201.19,183.53 215.76,159.43 230.34,141.77 244.92,81.48 259.49,87.47 274.07,72.35 288.64,94.83 303.22,136.37 317.80,159.33 332.37,207.08 346.95,198.67 361.53,178.63 376.10,177.11 390.68,190.81 405.25,139.01 419.83,200.92 434.41,193.94 448.98,168.02 463.56,82.66 478.14,41.83 492.71,46.34 507.29,51.82 521.86,46.41 536.44,40.07 551.02,40.95 565.59,41.39 580.17,43.22 594.75,104.83 609.32,40.00 623.90,41.46 638.47,40.79 653.05,40.33"/>
<text x="710" y="94" font-size="12" font-family="Arial" fill="#2ca02c">LLMMode + DQN</text>
</svg>