<svg xmlns="http://www.w3.org/2000/svg" width="960" height="420">
<rect width="100%" height="100%" fill="white"/>
<text x="70" y="24" font-size="18" font-family="Arial">Total Reward Trend</text>
<line x1="70" y1="360" x2="930" y2="360" stroke="#333"/>
<line x1="70" y1="40" x2="70" y2="360" stroke="#333"/>
<line x1="70" y1="360.0" x2="930" y2="360.0" stroke="#ddd"/>
<text x="8" y="364.0" font-size="12" font-family="Arial">-1406722.75</text>
<line x1="70" y1="280.0" x2="930" y2="280.0" stroke="#ddd"/>
<text x="8" y="284.0" font-size="12" font-family="Arial">-1072288.00</text>
<line x1="70" y1="200.0" x2="930" y2="200.0" stroke="#ddd"/>
<text x="8" y="204.0" font-size="12" font-family="Arial">-737853.25</text>
<line x1="70" y1="120.0" x2="930" y2="120.0" stroke="#ddd"/>
<text x="8" y="124.0" font-size="12" font-family="Arial">-403418.50</text>
<line x1="70" y1="40.0" x2="930" y2="40.0" stroke="#ddd"/>
<text x="8" y="44.0" font-size="12" font-family="Arial">-68983.75</text>
<circle cx="70.00" cy="292.29" r="3" fill="#1f77b4"/>
<circle cx="80.89" cy="288.89" r="3" fill="#1f77b4"/>
<circle cx="91.77" cy="285.39" r="3" fill="#1f77b4"/>
<circle cx="102.66" cy="250.21" r="3" fill="#1f77b4"/>
<circle cx="113.54" cy="235.09" r="3" fill="#1f77b4"/>
<circle cx="124.43" cy="204.66" r="3" fill="#1f77b4"/>
<circle cx="135.32" cy="101.87" r="3" fill="#1f77b4"/>
<circle cx="146.20" cy="84.79" r="3" fill="#1f77b4"/>
<circle cx="157.09" cy="92.30" r="3" fill="#1f77b4"/>
<circle cx="167.97" cy="88.94" r="3" fill="#1f77b4"/>
<circle cx="178.86" cy="105.16" r="3" fill="#1f77b4"/>
<circle cx="189.75" cy="97.95" r="3" fill="#1f77b4"/>
<circle cx="200.63" cy="95.07" r="3" fill="#1f77b4"/>
<circle cx="211.52" cy="115.00" r="3" fill="#1f77b4"/>
<circle cx="222.41" cy="110.47" r="3" fill="#1f77b4"/>
<circle cx="233.29" cy="92.33" r="3" fill="#1f77b4"/>
<circle cx="244.18" cy="74.59" r="3" fill="#1f77b4"/>
<circle cx="255.06" cy="71.44" r="3" fill="#1f77b4"/>
<circle cx="265.95" cy="68.84" r="3" fill="#1f77b4"/>
<circle cx="276.84" cy="63.02" r="3" fill="#1f77b4"/>
<circle cx="287.72" cy="64.75" r="3" fill="#1f77b4"/>
<circle cx="298.61" cy="52.61" r="3" fill="#1f77b4"/>
<circle cx="309.49" cy="50.90" r="3" fill="#1f77b4"/>
<circle cx="320.38" cy="45.05" r="3" fill="#1f77b4"/>
<circle cx="331.27" cy="42.79" r="3" fill="#1f77b4"/>
<circle cx="342.15" cy="43.53" r="3" fill="#1f77b4"/>
<circle cx="353.04" cy="43.31" r="3" fill="#1f77b4"/>
<circle cx="363.92" cy="44.97" r="3" fill="#1f77b4"/>
<circle cx="374.81" cy="41.47" r="3" fill="#1f77b4"/>
<circle cx="385.70" cy="41.59" r="3" fill="#1f77b4"/>
<circle cx="396.58" cy="41.71" r="3" fill="#1f77b4"/>
<circle cx="407.47" cy="41.40" r="3" fill="#1f77b4"/>
<circle cx="418.35" cy="40.63" r="3" fill="#1f77b4"/>
<circle cx="429.24" cy="40.66" r="3" fill="#1f77b4"/>
<circle cx="440.13" cy="40.14" r="3" fill="#1f77b4"/>
<circle cx="451.01" cy="42.71" r="3" fill="#1f77b4"/>
<circle cx="461.90" cy="42.07" r="3" fill="#1f77b4"/>
<circle cx="472.78" cy="43.87" r="3" fill="#1f77b4"/>
<circle cx="483.67" cy="43.07" r="3" fill="#1f77b4"/>
<circle cx="494.56" cy="43.36" r="3" fill="#1f77b4"/>
<circle cx="505.44" cy="42.40" r="3" fill="#1f77b4"/>
<circle cx="516.33" cy="42.84" r="3" fill="#1f77b4"/>
<circle cx="527.22" cy="42.34" r="3" fill="#1f77b4"/>
<circle cx="538.10" cy="41.99" r="3" fill="#1f77b4"/>
<circle cx="548.99" cy="41.50" r="3" fill="#1f77b4"/>
<circle cx="559.87" cy="42.37" r="3" fill="#1f77b4"/>
<circle cx="570.76" cy="41.94" r="3" fill="#1f77b4"/>
<circle cx="581.65" cy="41.67" r="3" fill="#1f77b4"/>
<circle cx="592.53" cy="42.01" r="3" fill="#1f77b4"/>
<circle cx="603.42" cy="42.19" r="3" fill="#1f77b4"/>
<circle cx="614.30" cy="43.43" r="3" fill="#1f77b4"/>
<circle cx="625.19" cy="44.08" r="3" fill="#1f77b4"/>
<circle cx="636.08" cy="44.26" r="3" fill="#1f77b4"/>
<circle cx="646.96" cy="43.05" r="3" fill="#1f77b4"/>
<circle cx="657.85" cy="43.46" r="3" fill="#1f77b4"/>
<circle cx="668.73" cy="46.23" r="3" fill="#1f77b4"/>
<circle cx="679.62" cy="45.53" r="3" fill="#1f77b4"/>
<circle cx="690.51" cy="43.85" r="3" fill="#1f77b4"/>
<circle cx="701.39" cy="42.60" r="3" fill="#1f77b4"/>
<circle cx="712.28" cy="43.37" r="3" fill="#1f77b4"/>
<circle cx="723.16" cy="43.08" r="3" fill="#1f77b4"/>
<circle cx="734.05" cy="43.22" r="3" fill="#1f77b4"/>
<circle cx="744.94" cy="44.10" r="3" fill="#1f77b4"/>
<circle cx="755.82" cy="45.95" r="3" fill="#1f77b4"/>
<circle cx="766.71" cy="43.14" r="3" fill="#1f77b4"/>
<circle cx="777.59" cy="41.81" r="3" fill="#1f77b4"/>
<circle cx="788.48" cy="42.06" r="3" fill="#1f77b4"/>
<circle cx="799.37" cy="43.41" r="3" fill="#1f77b4"/>
<circle cx="810.25" cy="41.63" r="3" fill="#1f77b4"/>
<circle cx="821.14" cy="43.20" r="3" fill="#1f77b4"/>
<circle cx="832.03" cy="43.88" r="3" fill="#1f77b4"/>
<circle cx="842.91" cy="42.71" r="3" fill="#1f77b4"/>
<circle cx="853.80" cy="42.14" r="3" fill="#1f77b4"/>
<circle cx="864.68" cy="41.20" r="3" fill="#1f77b4"/>
<circle cx="875.57" cy="42.34" r="3" fill="#1f77b4"/>
<circle cx="886.46" cy="42.87" r="3" fill="#1f77b4"/>
<circle cx="897.34" cy="41.29" r="3" fill="#1f77b4"/>
<circle cx="908.23" cy="41.31" r="3" fill="#1f77b4"/>
<circle cx="919.11" cy="40.82" r="3" fill="#1f77b4"/>
<circle cx="930.00" cy="40.85" r="3" fill="#1f77b4"/>
<polyline fill="none" stroke="#1f77b4" stroke-width="2" points="70.00,292.29 80.89,288.89 91.77,285.39 102.66,250.21 113.54,235.09 124.43,204.66 135.32,101.87 146.20,84.79 157.09,92.30 167.97,88.94 178.86,105.16 189.75,97.95 200.63,95.07 211.52,115.00 222.41,110.47 233.29,92.33 244.18,74.59 255.06,71.44 265.95,68.84 276.84,63.02 287.72,64.75 298.61,52.61 309.49,50.90 320.38,45.05 331.27,42.79 342.15,43.53 353.04,43.31 363.92,44.97 374.81,41.47 385.70,41.59 396.58,41.71 407.47,41.40 418.35,40.63 429.24,40.66 440.13,40.14 451.01,42.71 461.90,42.07 472.78,43.87 483.67,43.07 494.56,43.36 505.44,42.40 516.33,42.84 527.22,42.34 538.10,41.99 548.99,41.50 559.87,42.37 570.76,41.94 581.65,41.67 592.53,42.01 603.42,42.19 614.30,43.43 625.19,44.08 636.08,44.26 646.96,43.05 657.85,43.46 668.73,46.23 679.62,45.53 690.51,43.85 701.39,42.60 712.28,43.37 723.16,43.08 734.05,43.22 744.94,44.10 755.82,45.95 766.71,43.14 777.59,41.81 788.48,42.06 799.37,43.41 810.25,41.63 821.14,43.20 832.03,43.88 842.91,42.71 853.80,42.14 864.68,41.20 875.57,42.34 886.46,42.87 897.34,41.29 908.23,41.31 919.11,40.82 930.00,40.85"/>
<text x="710" y="58" font-size="12" font-family="Arial" fill="#1f77b4">LLMMode + DQN</text>
<circle cx="70.00" cy="293.01" r="3" fill="#ff7f0e"/>
<circle cx="80.89" cy="288.86" r="3" fill="#ff7f0e"/>
<circle cx="91.77" cy="282.52" r="3" fill="#ff7f0e"/>
<circle cx="102.66" cy="252.66" r="3" fill="#ff7f0e"/>
<circle cx="113.54" cy="235.47" r="3" fill="#ff7f0e"/>
<circle cx="124.43" cy="177.28" r="3" fill="#ff7f0e"/>
<circle cx="135.32" cy="234.36" r="3" fill="#ff7f0e"/>
<circle cx="146.20" cy="290.57" r="3" fill="#ff7f0e"/>
<circle cx="157.09" cy="337.83" r="3" fill="#ff7f0e"/>
<circle cx="167.97" cy="199.22" r="3" fill="#ff7f0e"/>
<circle cx="178.86" cy="185.01" r="3" fill="#ff7f0e"/>
<circle cx="189.75" cy="198.90" r="3" fill="#ff7f0e"/>
<circle cx="200.63" cy="226.17" r="3" fill="#ff7f0e"/>
<circle cx="211.52" cy="210.86" r="3" fill="#ff7f0e"/>
<circle cx="222.41" cy="143.91" r="3" fill="#ff7f0e"/>
<circle cx="233.29" cy="123.37" r="3" fill="#ff7f0e"/>
<circle cx="244.18" cy="110.29" r="3" fill="#ff7f0e"/>
<circle cx="255.06" cy="101.96" r="3" fill="#ff7f0e"/>
<circle cx="265.95" cy="89.27" r="3" fill="#ff7f0e"/>
<circle cx="276.84" cy="77.11" r="3" fill="#ff7f0e"/>
<circle cx="287.72" cy="71.26" r="3" fill="#ff7f0e"/>
<circle cx="298.61" cy="61.94" r="3" fill="#ff7f0e"/>
<circle cx="309.49" cy="56.90" r="3" fill="#ff7f0e"/>
<circle cx="320.38" cy="53.95" r="3" fill="#ff7f0e"/>
<circle cx="331.27" cy="50.37" r="3" fill="#ff7f0e"/>
<circle cx="342.15" cy="49.04" r="3" fill="#ff7f0e"/>
<circle cx="353.04" cy="49.80" r="3" fill="#ff7f0e"/>
<circle cx="363.92" cy="51.07" r="3" fill="#ff7f0e"/>
<circle cx="374.81" cy="51.52" r="3" fill="#ff7f0e"/>
<circle cx="385.70" cy="51.22" r="3" fill="#ff7f0e"/>
<circle cx="396.58" cy="55.26" r="3" fill="#ff7f0e"/>
<circle cx="407.47" cy="52.56" r="3" fill="#ff7f0e"/>
<circle cx="418.35" cy="52.22" r="3" fill="#ff7f0e"/>
<circle cx="429.24" cy="49.52" r="3" fill="#ff7f0e"/>
<circle cx="440.13" cy="48.61" r="3" fill="#ff7f0e"/>
<circle cx="451.01" cy="48.35" r="3" fill="#ff7f0e"/>
<circle cx="461.90" cy="49.78" r="3" fill="#ff7f0e"/>
<circle cx="472.78" cy="50.06" r="3" fill="#ff7f0e"/>
<circle cx="483.67" cy="48.04" r="3" fill="#ff7f0e"/>
<circle cx="494.56" cy="47.25" r="3" fill="#ff7f0e"/>
<circle cx="505.44" cy="47.54" r="3" fill="#ff7f0e"/>
<circle cx="516.33" cy="49.40" r="3" fill="#ff7f0e"/>
<circle cx="527.22" cy="49.98" r="3" fill="#ff7f0e"/>
<circle cx="538.10" cy="51.95" r="3" fill="#ff7f0e"/>
<circle cx="548.99" cy="53.15" r="3" fill="#ff7f0e"/>
<circle cx="559.87" cy="53.59" r="3" fill="#ff7f0e"/>
<circle cx="570.76" cy="49.14" r="3" fill="#ff7f0e"/>
<circle cx="581.65" cy="47.02" r="3" fill="#ff7f0e"/>
<circle cx="592.53" cy="46.28" r="3" fill="#ff7f0e"/>
<circle cx="603.42" cy="46.25" r="3" fill="#ff7f0e"/>
<circle cx="614.30" cy="46.76" r="3" fill="#ff7f0e"/>
<circle cx="625.19" cy="46.50" r="3" fill="#ff7f0e"/>
<circle cx="636.08" cy="47.03" r="3" fill="#ff7f0e"/>
<circle cx="646.96" cy="47.18" r="3" fill="#ff7f0e"/>
<circle cx="657.85" cy="47.10" r="3" fill="#ff7f0e"/>
<circle cx="668.73" cy="46.55" r="3" fill="#ff7f0e"/>
<circle cx="679.62" cy="46.19" r="3" fill="#ff7f0e"/>
<circle cx="690.51" cy="46.61" r="3" fill="#ff7f0e"/>
<circle cx="701.39" cy="47.72" r="3" fill="#ff7f0e"/>
<circle cx="712.28" cy="47.91" r="3" fill="#ff7f0e"/>
<circle cx="723.16" cy="48.44" r="3" fill="#ff7f0e"/>
<circle cx="734.05" cy="92.83" r="3" fill="#ff7f0e"/>
<circle cx="744.94" cy="91.88" r="3" fill="#ff7f0e"/>
<circle cx="755.82" cy="85.32" r="3" fill="#ff7f0e"/>
<circle cx="766.71" cy="63.26" r="3" fill="#ff7f0e"/>
<circle cx="777.59" cy="46.95" r="3" fill="#ff7f0e"/>
<circle cx="788.48" cy="46.65" r="3" fill="#ff7f0e"/>
<circle cx="799.37" cy="46.78" r="3" fill="#ff7f0e"/>
<circle cx="810.25" cy="46.51" r="3" fill="#ff7f0e"/>
<circle cx="821.14" cy="46.24" r="3" fill="#ff7f0e"/>
<circle cx="832.03" cy="48.36" r="3" fill="#ff7f0e"/>
<circle cx="842.91" cy="49.28" r="3" fill="#ff7f0e"/>
<circle cx="853.80" cy="49.07" r="3" fill="#ff7f0e"/>
<circle cx="864.68" cy="52.92" r="3" fill="#ff7f0e"/>
<circle cx="875.57" cy="168.00" r="3" fill="#ff7f0e"/>
<circle cx="886.46" cy="134.35" r="3" fill="#ff7f0e"/>
<circle cx="897.34" cy="117.71" r="3" fill="#ff7f0e"/>
<circle cx="908.23" cy="94.03" r="3" fill="#ff7f0e"/>
<circle cx="919.11" cy="92.53" r="3" fill="#ff7f0e"/>
<circle cx="930.00" cy="143.03" r="3" fill="#ff7f0e"/>
<polyline fill="none" stroke="#ff7f0e" stroke-width="2" points="70.00,293.01 80.89,288.86 91.77,282.52 102.66,252.66 113.54,235.47 124.43,177.28 135.32,234.36 146.20,290.57 157.09,337.83 167.97,199.22 178.86,185.01 189.75,198.90 200.63,226.17 211.52,210.86 222.41,143.91 233.29,123.37 244.18,110.29 255.06,101.96 265.95,89.27 276.84,77.11 287.72,71.26 298.61,61.94 309.49,56.90 320.38,53.95 331.27,50.37 342.15,49.04 353.04,49.80 363.92,51.07 374.81,51.52 385.70,51.22 396.58,55.26 407.47,52.56 418.35,52.22 429.24,49.52 440.13,48.61 451.01,48.35 461.90,49.78 472.78,50.06 483.67,48.04 494.56,47.25 505.44,47.54 516.33,49.40 527.22,49.98 538.10,51.95 548.99,53.15 559.87,53.59 570.76,49.14 581.65,47.02 592.53,46.28 603.42,46.25 614.30,46.76 625.19,46.50 636.08,47.03 646.96,47.18 657.85,47.10 668.73,46.55 679.62,46.19 690.51,46.61 701.39,47.72 712.28,47.91 723.16,48.44 734.05,92.83 744.94,91.88 755.82,85.32 766.71,63.26 777.59,46.95 788.48,46.65 799.37,46.78 810.25,46.51 821.14,46.24 832.03,48.36 842.91,49.28 853.80,49.07 864.68,52.92 875.57,168.00 886.46,134.35 897.34,117.71 908.23,94.03 919.11,92.53 930.00,143.03"/>
<text x="710" y="76" font-size="12" font-family="Arial" fill="#ff7f0e">LLMMode + DQN</text>
<circle cx="70.00" cy="360.00" r="3" fill="#2ca02c"/>
<circle cx="80.89" cy="346.06" r="3" fill="#2ca02c"/>
<circle cx="91.77" cy="337.80" r="3" fill="#2ca02c"/>
<circle cx="102.66" cy="320.07" r="3" fill="#2ca02c"/>
<circle cx="113.54" cy="240.39" r="3" fill="#2ca02c"/>
<circle cx="124.43" cy="189.13" r="3" fill="#2ca02c"/>
<circle cx="135.32" cy="132.58" r="3" fill="#2ca02c"/>
<circle cx="146.20" cy="125.00" r="3" fill="#2ca02c"/>
<circle cx="157.09" cy="131.04" r="3" fill="#2ca02c"/>
<circle cx="167.97" cy="132.17" r="3" fill="#2ca02c"/>
<circle cx="178.86" cy="173.67" r="3" fill="#2ca02c"/>
<circle cx="189.75" cy="161.91" r="3" fill="#2ca02c"/>
<circle cx="200.63" cy="228.61" r="3" fill="#2ca02c"/>
<circle cx="211.52" cy="54.94" r="3" fill="#2ca02c"/>
<circle cx="222.41" cy="73.72" r="3" fill="#2ca02c"/>
<circle cx="233.29" cy="105.01" r="3" fill="#2ca02c"/>
<circle cx="244.18" cy="105.56" r="3" fill="#2ca02c"/>
<circle cx="255.06" cy="98.84" r="3" fill="#2ca02c"/>
<circle cx="265.95" cy="131.00" r="3" fill="#2ca02c"/>
<circle cx="276.84" cy="100.73" r="3" fill="#2ca02c"/>
<circle cx="287.72" cy="67.01" r="3" fill="#2ca02c"/>
<circle cx="298.61" cy="56.08" r="3" fill="#2ca02c"/>
<circle cx="309.49" cy="58.12" r="3" fill="#2ca02c"/>
<circle cx="320.38" cy="60.90" r="3" fill="#2ca02c"/>
<circle cx="331.27" cy="63.64" r="3" fill="#2ca02c"/>
<circle cx="342.15" cy="62.72" r="3" fill="#2ca02c"/>
<circle cx="353.04" cy="65.60" r="3" fill="#2ca02c"/>
<circle cx="363.92" cy="59.76" r="3" fill="#2ca02c"/>
<circle cx="374.81" cy="66.10" r="3" fill="#2ca02c"/>
<circle cx="385.70" cy="65.06" r="3" fill="#2ca02c"/>
<circle cx="396.58" cy="62.14" r="3" fill="#2ca02c"/>
<circle cx="407.47" cy="63.70" r="3" fill="#2ca02c"/>
<circle cx="418.35" cy="55.21" r="3" fill="#2ca02c"/>
<circle cx="429.24" cy="51.93" r="3" fill="#2ca02c"/>
<circle cx="440.13" cy="51.25" r="3" fill="#2ca02c"/>
<circle cx="451.01" cy="50.78" r="3" fill="#2ca02c"/>
<circle cx="461.90" cy="50.42" r="3" fill="#2ca02c"/>
<circle cx="472.78" cy="48.58" r="3" fill="#2ca02c"/>
<circle cx="483.67" cy="46.51" r="3" fill="#2ca02c"/>
<circle cx="494.56" cy="46.84" r="3" fill="#2ca02c"/>
<circle cx="505.44" cy="47.01" r="3" fill="#2ca02c"/>
<circle cx="516.33" cy="48.43" r="3" fill="#2ca02c"/>
<circle cx="527.22" cy="46.05" r="3" fill="#2ca02c"/>
<circle cx="538.10" cy="45.90" r="3" fill="#2ca02c"/>
<circle cx="548.99" cy="44.72" r="3" fill="#2ca02c"/>
<circle cx="559.87" cy="46.16" r="3" fill="#2ca02c"/>
<circle cx="570.76" cy="48.49" r="3" fill="#2ca02c"/>
<circle cx="581.65" cy="47.23" r="3" fill="#2ca02c"/>
<circle cx="592.53" cy="45.23" r="3" fill="#2ca02c"/>
<circle cx="603.42" cy="43.08" r="3" fill="#2ca02c"/>
<circle cx="614.30" cy="44.20" r="3" fill="#2ca02c"/>
<circle cx="625.19" cy="43.03" r="3" fill="#2ca02c"/>
<circle cx="636.08" cy="44.68" r="3" fill="#2ca02c"/>
<circle cx="646.96" cy="42.96" r="3" fill="#2ca02c"/>
<circle cx="657.85" cy="43.51" r="3" fill="#2ca02c"/>
<circle cx="668.73" cy="55.58" r="3" fill="#2ca02c"/>
<circle cx="679.62" cy="44.07" r="3" fill="#2ca02c"/>
<circle cx="690.51" cy="43.39" r="3" fill="#2ca02c"/>
<circle cx="701.39" cy="43.41" r="3" fill="#2ca02c"/>
<circle cx="712.28" cy="43.31" r="3" fill="#2ca02c"/>
<circle cx="723.16" cy="43.59" r="3" fill="#2ca02c"/>
<circle cx="734.05" cy="43.32" r="3" fill="#2ca02c"/>
<circle cx="744.94" cy="42.69" r="3" fill="#2ca02c"/>
<circle cx="755.82" cy="42.78" r="3" fill="#2ca02c"/>
<circle cx="766.71" cy="48.03" r="3" fill="#2ca02c"/>
<circle cx="777.59" cy="54.28" r="3" fill="#2ca02c"/>
<circle cx="788.48" cy="69.01" r="3" fill="#2ca02c"/>
<circle cx="799.37" cy="58.33" r="3" fill="#2ca02c"/>
<circle cx="810.25" cy="46.38" r="3" fill="#2ca02c"/>
<circle cx="821.14" cy="40.00" r="3" fill="#2ca02c"/>
<circle cx="832.03" cy="169.65" r="3" fill="#2ca02c"/>
<circle cx="842.91" cy="168.13" r="3" fill="#2ca02c"/>
<circle cx="853.80" cy="46.71" r="3" fill="#2ca02c"/>
<circle cx="864.68" cy="118.38" r="3" fill="#2ca02c"/>
<circle cx="875.57" cy="120.68" r="3" fill="#2ca02c"/>
<circle cx="886.46" cy="54.51" r="3" fill="#2ca02c"/>
<circle cx="897.34" cy="112.14" r="3" fill="#2ca02c"/>
<circle cx="908.23" cy="113.22" r="3" fill="#2ca02c"/>
<circle cx="919.11" cy="168.37" r="3" fill="#2ca02c"/>
<circle cx="930.00" cy="188.43" r="3" fill="#2ca02c"/>
<polyline fill="none" stroke="#2ca02c" stroke-width="2" points="70.00,360.00 80.89,346.06 91.77,337.80 102.66,320.07 113.54,240.39 124.43,189.13 135.32,132.58 146.20,125.00 157.09,131.04 167.97,132.17 178.86,173.67 189.75,161.91 200.63,228.61 211.52,54.94 222.41,73.72 233.29,105.01 244.18,105.56 255.06,98.84 265.95,131.00 276.84,100.73 287.72,67.01 298.61,56.08 309.49,58.12 320.38,60.90 331.27,63.64 342.15,62.72 353.04,65.60 363.92,59.76 374.81,66.10 385.70,65.06 396.58,62.14 407.47,63.70 418.35,55.21 429.24,51.93 440.13,51.25 451.01,50.78 461.90,50.42 472.78,48.58 483.67,46.51 494.56,46.84 505.44,47.01 516.33,48.43 527.22,46.05 538.10,45.90 548.99,44.72 559.87,46.16 570.76,48.49 581.65,47.23 592.53,45.23 603.42,43.08 614.30,44.20 625.19,43.03 636.08,44.68 646.96,42.96 657.85,43.51 668.73,55.58 679.62,44.07 690.51,43.39 701.39,43.41 712.28,43.31 723.16,43.59 734.05,43.32 744.94,42.69 755.82,42.78 766.71,48.03 777.59,54.28 788.48,69.01 799.37,58.33 810.25,46.38 821.14,40.00 832.03,169.65 842.91,168.13 853.80,46.71 864.68,118.38 875.57,120.68 886.46,54.51 897.34,112.14 908.23,113.22 919.11,168.37 930.00,188.43"/>
<text x="710" y="94" font-size="12" font-family="Arial" fill="#2ca02c">LLMMode + DQN</text>
</svg>