<svg xmlns="http://www.w3.org/2000/svg" width="960" height="420">
<rect width="100%" height="100%" fill="white"/>
<text x="70" y="24" font-size="18" font-family="Arial">Total Reward Trend</text>
<line x1="70" y1="360" x2="930" y2="360" stroke="#333"/>
<line x1="70" y1="40" x2="70" y2="360" stroke="#333"/>
<line x1="70" y1="360.0" x2="930" y2="360.0" stroke="#ddd"/>
<text x="8" y="364.0" font-size="12" font-family="Arial">-3156477.00</text>
<line x1="70" y1="280.0" x2="930" y2="280.0" stroke="#ddd"/>
<text x="8" y="284.0" font-size="12" font-family="Arial">-2384537.94</text>
<line x1="70" y1="200.0" x2="930" y2="200.0" stroke="#ddd"/>
<text x="8" y="204.0" font-size="12" font-family="Arial">-1612598.87</text>
<line x1="70" y1="120.0" x2="930" y2="120.0" stroke="#ddd"/>
<text x="8" y="124.0" font-size="12" font-family="Arial">-840659.81</text>
<line x1="70" y1="40.0" x2="930" y2="40.0" stroke="#ddd"/>
<text x="8" y="44.0" font-size="12" font-family="Arial">-68720.75</text>
<circle cx="70.00" cy="160.70" r="3" fill="#1f77b4"/>
<circle cx="80.89" cy="172.53" r="3" fill="#1f77b4"/>
<circle cx="91.77" cy="168.29" r="3" fill="#1f77b4"/>
<circle cx="102.66" cy="161.32" r="3" fill="#1f77b4"/>
<circle cx="113.54" cy="121.29" r="3" fill="#1f77b4"/>
<circle cx="124.43" cy="101.69" r="3" fill="#1f77b4"/>
<circle cx="135.32" cy="65.23" r="3" fill="#1f77b4"/>
<circle cx="146.20" cy="65.42" r="3" fill="#1f77b4"/>
<circle cx="157.09" cy="55.06" r="3" fill="#1f77b4"/>
<circle cx="167.97" cy="58.55" r="3" fill="#1f77b4"/>
<circle cx="178.86" cy="55.91" r="3" fill="#1f77b4"/>
<circle cx="189.75" cy="52.09" r="3" fill="#1f77b4"/>
<circle cx="200.63" cy="50.77" r="3" fill="#1f77b4"/>
<circle cx="211.52" cy="47.31" r="3" fill="#1f77b4"/>
<circle cx="222.41" cy="46.29" r="3" fill="#1f77b4"/>
<circle cx="233.29" cy="50.85" r="3" fill="#1f77b4"/>
<circle cx="244.18" cy="48.23" r="3" fill="#1f77b4"/>
<circle cx="255.06" cy="48.39" r="3" fill="#1f77b4"/>
<circle cx="265.95" cy="45.92" r="3" fill="#1f77b4"/>
<circle cx="276.84" cy="43.76" r="3" fill="#1f77b4"/>
<circle cx="287.72" cy="44.55" r="3" fill="#1f77b4"/>
<circle cx="298.61" cy="45.99" r="3" fill="#1f77b4"/>
<circle cx="309.49" cy="44.53" r="3" fill="#1f77b4"/>
<circle cx="320.38" cy="45.37" r="3" fill="#1f77b4"/>
<circle cx="331.27" cy="54.45" r="3" fill="#1f77b4"/>
<circle cx="342.15" cy="54.79" r="3" fill="#1f77b4"/>
<circle cx="353.04" cy="49.07" r="3" fill="#1f77b4"/>
<circle cx="363.92" cy="44.11" r="3" fill="#1f77b4"/>
<circle cx="374.81" cy="42.39" r="3" fill="#1f77b4"/>
<circle cx="385.70" cy="41.70" r="3" fill="#1f77b4"/>
<circle cx="396.58" cy="41.65" r="3" fill="#1f77b4"/>
<circle cx="407.47" cy="41.93" r="3" fill="#1f77b4"/>
<circle cx="418.35" cy="41.57" r="3" fill="#1f77b4"/>
<circle cx="429.24" cy="41.80" r="3" fill="#1f77b4"/>
<circle cx="440.13" cy="41.94" r="3" fill="#1f77b4"/>
<circle cx="451.01" cy="41.61" r="3" fill="#1f77b4"/>
<circle cx="461.90" cy="41.64" r="3" fill="#1f77b4"/>
<circle cx="472.78" cy="41.26" r="3" fill="#1f77b4"/>
<circle cx="483.67" cy="41.20" r="3" fill="#1f77b4"/>
<circle cx="494.56" cy="40.57" r="3" fill="#1f77b4"/>
<circle cx="505.44" cy="40.65" r="3" fill="#1f77b4"/>
<circle cx="516.33" cy="40.75" r="3" fill="#1f77b4"/>
<circle cx="527.22" cy="40.45" r="3" fill="#1f77b4"/>
<circle cx="538.10" cy="40.27" r="3" fill="#1f77b4"/>
<circle cx="548.99" cy="40.33" r="3" fill="#1f77b4"/>
<circle cx="559.87" cy="40.42" r="3" fill="#1f77b4"/>
<circle cx="570.76" cy="40.51" r="3" fill="#1f77b4"/>
<circle cx="581.65" cy="40.67" r="3" fill="#1f77b4"/>
<circle cx="592.53" cy="40.41" r="3" fill="#1f77b4"/>
<circle cx="603.42" cy="40.41" r="3" fill="#1f77b4"/>
<circle cx="614.30" cy="40.42" r="3" fill="#1f77b4"/>
<circle cx="625.19" cy="40.50" r="3" fill="#1f77b4"/>
<circle cx="636.08" cy="40.54" r="3" fill="#1f77b4"/>
<circle cx="646.96" cy="41.16" r="3" fill="#1f77b4"/>
<circle cx="657.85" cy="40.75" r="3" fill="#1f77b4"/>
<circle cx="668.73" cy="40.61" r="3" fill="#1f77b4"/>
<circle cx="679.62" cy="40.48" r="3" fill="#1f77b4"/>
<circle cx="690.51" cy="40.42" r="3" fill="#1f77b4"/>
<circle cx="701.39" cy="40.75" r="3" fill="#1f77b4"/>
<circle cx="712.28" cy="40.62" r="3" fill="#1f77b4"/>
<circle cx="723.16" cy="40.65" r="3" fill="#1f77b4"/>
<circle cx="734.05" cy="40.35" r="3" fill="#1f77b4"/>
<circle cx="744.94" cy="40.23" r="3" fill="#1f77b4"/>
<circle cx="755.82" cy="40.28" r="3" fill="#1f77b4"/>
<circle cx="766.71" cy="40.24" r="3" fill="#1f77b4"/>
<circle cx="777.59" cy="40.08" r="3" fill="#1f77b4"/>
<circle cx="788.48" cy="40.15" r="3" fill="#1f77b4"/>
<circle cx="799.37" cy="40.70" r="3" fill="#1f77b4"/>
<circle cx="810.25" cy="40.57" r="3" fill="#1f77b4"/>
<circle cx="821.14" cy="40.27" r="3" fill="#1f77b4"/>
<circle cx="832.03" cy="40.30" r="3" fill="#1f77b4"/>
<circle cx="842.91" cy="40.10" r="3" fill="#1f77b4"/>
<circle cx="853.80" cy="40.89" r="3" fill="#1f77b4"/>
<circle cx="864.68" cy="41.51" r="3" fill="#1f77b4"/>
<circle cx="875.57" cy="41.30" r="3" fill="#1f77b4"/>
<circle cx="886.46" cy="41.92" r="3" fill="#1f77b4"/>
<circle cx="897.34" cy="42.72" r="3" fill="#1f77b4"/>
<circle cx="908.23" cy="43.03" r="3" fill="#1f77b4"/>
<circle cx="919.11" cy="86.06" r="3" fill="#1f77b4"/>
<circle cx="930.00" cy="83.87" r="3" fill="#1f77b4"/>
<polyline fill="none" stroke="#1f77b4" stroke-width="2" points="70.00,160.70 80.89,172.53 91.77,168.29 102.66,161.32 113.54,121.29 124.43,101.69 135.32,65.23 146.20,65.42 157.09,55.06 167.97,58.55 178.86,55.91 189.75,52.09 200.63,50.77 211.52,47.31 222.41,46.29 233.29,50.85 244.18,48.23 255.06,48.39 265.95,45.92 276.84,43.76 287.72,44.55 298.61,45.99 309.49,44.53 320.38,45.37 331.27,54.45 342.15,54.79 353.04,49.07 363.92,44.11 374.81,42.39 385.70,41.70 396.58,41.65 407.47,41.93 418.35,41.57 429.24,41.80 440.13,41.94 451.01,41.61 461.90,41.64 472.78,41.26 483.67,41.20 494.56,40.57 505.44,40.65 516.33,40.75 527.22,40.45 538.10,40.27 548.99,40.33 559.87,40.42 570.76,40.51 581.65,40.67 592.53,40.41 603.42,40.41 614.30,40.42 625.19,40.50 636.08,40.54 646.96,41.16 657.85,40.75 668.73,40.61 679.62,40.48 690.51,40.42 701.39,40.75 712.28,40.62 723.16,40.65 734.05,40.35 744.94,40.23 755.82,40.28 766.71,40.24 777.59,40.08 788.48,40.15 799.37,40.70 810.25,40.57 821.14,40.27 832.03,40.30 842.91,40.10 853.80,40.89 864.68,41.51 875.57,41.30 886.46,41.92 897.34,42.72 908.23,43.03 919.11,86.06 930.00,83.87"/>
<text x="710" y="58" font-size="12" font-family="Arial" fill="#1f77b4">Pure DQN</text>
<circle cx="70.00" cy="351.18" r="3" fill="#ff7f0e"/>
<circle cx="80.89" cy="339.66" r="3" fill="#ff7f0e"/>
<circle cx="91.77" cy="360.00" r="3" fill="#ff7f0e"/>
<circle cx="102.66" cy="221.99" r="3" fill="#ff7f0e"/>
<circle cx="113.54" cy="134.34" r="3" fill="#ff7f0e"/>
<circle cx="124.43" cy="103.81" r="3" fill="#ff7f0e"/>
<circle cx="135.32" cy="247.66" r="3" fill="#ff7f0e"/>
<circle cx="146.20" cy="151.25" r="3" fill="#ff7f0e"/>
<circle cx="157.09" cy="153.01" r="3" fill="#ff7f0e"/>
<circle cx="167.97" cy="186.92" r="3" fill="#ff7f0e"/>
<circle cx="178.86" cy="162.13" r="3" fill="#ff7f0e"/>
<circle cx="189.75" cy="252.92" r="3" fill="#ff7f0e"/>
<circle cx="200.63" cy="204.72" r="3" fill="#ff7f0e"/>
<circle cx="211.52" cy="244.26" r="3" fill="#ff7f0e"/>
<circle cx="222.41" cy="248.51" r="3" fill="#ff7f0e"/>
<circle cx="233.29" cy="188.64" r="3" fill="#ff7f0e"/>
<circle cx="244.18" cy="208.86" r="3" fill="#ff7f0e"/>
<circle cx="255.06" cy="195.63" r="3" fill="#ff7f0e"/>
<circle cx="265.95" cy="172.47" r="3" fill="#ff7f0e"/>
<circle cx="276.84" cy="231.08" r="3" fill="#ff7f0e"/>
<circle cx="287.72" cy="227.61" r="3" fill="#ff7f0e"/>
<circle cx="298.61" cy="185.72" r="3" fill="#ff7f0e"/>
<circle cx="309.49" cy="147.97" r="3" fill="#ff7f0e"/>
<circle cx="320.38" cy="149.61" r="3" fill="#ff7f0e"/>
<circle cx="331.27" cy="114.31" r="3" fill="#ff7f0e"/>
<circle cx="342.15" cy="44.07" r="3" fill="#ff7f0e"/>
<circle cx="353.04" cy="51.77" r="3" fill="#ff7f0e"/>
<circle cx="363.92" cy="61.75" r="3" fill="#ff7f0e"/>
<circle cx="374.81" cy="151.50" r="3" fill="#ff7f0e"/>
<circle cx="385.70" cy="119.21" r="3" fill="#ff7f0e"/>
<circle cx="396.58" cy="193.77" r="3" fill="#ff7f0e"/>
<circle cx="407.47" cy="189.55" r="3" fill="#ff7f0e"/>
<circle cx="418.35" cy="88.22" r="3" fill="#ff7f0e"/>
<circle cx="429.24" cy="104.32" r="3" fill="#ff7f0e"/>
<circle cx="440.13" cy="43.76" r="3" fill="#ff7f0e"/>
<circle cx="451.01" cy="43.49" r="3" fill="#ff7f0e"/>
<circle cx="461.90" cy="42.86" r="3" fill="#ff7f0e"/>
<circle cx="472.78" cy="42.78" r="3" fill="#ff7f0e"/>
<circle cx="483.67" cy="42.97" r="3" fill="#ff7f0e"/>
<circle cx="494.56" cy="42.76" r="3" fill="#ff7f0e"/>
<circle cx="505.44" cy="42.56" r="3" fill="#ff7f0e"/>
<circle cx="516.33" cy="42.81" r="3" fill="#ff7f0e"/>
<circle cx="527.22" cy="54.03" r="3" fill="#ff7f0e"/>
<circle cx="538.10" cy="41.93" r="3" fill="#ff7f0e"/>
<circle cx="548.99" cy="49.45" r="3" fill="#ff7f0e"/>
<circle cx="559.87" cy="42.02" r="3" fill="#ff7f0e"/>
<circle cx="570.76" cy="63.19" r="3" fill="#ff7f0e"/>
<circle cx="581.65" cy="42.32" r="3" fill="#ff7f0e"/>
<circle cx="592.53" cy="42.38" r="3" fill="#ff7f0e"/>
<circle cx="603.42" cy="42.00" r="3" fill="#ff7f0e"/>
<circle cx="614.30" cy="42.86" r="3" fill="#ff7f0e"/>
<circle cx="625.19" cy="43.10" r="3" fill="#ff7f0e"/>
<circle cx="636.08" cy="41.95" r="3" fill="#ff7f0e"/>
<circle cx="646.96" cy="41.84" r="3" fill="#ff7f0e"/>
<circle cx="657.85" cy="41.55" r="3" fill="#ff7f0e"/>
<circle cx="668.73" cy="41.77" r="3" fill="#ff7f0e"/>
<circle cx="679.62" cy="41.21" r="3" fill="#ff7f0e"/>
<circle cx="690.51" cy="40.77" r="3" fill="#ff7f0e"/>
<circle cx="701.39" cy="40.55" r="3" fill="#ff7f0e"/>
<circle cx="712.28" cy="40.35" r="3" fill="#ff7f0e"/>
<circle cx="723.16" cy="40.37" r="3" fill="#ff7f0e"/>
<circle cx="734.05" cy="40.68" r="3" fill="#ff7f0e"/>
<circle cx="744.94" cy="40.89" r="3" fill="#ff7f0e"/>
<circle cx="755.82" cy="41.02" r="3" fill="#ff7f0e"/>
<circle cx="766.71" cy="40.72" r="3" fill="#ff7f0e"/>
<circle cx="777.59" cy="41.25" r="3" fill="#ff7f0e"/>
<circle cx="788.48" cy="40.44" r="3" fill="#ff7f0e"/>
<circle cx="799.37" cy="40.23" r="3" fill="#ff7f0e"/>
<circle cx="810.25" cy="41.93" r="3" fill="#ff7f0e"/>
<circle cx="821.14" cy="40.23" r="3" fill="#ff7f0e"/>
<circle cx="832.03" cy="40.56" r="3" fill="#ff7f0e"/>
<circle cx="842.91" cy="40.60" r="3" fill="#ff7f0e"/>
<circle cx="853.80" cy="40.42" r="3" fill="#ff7f0e"/>
<circle cx="864.68" cy="40.59" r="3" fill="#ff7f0e"/>
<circle cx="875.57" cy="40.33" r="3" fill="#ff7f0e"/>
<circle cx="886.46" cy="40.06" r="3" fill="#ff7f0e"/>
<circle cx="897.34" cy="40.00" r="3" fill="#ff7f0e"/>
<circle cx="908.23" cy="40.08" r="3" fill="#ff7f0e"/>
<circle cx="919.11" cy="40.11" r="3" fill="#ff7f0e"/>
<circle cx="930.00" cy="40.09" r="3" fill="#ff7f0e"/>
<polyline fill="none" stroke="#ff7f0e" stroke-width="2" points="70.00,351.18 80.89,339.66 91.77,360.00 102.66,221.99 113.54,134.34 124.43,103.81 135.32,247.66 146.20,151.25 157.09,153.01 167.97,186.92 178.86,162.13 189.75,252.92 200.63,204.72 211.52,244.26 222.41,248.51 233.29,188.64 244.18,208.86 255.06,195.63 265.95,172.47 276.84,231.08 287.72,227.61 298.61,185.72 309.49,147.97 320.38,149.61 331.27,114.31 342.15,44.07 353.04,51.77 363.92,61.75 374.81,151.50 385.70,119.21 396.58,193.77 407.47,189.55 418.35,88.22 429.24,104.32 440.13,43.76 451.01,43.49 461.90,42.86 472.78,42.78 483.67,42.97 494.56,42.76 505.44,42.56 516.33,42.81 527.22,54.03 538.10,41.93 548.99,49.45 559.87,42.02 570.76,63.19 581.65,42.32 592.53,42.38 603.42,42.00 614.30,42.86 625.19,43.10 636.08,41.95 646.96,41.84 657.85,41.55 668.73,41.77 679.62,41.21 690.51,40.77 701.39,40.55 712.28,40.35 723.16,40.37 734.05,40.68 744.94,40.89 755.82,41.02 766.71,40.72 777.59,41.25 788.48,40.44 799.37,40.23 810.25,41.93 821.14,40.23 832.03,40.56 842.91,40.60 853.80,40.42 864.68,40.59 875.57,40.33 886.46,40.06 897.34,40.00 908.23,40.08 919.11,40.11 930.00,40.09"/>
<text x="710" y="76" font-size="12" font-family="Arial" fill="#ff7f0e">RuleMode + DQN</text>
</svg>