<svg xmlns="http://www.w3.org/2000/svg" width="960" height="420">
<rect width="100%" height="100%" fill="white"/>
<text x="70" y="24" font-size="18" font-family="Arial">Total Reward Trend</text>
<line x1="70" y1="360" x2="930" y2="360" stroke="#333"/>
<line x1="70" y1="40" x2="70" y2="360" stroke="#333"/>
<line x1="70" y1="360.0" x2="930" y2="360.0" stroke="#ddd"/>
<text x="8" y="364.0" font-size="12" font-family="Arial">-3308218.70</text>
<line x1="70" y1="280.0" x2="930" y2="280.0" stroke="#ddd"/>
<text x="8" y="284.0" font-size="12" font-family="Arial">-2497697.90</text>
<line x1="70" y1="200.0" x2="930" y2="200.0" stroke="#ddd"/>
<text x="8" y="204.0" font-size="12" font-family="Arial">-1687177.10</text>
<line x1="70" y1="120.0" x2="930" y2="120.0" stroke="#ddd"/>
<text x="8" y="124.0" font-size="12" font-family="Arial">-876656.30</text>
<line x1="70" y1="40.0" x2="930" y2="40.0" stroke="#ddd"/>
<text x="8" y="44.0" font-size="12" font-family="Arial">-66135.50</text>
<circle cx="70.00" cy="165.72" r="3" fill="#1f77b4"/>
<circle cx="80.89" cy="164.45" r="3" fill="#1f77b4"/>
<circle cx="91.77" cy="112.37" r="3" fill="#1f77b4"/>
<circle cx="102.66" cy="93.77" r="3" fill="#1f77b4"/>
<circle cx="113.54" cy="80.26" r="3" fill="#1f77b4"/>
<circle cx="124.43" cy="47.32" r="3" fill="#1f77b4"/>
<circle cx="135.32" cy="46.75" r="3" fill="#1f77b4"/>
<circle cx="146.20" cy="56.22" r="3" fill="#1f77b4"/>
<circle cx="157.09" cy="48.52" r="3" fill="#1f77b4"/>
<circle cx="167.97" cy="49.01" r="3" fill="#1f77b4"/>
<circle cx="178.86" cy="44.24" r="3" fill="#1f77b4"/>
<circle cx="189.75" cy="43.92" r="3" fill="#1f77b4"/>
<circle cx="200.63" cy="45.40" r="3" fill="#1f77b4"/>
<circle cx="211.52" cy="46.96" r="3" fill="#1f77b4"/>
<circle cx="222.41" cy="85.00" r="3" fill="#1f77b4"/>
<circle cx="233.29" cy="83.41" r="3" fill="#1f77b4"/>
<circle cx="244.18" cy="79.60" r="3" fill="#1f77b4"/>
<circle cx="255.06" cy="81.78" r="3" fill="#1f77b4"/>
<circle cx="265.95" cy="72.35" r="3" fill="#1f77b4"/>
<circle cx="276.84" cy="44.60" r="3" fill="#1f77b4"/>
<circle cx="287.72" cy="45.22" r="3" fill="#1f77b4"/>
<circle cx="298.61" cy="66.87" r="3" fill="#1f77b4"/>
<circle cx="309.49" cy="66.67" r="3" fill="#1f77b4"/>
<circle cx="320.38" cy="41.16" r="3" fill="#1f77b4"/>
<circle cx="331.27" cy="66.82" r="3" fill="#1f77b4"/>
<circle cx="342.15" cy="80.63" r="3" fill="#1f77b4"/>
<circle cx="353.04" cy="79.50" r="3" fill="#1f77b4"/>
<circle cx="363.92" cy="72.12" r="3" fill="#1f77b4"/>
<circle cx="374.81" cy="76.37" r="3" fill="#1f77b4"/>
<circle cx="385.70" cy="64.42" r="3" fill="#1f77b4"/>
<circle cx="396.58" cy="62.86" r="3" fill="#1f77b4"/>
<circle cx="407.47" cy="65.60" r="3" fill="#1f77b4"/>
<circle cx="418.35" cy="60.40" r="3" fill="#1f77b4"/>
<circle cx="429.24" cy="62.16" r="3" fill="#1f77b4"/>
<circle cx="440.13" cy="42.25" r="3" fill="#1f77b4"/>
<circle cx="451.01" cy="41.65" r="3" fill="#1f77b4"/>
<circle cx="461.90" cy="41.06" r="3" fill="#1f77b4"/>
<circle cx="472.78" cy="40.56" r="3" fill="#1f77b4"/>
<circle cx="483.67" cy="40.68" r="3" fill="#1f77b4"/>
<circle cx="494.56" cy="41.09" r="3" fill="#1f77b4"/>
<circle cx="505.44" cy="40.70" r="3" fill="#1f77b4"/>
<circle cx="516.33" cy="41.02" r="3" fill="#1f77b4"/>
<circle cx="527.22" cy="70.78" r="3" fill="#1f77b4"/>
<circle cx="538.10" cy="69.32" r="3" fill="#1f77b4"/>
<circle cx="548.99" cy="73.49" r="3" fill="#1f77b4"/>
<circle cx="559.87" cy="68.64" r="3" fill="#1f77b4"/>
<circle cx="570.76" cy="72.78" r="3" fill="#1f77b4"/>
<circle cx="581.65" cy="78.33" r="3" fill="#1f77b4"/>
<circle cx="592.53" cy="40.59" r="3" fill="#1f77b4"/>
<circle cx="603.42" cy="40.58" r="3" fill="#1f77b4"/>
<circle cx="614.30" cy="40.70" r="3" fill="#1f77b4"/>
<circle cx="625.19" cy="40.64" r="3" fill="#1f77b4"/>
<circle cx="636.08" cy="40.72" r="3" fill="#1f77b4"/>
<circle cx="646.96" cy="40.56" r="3" fill="#1f77b4"/>
<circle cx="657.85" cy="40.80" r="3" fill="#1f77b4"/>
<circle cx="668.73" cy="41.01" r="3" fill="#1f77b4"/>
<circle cx="679.62" cy="40.40" r="3" fill="#1f77b4"/>
<circle cx="690.51" cy="40.00" r="3" fill="#1f77b4"/>
<circle cx="701.39" cy="40.22" r="3" fill="#1f77b4"/>
<circle cx="712.28" cy="40.16" r="3" fill="#1f77b4"/>
<circle cx="723.16" cy="40.43" r="3" fill="#1f77b4"/>
<circle cx="734.05" cy="40.65" r="3" fill="#1f77b4"/>
<circle cx="744.94" cy="40.43" r="3" fill="#1f77b4"/>
<circle cx="755.82" cy="40.33" r="3" fill="#1f77b4"/>
<circle cx="766.71" cy="40.38" r="3" fill="#1f77b4"/>
<circle cx="777.59" cy="40.39" r="3" fill="#1f77b4"/>
<circle cx="788.48" cy="40.24" r="3" fill="#1f77b4"/>
<circle cx="799.37" cy="40.24" r="3" fill="#1f77b4"/>
<circle cx="810.25" cy="40.55" r="3" fill="#1f77b4"/>
<circle cx="821.14" cy="72.50" r="3" fill="#1f77b4"/>
<circle cx="832.03" cy="98.49" r="3" fill="#1f77b4"/>
<circle cx="842.91" cy="97.98" r="3" fill="#1f77b4"/>
<circle cx="853.80" cy="75.46" r="3" fill="#1f77b4"/>
<circle cx="864.68" cy="80.67" r="3" fill="#1f77b4"/>
<circle cx="875.57" cy="111.63" r="3" fill="#1f77b4"/>
<circle cx="886.46" cy="98.35" r="3" fill="#1f77b4"/>
<circle cx="897.34" cy="100.24" r="3" fill="#1f77b4"/>
<circle cx="908.23" cy="106.72" r="3" fill="#1f77b4"/>
<circle cx="919.11" cy="112.00" r="3" fill="#1f77b4"/>
<circle cx="930.00" cy="100.63" r="3" fill="#1f77b4"/>
<polyline fill="none" stroke="#1f77b4" stroke-width="2" points="70.00,165.72 80.89,164.45 91.77,112.37 102.66,93.77 113.54,80.26 124.43,47.32 135.32,46.75 146.20,56.22 157.09,48.52 167.97,49.01 178.86,44.24 189.75,43.92 200.63,45.40 211.52,46.96 222.41,85.00 233.29,83.41 244.18,79.60 255.06,81.78 265.95,72.35 276.84,44.60 287.72,45.22 298.61,66.87 309.49,66.67 320.38,41.16 331.27,66.82 342.15,80.63 353.04,79.50 363.92,72.12 374.81,76.37 385.70,64.42 396.58,62.86 407.47,65.60 418.35,60.40 429.24,62.16 440.13,42.25 451.01,41.65 461.90,41.06 472.78,40.56 483.67,40.68 494.56,41.09 505.44,40.70 516.33,41.02 527.22,70.78 538.10,69.32 548.99,73.49 559.87,68.64 570.76,72.78 581.65,78.33 592.53,40.59 603.42,40.58 614.30,40.70 625.19,40.64 636.08,40.72 646.96,40.56 657.85,40.80 668.73,41.01 679.62,40.40 690.51,40.00 701.39,40.22 712.28,40.16 723.16,40.43 734.05,40.65 744.94,40.43 755.82,40.33 766.71,40.38 777.59,40.39 788.48,40.24 799.37,40.24 810.25,40.55 821.14,72.50 832.03,98.49 842.91,97.98 853.80,75.46 864.68,80.67 875.57,111.63 886.46,98.35 897.34,100.24 908.23,106.72 919.11,112.00 930.00,100.63"/>
<text x="710" y="58" font-size="12" font-family="Arial" fill="#1f77b4">Pure DQN</text>
<circle cx="70.00" cy="360.00" r="3" fill="#ff7f0e"/>
<circle cx="80.89" cy="312.80" r="3" fill="#ff7f0e"/>
<circle cx="91.77" cy="328.20" r="3" fill="#ff7f0e"/>
<circle cx="102.66" cy="263.60" r="3" fill="#ff7f0e"/>
<circle cx="113.54" cy="255.37" r="3" fill="#ff7f0e"/>
<circle cx="124.43" cy="211.83" r="3" fill="#ff7f0e"/>
<circle cx="135.32" cy="116.93" r="3" fill="#ff7f0e"/>
<circle cx="146.20" cy="326.60" r="3" fill="#ff7f0e"/>
<circle cx="157.09" cy="207.83" r="3" fill="#ff7f0e"/>
<circle cx="167.97" cy="235.05" r="3" fill="#ff7f0e"/>
<circle cx="178.86" cy="157.96" r="3" fill="#ff7f0e"/>
<circle cx="189.75" cy="112.25" r="3" fill="#ff7f0e"/>
<circle cx="200.63" cy="127.13" r="3" fill="#ff7f0e"/>
<circle cx="211.52" cy="113.54" r="3" fill="#ff7f0e"/>
<circle cx="222.41" cy="112.85" r="3" fill="#ff7f0e"/>
<circle cx="233.29" cy="109.92" r="3" fill="#ff7f0e"/>
<circle cx="244.18" cy="104.28" r="3" fill="#ff7f0e"/>
<circle cx="255.06" cy="104.02" r="3" fill="#ff7f0e"/>
<circle cx="265.95" cy="102.75" r="3" fill="#ff7f0e"/>
<circle cx="276.84" cy="93.25" r="3" fill="#ff7f0e"/>
<circle cx="287.72" cy="93.88" r="3" fill="#ff7f0e"/>
<circle cx="298.61" cy="95.47" r="3" fill="#ff7f0e"/>
<circle cx="309.49" cy="103.01" r="3" fill="#ff7f0e"/>
<circle cx="320.38" cy="91.38" r="3" fill="#ff7f0e"/>
<circle cx="331.27" cy="78.55" r="3" fill="#ff7f0e"/>
<circle cx="342.15" cy="98.69" r="3" fill="#ff7f0e"/>
<circle cx="353.04" cy="61.81" r="3" fill="#ff7f0e"/>
<circle cx="363.92" cy="53.52" r="3" fill="#ff7f0e"/>
<circle cx="374.81" cy="47.91" r="3" fill="#ff7f0e"/>
<circle cx="385.70" cy="43.73" r="3" fill="#ff7f0e"/>
<circle cx="396.58" cy="45.21" r="3" fill="#ff7f0e"/>
<circle cx="407.47" cy="45.52" r="3" fill="#ff7f0e"/>
<circle cx="418.35" cy="41.80" r="3" fill="#ff7f0e"/>
<circle cx="429.24" cy="48.10" r="3" fill="#ff7f0e"/>
<circle cx="440.13" cy="43.12" r="3" fill="#ff7f0e"/>
<circle cx="451.01" cy="41.33" r="3" fill="#ff7f0e"/>
<circle cx="461.90" cy="41.88" r="3" fill="#ff7f0e"/>
<circle cx="472.78" cy="42.26" r="3" fill="#ff7f0e"/>
<circle cx="483.67" cy="41.33" r="3" fill="#ff7f0e"/>
<circle cx="494.56" cy="42.10" r="3" fill="#ff7f0e"/>
<circle cx="505.44" cy="41.05" r="3" fill="#ff7f0e"/>
<circle cx="516.33" cy="41.67" r="3" fill="#ff7f0e"/>
<circle cx="527.22" cy="41.02" r="3" fill="#ff7f0e"/>
<circle cx="538.10" cy="41.41" r="3" fill="#ff7f0e"/>
<circle cx="548.99" cy="41.97" r="3" fill="#ff7f0e"/>
<circle cx="559.87" cy="40.73" r="3" fill="#ff7f0e"/>
<circle cx="570.76" cy="40.72" r="3" fill="#ff7f0e"/>
<circle cx="581.65" cy="40.65" r="3" fill="#ff7f0e"/>
<circle cx="592.53" cy="40.77" r="3" fill="#ff7f0e"/>
<circle cx="603.42" cy="40.73" r="3" fill="#ff7f0e"/>
<circle cx="614.30" cy="40.83" r="3" fill="#ff7f0e"/>
<circle cx="625.19" cy="40.71" r="3" fill="#ff7f0e"/>
<circle cx="636.08" cy="42.18" r="3" fill="#ff7f0e"/>
<circle cx="646.96" cy="41.37" r="3" fill="#ff7f0e"/>
<circle cx="657.85" cy="41.17" r="3" fill="#ff7f0e"/>
<circle cx="668.73" cy="41.29" r="3" fill="#ff7f0e"/>
<circle cx="679.62" cy="40.89" r="3" fill="#ff7f0e"/>
<circle cx="690.51" cy="40.64" r="3" fill="#ff7f0e"/>
<circle cx="701.39" cy="41.10" r="3" fill="#ff7f0e"/>
<circle cx="712.28" cy="41.66" r="3" fill="#ff7f0e"/>
<circle cx="723.16" cy="41.27" r="3" fill="#ff7f0e"/>
<circle cx="734.05" cy="41.24" r="3" fill="#ff7f0e"/>
<circle cx="744.94" cy="41.01" r="3" fill="#ff7f0e"/>
<circle cx="755.82" cy="40.79" r="3" fill="#ff7f0e"/>
<circle cx="766.71" cy="40.81" r="3" fill="#ff7f0e"/>
<circle cx="777.59" cy="40.75" r="3" fill="#ff7f0e"/>
<circle cx="788.48" cy="40.43" r="3" fill="#ff7f0e"/>
<circle cx="799.37" cy="40.85" r="3" fill="#ff7f0e"/>
<circle cx="810.25" cy="41.05" r="3" fill="#ff7f0e"/>
<circle cx="821.14" cy="40.91" r="3" fill="#ff7f0e"/>
<circle cx="832.03" cy="40.88" r="3" fill="#ff7f0e"/>
<circle cx="842.91" cy="40.88" r="3" fill="#ff7f0e"/>
<circle cx="853.80" cy="42.33" r="3" fill="#ff7f0e"/>
<circle cx="864.68" cy="41.00" r="3" fill="#ff7f0e"/>
<circle cx="875.57" cy="41.04" r="3" fill="#ff7f0e"/>
<circle cx="886.46" cy="40.93" r="3" fill="#ff7f0e"/>
<circle cx="897.34" cy="41.55" r="3" fill="#ff7f0e"/>
<circle cx="908.23" cy="41.41" r="3" fill="#ff7f0e"/>
<circle cx="919.11" cy="41.54" r="3" fill="#ff7f0e"/>
<circle cx="930.00" cy="41.40" r="3" fill="#ff7f0e"/>
<polyline fill="none" stroke="#ff7f0e" stroke-width="2" points="70.00,360.00 80.89,312.80 91.77,328.20 102.66,263.60 113.54,255.37 124.43,211.83 135.32,116.93 146.20,326.60 157.09,207.83 167.97,235.05 178.86,157.96 189.75,112.25 200.63,127.13 211.52,113.54 222.41,112.85 233.29,109.92 244.18,104.28 255.06,104.02 265.95,102.75 276.84,93.25 287.72,93.88 298.61,95.47 309.49,103.01 320.38,91.38 331.27,78.55 342.15,98.69 353.04,61.81 363.92,53.52 374.81,47.91 385.70,43.73 396.58,45.21 407.47,45.52 418.35,41.80 429.24,48.10 440.13,43.12 451.01,41.33 461.90,41.88 472.78,42.26 483.67,41.33 494.56,42.10 505.44,41.05 516.33,41.67 527.22,41.02 538.10,41.41 548.99,41.97 559.87,40.73 570.76,40.72 581.65,40.65 592.53,40.77 603.42,40.73 614.30,40.83 625.19,40.71 636.08,42.18 646.96,41.37 657.85,41.17 668.73,41.29 679.62,40.89 690.51,40.64 701.39,41.10 712.28,41.66 723.16,41.27 734.05,41.24 744.94,41.01 755.82,40.79 766.71,40.81 777.59,40.75 788.48,40.43 799.37,40.85 810.25,41.05 821.14,40.91 832.03,40.88 842.91,40.88 853.80,42.33 864.68,41.00 875.57,41.04 886.46,40.93 897.34,41.55 908.23,41.41 919.11,41.54 930.00,41.40"/>
<text x="710" y="76" font-size="12" font-family="Arial" fill="#ff7f0e">RuleMode + DQN</text>
</svg>